<svg width="24" height="24" viewBox="0 0 24 24" fill="none" xmlns="http://www.w3.org/2000/svg">
<path d="M15.8602 12.015C15.9402 12.085 15.9502 12.195 15.9002 12.295C15.8502 12.375 15.7402 12.425 15.6402 12.395L12.8002 11.435L12.2002 14.365C12.1802 14.465 12.0902 14.545 11.9802 14.545C11.8702 14.545 11.7802 14.465 11.7702 14.365L11.1802 11.425L8.34016 12.375C8.24016 12.415 8.13016 12.375 8.08016 12.275C8.03016 12.185 8.05016 12.065 8.12016 11.995L10.3702 10.015L8.13016 8.02499C8.05016 7.95499 8.04016 7.845 8.08016 7.745C8.13016 7.665 8.24016 7.615 8.34016 7.645L11.1802 8.60499L11.7802 5.67499C11.8002 5.575 11.8902 5.495 12.0002 5.495C12.1102 5.495 12.2002 5.575 12.2102 5.67499L12.8002 8.615L15.6402 7.665C15.7402 7.625 15.8502 7.665 15.9002 7.765C15.9502 7.855 15.9302 7.975 15.8502 8.045L13.6002 10.025L15.8402 12.015H15.8602Z" fill="#445582"/>
<path d="M5.29016 19.935H18.7202C18.9402 19.935 19.1202 20.115 19.1202 20.335V24.005H4.89016V20.335C4.89016 20.115 5.07016 19.935 5.29016 19.935Z" fill="#445582"/>
<path d="M21.9302 9.785L12.2302 0.0949951C12.1702 0.0349951 12.0802 -0.00500488 12.0002 -0.00500488C11.9202 -0.00500488 11.8302 0.0249951 11.7702 0.0949951L2.07016 9.785C1.94016 9.915 1.94016 10.115 2.07016 10.245L8.34016 16.515H10.2202L3.72016 10.015L12.0002 1.735L20.2802 10.015L13.7802 16.515H15.6602L21.9302 10.245C22.0602 10.115 22.0602 9.915 21.9302 9.785Z" fill="#445582"/>
<path d="M16.0602 19.025V17.715C16.0602 17.555 15.9302 17.425 15.7702 17.425H8.22016C8.06016 17.425 7.93016 17.555 7.93016 17.715V19.025H16.0602Z" fill="#445582"/>
</svg>
