<svg width="24" height="24" viewBox="0 0 24 24" fill="none" xmlns="http://www.w3.org/2000/svg">
<g clip-path="url(#clip0_10924_12362)">
<path d="M13.7602 16.9C13.7602 17.87 12.9702 18.66 12.0002 18.66C11.0302 18.66 10.2402 17.87 10.2402 16.9V12.8C10.2402 11.83 11.0302 11.05 12.0002 11.05C12.9702 11.05 13.7602 11.84 13.7602 12.8V16.9Z" fill="#445582"/>
<path d="M10.0898 7.51998C10.0898 8.57998 10.9398 9.43998 11.9998 9.43998C13.0598 9.43998 13.9198 8.57998 13.9198 7.51998C13.9198 6.45998 13.0498 5.59998 11.9998 5.59998C10.9498 5.59998 10.0898 6.45998 10.0898 7.51998Z" fill="#445582"/>
<path fill-rule="evenodd" clip-rule="evenodd" d="M12 0C5.38 0 0 5.38 0 12C0 18.62 5.38 24 12 24C18.62 24 24 18.62 24 12C24 5.38 18.62 0 12 0ZM12 2.41C17.29 2.41 21.59 6.7 21.59 12C21.59 17.3 17.3 21.59 12 21.59C6.7 21.59 2.41 17.3 2.41 12C2.41 6.7 6.7 2.41 12 2.41Z" fill="#445582"/>
</g>
<defs>
<clipPath id="clip0_10924_12362">
<rect width="24" height="24" fill="white"/>
</clipPath>
</defs>
</svg>
