<svg width="26" height="24" viewBox="0 0 26 24" fill="none" xmlns="http://www.w3.org/2000/svg">
<path d="M22.9014 22.595C22.3114 22.595 21.8914 21.705 21.5314 20.745L21.4014 20.425C21.2114 19.945 21.0514 19.525 20.6314 19.275C20.4514 19.165 20.2514 19.105 20.0314 19.035C19.7814 18.955 19.5314 18.875 19.3014 18.725C18.9414 18.495 18.6414 18.215 18.3514 17.945C17.9414 17.565 17.5514 17.215 17.0314 16.995C16.9814 16.975 16.9114 16.965 16.8414 16.955C16.7514 16.945 16.6714 16.925 16.5814 16.905C15.7414 16.625 15.4214 16.185 15.0414 15.675C14.9214 15.515 14.7914 15.335 14.6314 15.155C14.5114 15.015 14.3514 14.925 14.1814 14.845C13.9314 14.715 13.6514 14.575 13.4614 14.225C13.2314 13.805 13.2014 13.255 13.3814 12.695C13.4214 12.585 13.4614 12.475 13.5014 12.365C13.6114 12.085 13.7014 11.835 13.6814 11.535C13.6614 10.945 13.3114 10.375 12.9814 9.82503C12.8514 9.61503 12.7314 9.41503 12.6314 9.22503C12.4814 8.93503 12.3714 8.89503 12.0314 8.80503C11.3214 8.61503 11.0514 8.45503 10.5714 7.94503C10.3414 7.70503 9.93135 7.11503 9.77135 6.83503C9.73135 6.76503 9.54135 6.58503 9.41135 6.46503C9.29135 6.35503 9.18135 6.24503 9.12135 6.16503C9.08135 6.11503 9.06135 6.10503 9.06135 6.10503C9.06135 6.10503 8.99135 6.13503 8.94135 6.16503C8.74135 6.25503 8.43135 6.39503 7.86135 6.33503C7.85135 6.36503 7.83135 6.41503 7.82135 6.44503C7.75135 6.64503 7.63135 6.94503 7.31135 6.98503C6.92135 6.98503 6.61135 6.64503 6.33135 6.34503C6.25135 6.25503 6.18135 6.18503 6.13135 6.13503C5.45135 5.56503 4.77135 5.18503 4.06135 4.98503C3.49135 4.82503 3.39135 4.56503 3.31135 4.23503C3.28135 4.11503 3.25135 3.99503 3.16135 3.86503C3.04135 3.70503 2.85135 3.61503 2.63135 3.51503C2.54135 3.47503 2.44135 3.42503 2.35135 3.37503C1.70135 3.02503 0.961354 2.51503 0.981354 2.06503C0.981354 1.96503 1.04135 1.76503 1.32135 1.64503C1.68135 1.49503 2.13135 1.64503 2.49135 1.80503C2.58135 1.84503 2.66135 1.87503 2.74135 1.90503C3.16135 2.05503 3.22135 2.01503 3.42135 1.98503C3.54135 1.96503 3.68135 1.95503 3.88135 1.94503C4.25135 1.94503 4.40135 2.12503 4.51135 2.27503C4.55135 2.32503 4.58135 2.36503 4.64135 2.41503C4.75135 2.52503 5.00135 2.63503 5.25135 2.63503C5.34135 2.63503 5.46135 2.62503 5.54135 2.55503C5.57135 2.49503 5.45135 2.33503 5.37135 2.30503H5.30135C4.90135 2.23503 4.52135 2.18503 4.52135 1.84503C4.52135 1.55503 4.69135 1.40503 5.02135 1.40503H11.2414C11.4614 1.40503 11.6414 1.50503 11.7014 1.68503C11.7614 1.85503 11.7014 2.04503 11.5614 2.16503C11.4714 2.24503 11.4714 2.29503 11.4714 2.30503C11.5114 2.61503 12.4714 3.08503 12.7914 3.23503C12.9414 3.30503 13.0614 3.36503 13.1014 3.39503C13.8914 3.94503 14.1314 4.78503 14.3614 5.59503C14.4814 5.99503 14.5914 6.40503 14.7914 6.77503C14.8914 6.96503 15.2814 7.58503 15.5714 7.36503C15.9614 7.07503 15.1414 6.70503 15.0514 6.52503C14.8914 6.17503 15.1814 6.13503 15.4514 6.21503C15.8814 6.34503 16.2414 6.71503 16.5514 7.02503C16.7514 7.22503 16.7514 7.52503 16.8914 7.76503C17.0714 8.07503 17.2414 8.26503 17.3614 8.64503C17.5114 9.12503 17.4214 9.36503 17.3414 9.59503C17.2914 9.71503 17.2514 9.83503 17.2414 10.025C17.2214 10.305 17.4314 10.645 17.6114 10.945C17.6814 11.055 17.7514 11.165 17.8014 11.265C17.848 11.3584 17.9147 11.415 18.0014 11.435C18.0514 11.445 18.1214 11.465 18.2014 11.495C18.6214 11.635 18.6414 11.905 18.6414 12.085C18.6414 12.165 18.6414 12.235 18.6714 12.325C18.7414 12.535 18.9614 12.825 19.1914 13.125C19.6914 13.795 20.3214 14.625 19.8814 15.335C19.8514 15.385 19.8114 15.435 19.7814 15.485C19.6714 15.635 19.6214 15.715 19.6414 15.795C19.6414 15.795 19.6614 15.805 19.6814 15.825C19.7414 15.885 19.8414 15.975 19.8614 16.135V16.205C19.8814 16.305 19.8814 16.375 19.9214 16.445C19.9814 16.535 20.4414 16.915 20.5414 16.975C20.6014 17.005 20.7714 17.045 20.9514 17.045C21.0314 17.045 21.0814 17.045 21.0914 17.035C21.1614 17.015 21.1814 17.005 21.1814 17.005C21.1814 17.005 21.2014 16.965 21.2014 16.945C21.2314 16.855 21.2714 16.725 21.4214 16.575L21.4714 16.525L21.5414 16.505C22.1114 16.375 22.5314 16.795 22.8614 17.165C23.0714 17.395 23.2614 17.605 23.4614 17.645C23.6214 17.675 23.7014 17.765 23.7514 17.835C23.8514 17.995 23.8214 18.195 23.7814 18.375C23.7114 18.675 23.9114 18.875 24.2514 19.175C24.3014 19.225 24.3614 19.265 24.4114 19.315C24.4814 19.375 25.0914 19.965 25.0114 20.535C24.9714 20.815 24.7714 21.025 24.5914 21.215C24.5314 21.275 24.4714 21.335 24.4314 21.395C24.2214 21.675 24.0114 21.805 23.7914 21.935C23.7314 21.975 23.6614 22.015 23.5814 22.065C23.5514 22.085 23.4714 22.195 23.4314 22.255C23.3414 22.385 23.2714 22.475 23.1814 22.515C23.1014 22.555 23.0214 22.575 22.9314 22.575" fill="#445582"/>
</svg>
