<svg width="24" height="24" viewBox="0 0 24 24" fill="none" xmlns="http://www.w3.org/2000/svg">
<g clip-path="url(#clip0_10924_13349)">
<path d="M15.3051 6.58016C15.3051 7.92016 14.2151 9.00016 12.8851 9.00016C11.5551 9.00016 10.4651 7.92016 10.4651 6.58016C10.4651 5.24016 11.5451 4.16016 12.8851 4.16016C14.2251 4.16016 15.3051 5.24016 15.3051 6.58016Z" fill="#445582"/>
<path d="M11.9851 19.8402C10.8651 19.8402 9.60508 19.5702 8.31508 18.7502C5.48508 16.9502 2.38508 18.7502 2.35508 18.7602C1.92508 19.0202 1.36508 18.8702 1.11508 18.4402C0.865082 18.0102 1.00508 17.4502 1.43508 17.2002C1.60508 17.1002 5.53508 14.8302 9.28508 17.2202C12.0851 19.0002 14.8451 17.2402 14.8651 17.2202C15.0651 17.1002 18.9951 14.8302 22.7451 17.2202C23.1651 17.4902 23.2951 18.0502 23.0251 18.4702C22.7551 18.8902 22.1951 19.0202 21.7751 18.7502C18.9751 16.9702 15.9451 18.6902 15.8151 18.7702C15.7351 18.8202 14.1351 19.8402 11.9751 19.8402H11.9851Z" fill="#445582"/>
<path d="M21.9051 9.58016C21.4451 12.6502 19.2551 12.8202 16.3751 12.8202C15.6951 12.8202 14.3051 12.8602 12.9551 12.8802H13.1951C12.8451 12.8902 12.4351 12.8902 12.0051 12.8902C11.5751 12.8902 11.1651 12.8902 10.8151 12.8802H11.0551C10.5851 12.8802 10.0951 12.8602 9.64508 12.8502L8.85508 11.1202H11.5651L12.2751 12.2602H16.7351L15.9851 10.8902C15.5151 10.0302 14.5851 9.58016 13.6751 9.68016C13.6751 9.68016 13.6751 9.68016 13.6651 9.68016H8.19508L7.99508 9.24016C7.85508 8.94016 7.50508 8.81016 7.20508 8.95016C6.91508 9.08016 6.79508 9.41016 6.90508 9.70016C6.58508 9.78016 6.34508 10.0502 6.34508 10.4002C6.34508 10.8002 6.67508 11.1302 7.07508 11.1302H7.55508L8.33508 12.8302C8.06508 12.8302 7.82508 12.8302 7.64508 12.8302C4.76508 12.8302 2.57508 12.6602 2.11508 9.59016C1.02508 9.84016 -0.204918 11.1502 0.0250824 13.7202C0.125082 14.8202 0.645082 15.6202 1.40508 16.2102C2.61508 15.6302 6.25508 14.2202 9.78508 16.4602C12.0951 17.9302 14.3651 16.4902 14.3851 16.4702C14.4051 16.4502 14.4351 16.4402 14.4551 16.4302C14.6351 16.3202 18.6451 14.0202 22.6751 16.1302C23.3851 15.5502 23.8751 14.7802 23.9751 13.7202C24.2051 11.1602 22.9751 9.84016 21.9151 9.58016H21.9051Z" fill="#445582"/>
<path d="M12.9451 12.8802H11.0451C11.3651 12.8802 11.6851 12.8802 11.9951 12.8902C12.3051 12.8902 12.6251 12.8902 12.9451 12.8802Z" fill="#445582"/>
</g>
<defs>
<clipPath id="clip0_10924_13349">
<rect width="24" height="24" fill="white"/>
</clipPath>
</defs>
</svg>
