<svg width="24" height="24" viewBox="0 0 24 24" fill="none" xmlns="http://www.w3.org/2000/svg">
<path d="M21.8951 16.575C21.9451 16.395 21.9751 16.205 21.9751 16.005V5.23504C21.9751 3.88504 20.8551 2.79504 19.4751 2.79504H4.52512C3.14512 2.79504 2.02512 3.88504 2.02512 5.23504V16.005C2.02512 16.205 2.05512 16.395 2.09512 16.575L-0.00488281 18.635V20.555C-0.00488281 20.915 0.295117 21.205 0.665117 21.205H23.3351C23.7051 21.205 24.0051 20.915 24.0051 20.555V18.635L21.9051 16.575H21.8951ZM15.0651 19.265H8.91512C8.45512 19.265 8.07512 18.895 8.07512 18.445C8.07512 17.995 8.45512 17.625 8.91512 17.625H15.0651C15.5251 17.625 15.9051 17.985 15.9051 18.445C15.9051 18.905 15.5251 19.265 15.0651 19.265ZM20.0851 16.005C20.0851 16.005 20.0851 16.025 20.0851 16.045H3.91512C3.91512 16.045 3.91512 16.025 3.91512 16.005V5.23504C3.91512 4.90504 4.19512 4.62504 4.53512 4.62504H19.4751C19.8151 4.62504 20.0951 4.89504 20.0951 5.23504V16.005H20.0851Z" fill="#445582"/>
</svg>
