<svg width="24" height="24" viewBox="0 0 24 24" fill="none" xmlns="http://www.w3.org/2000/svg">
<path d="M14.9198 21.77C13.9998 22.05 13.0198 22.2 12.0098 22.2C10.9998 22.2 10.0198 22.05 9.09978 21.77L8.52977 22.92C9.62977 23.27 10.7998 23.47 12.0198 23.47C13.2398 23.47 14.4098 23.27 15.5098 22.92L14.9398 21.77H14.9198Z" fill="#445582"/>
<path d="M12.0098 0.480011C5.66977 0.480011 0.509766 5.64001 0.509766 11.98C0.509766 15.87 2.45978 19.32 5.42978 21.4L6.00977 20.25C3.44977 18.39 1.77977 15.38 1.77977 11.98C1.77977 6.33001 6.35977 1.76001 11.9998 1.76001C17.6398 1.76001 22.2198 6.34001 22.2198 11.98C22.2198 15.38 20.5498 18.39 17.9898 20.25L18.5698 21.4C21.5398 19.32 23.4898 15.88 23.4898 11.98C23.4898 5.64001 18.3298 0.480011 11.9998 0.480011H12.0098Z" fill="#445582"/>
<path d="M21.6598 11.8L17.0298 10.97L19.5598 9.08001C19.6298 9.02001 19.6598 8.93001 19.6198 8.84001C19.5898 8.76001 19.4998 8.71001 19.4098 8.72001L16.2698 9.15001L18.6498 5.62001C18.6998 5.54001 18.6898 5.44001 18.6298 5.37001C18.5598 5.30001 18.4598 5.30001 18.3798 5.35001L14.8398 7.72001L15.2898 4.58001C15.2998 4.49001 15.2498 4.40001 15.1698 4.37001C15.0898 4.34001 14.9898 4.37001 14.9398 4.44001L13.0398 6.96001L12.2198 2.33001C12.1998 2.23001 12.1198 2.16001 12.0298 2.16001C11.9298 2.16001 11.8498 2.23001 11.8298 2.33001L10.9998 6.96001L9.10977 4.43001C9.05977 4.36001 8.95978 4.33001 8.87978 4.37001C8.79978 4.40001 8.74977 4.48001 8.75977 4.57001L9.18977 7.71001L5.65977 5.33001C5.57977 5.28001 5.46977 5.28001 5.40977 5.36001C5.33977 5.42001 5.32977 5.53001 5.38977 5.61001L7.75977 9.14001L4.61977 8.69001C4.52977 8.68001 4.43977 8.73001 4.40977 8.81001C4.37977 8.89001 4.40977 8.99001 4.46977 9.05001L6.98978 10.95L2.35977 11.77C2.26977 11.79 2.19977 11.87 2.19977 11.96C2.19977 12.06 2.26977 12.14 2.35977 12.15L6.98978 12.98L4.45978 14.88C4.38978 14.93 4.35977 15.03 4.39977 15.11C4.42976 15.19 4.51977 15.24 4.60977 15.23L7.77977 14.79L6.14977 17.55C6.09976 17.63 6.11978 17.73 6.17978 17.79C6.23978 17.86 6.33977 17.87 6.41977 17.82L8.94977 16.33L5.44977 23.23C5.42977 23.28 5.42978 23.34 5.45978 23.39C5.48978 23.44 5.53978 23.47 5.59978 23.47L7.16977 23.52C7.23977 23.52 7.29977 23.48 7.32977 23.42L9.63977 18.76L10.9798 16.99L11.7998 21.62C11.8198 21.71 11.8998 21.78 11.9898 21.78C12.0898 21.78 12.1698 21.71 12.1898 21.62L13.0198 16.99L14.4598 18.91L16.6898 23.41C16.7098 23.47 16.7798 23.51 16.8398 23.51L18.4098 23.46C18.4698 23.46 18.5198 23.43 18.5498 23.38C18.5798 23.33 18.5798 23.27 18.5598 23.22L15.0798 16.36L17.5698 17.83C17.6498 17.88 17.7498 17.86 17.8098 17.8C17.8698 17.73 17.8898 17.63 17.8398 17.56L16.2198 14.8L19.3898 15.25C19.4798 15.25 19.5698 15.21 19.5998 15.13C19.6398 15.05 19.5998 14.95 19.5398 14.9L17.0198 12.99L21.6498 12.18C21.7398 12.16 21.8098 12.08 21.8098 11.98C21.8098 11.89 21.7398 11.81 21.6498 11.79L21.6598 11.8ZM15.8798 11.09C15.5598 11.41 15.1098 11.53 14.6698 11.47C14.8398 11.84 14.9398 12.25 14.9398 12.68C14.9398 14.3 13.6298 15.61 12.0098 15.61C10.3898 15.61 9.07977 14.3 9.07977 12.68C9.07977 12.25 9.17978 11.83 9.34978 11.47C8.89978 11.53 8.45977 11.41 8.13977 11.09C7.55977 10.51 7.61978 9.52001 8.26978 8.86001C8.91978 8.21001 9.91977 8.15001 10.4998 8.73001C10.8298 9.06001 10.9498 9.53001 10.8698 9.99001C11.2198 9.84001 11.5998 9.76001 12.0098 9.76001C12.4198 9.76001 12.7998 9.85001 13.1498 9.99001C13.0698 9.53001 13.1898 9.06001 13.5198 8.73001C14.0998 8.15001 15.0998 8.21001 15.7498 8.86001C16.3998 9.51001 16.4598 10.51 15.8798 11.09Z" fill="#445582"/>
</svg>
