<svg width="24" height="24" viewBox="0 0 24 24" fill="none" xmlns="http://www.w3.org/2000/svg">
<path d="M23.927 14.7368L23.597 13.5168L23.557 13.3468L22.917 10.9568L20.857 3.28683C20.657 2.53683 19.867 2.08683 19.117 2.28683L1.04703 7.13683C0.297026 7.33683 -0.152974 8.11683 0.0470265 8.86683L2.10703 16.5368L3.11703 20.3168C3.39703 21.3568 4.45703 21.9668 5.49703 21.6968L22.557 17.1268C23.597 16.8468 24.207 15.7868 23.937 14.7468L23.927 14.7368ZM3.17703 12.5268C2.87703 11.4268 2.95703 10.2968 3.38703 9.35683C3.80703 8.43683 4.52703 7.78683 5.37703 7.55683C5.97703 7.39683 6.47703 7.39683 7.03703 7.55683L7.22703 7.06683C7.22703 7.06683 7.27703 6.98683 7.32703 6.97683L7.44703 6.94683C7.52703 6.92683 7.59703 6.96683 7.61703 7.04683L8.27703 9.52683C8.29703 9.59683 8.25703 9.67683 8.17703 9.69683L8.03703 9.73683C7.97703 9.74683 7.91703 9.73683 7.87703 9.67683C7.00703 8.36683 6.22703 7.84683 5.42703 8.06683C4.91703 8.19683 4.54703 8.58683 4.35703 9.18683C4.12703 9.90683 4.16703 10.9068 4.47703 12.0868C5.04703 14.1968 6.17703 14.9568 7.05703 14.9568C7.19703 14.9568 7.33703 14.9368 7.46703 14.9068C8.56703 14.6168 8.86703 13.4168 8.91703 12.4668C8.91703 12.4268 8.93703 12.3868 8.96703 12.3668C8.99703 12.3368 9.03703 12.3268 9.07703 12.3368L9.27703 12.3768C9.34703 12.3868 9.39703 12.4568 9.39703 12.5268C9.31703 14.2368 8.62703 15.2868 7.34703 15.6268C7.09703 15.6968 6.83703 15.7268 6.57703 15.7268C5.01703 15.7268 3.66703 14.4868 3.15703 12.5568L3.17703 12.5268ZM9.19703 9.40683L10.677 8.95683C10.677 8.95683 10.777 8.95683 10.817 8.96683C10.857 8.97683 10.887 9.02683 10.907 9.07683L12.067 13.4168C12.117 13.6068 12.147 13.6068 12.227 13.6068C12.327 13.6068 12.497 13.5668 12.657 13.5268C12.757 13.5068 12.847 13.5568 12.877 13.6568L12.907 13.7868C12.907 13.7868 12.907 13.8868 12.887 13.9268C12.867 13.9668 12.827 13.9968 12.777 14.0068L10.597 14.5968C10.597 14.5968 10.567 14.5968 10.547 14.5968C10.467 14.5968 10.397 14.5468 10.377 14.4668L10.347 14.3368C10.317 14.2468 10.377 14.1468 10.467 14.1168C10.947 13.9768 10.947 13.9368 10.887 13.7368L9.91703 10.1168C9.83703 9.83683 9.67703 9.78683 9.32703 9.87683C9.22703 9.89683 9.13703 9.84683 9.10703 9.74683L9.07703 9.61683C9.04703 9.52683 9.10703 9.42683 9.19703 9.39683V9.40683ZM8.80703 7.92683C8.65703 7.36683 8.89703 6.87683 9.39703 6.73683C9.89703 6.60683 10.347 6.89683 10.497 7.43683C10.577 7.71683 10.547 7.98683 10.417 8.20683C10.307 8.39683 10.127 8.53683 9.89703 8.59683C9.81703 8.61683 9.72703 8.62683 9.64703 8.62683C9.24703 8.62683 8.92703 8.35683 8.80703 7.91683V7.92683ZM11.717 9.22683L11.687 9.11683C11.667 9.05683 11.697 8.98683 11.757 8.95683L12.467 8.56683L12.137 7.31683C12.127 7.26683 12.137 7.20683 12.187 7.16683L12.907 6.55683C12.907 6.55683 12.997 6.51683 13.037 6.52683C13.087 6.54683 13.117 6.57683 13.127 6.62683L13.567 8.24683L14.727 7.93683C14.727 7.93683 14.797 7.93683 14.837 7.94683C14.867 7.96683 14.897 7.99683 14.907 8.03683L14.987 8.33683C15.007 8.41683 14.957 8.49683 14.887 8.51683L13.727 8.82683L14.617 12.1368C14.757 12.6568 14.907 12.7268 15.037 12.7268C15.077 12.7268 15.127 12.7268 15.177 12.7068C15.467 12.6268 15.587 12.2368 15.637 11.9268C15.637 11.8868 15.667 11.8568 15.697 11.8368C15.727 11.8168 15.767 11.8068 15.807 11.8168L15.957 11.8468C16.027 11.8568 16.087 11.9268 16.077 12.0068C15.947 13.0268 15.447 13.3668 15.037 13.4768C14.897 13.5168 14.757 13.5368 14.637 13.5368C14.067 13.5368 13.687 13.1468 13.477 12.3568L12.617 9.14683L11.897 9.33683C11.897 9.33683 11.817 9.33683 11.787 9.32683C11.757 9.30683 11.727 9.27683 11.717 9.23683V9.22683ZM22.237 15.9468L5.17703 20.5168C4.79703 20.6168 4.39703 20.3868 4.29703 20.0068L3.77703 18.0668L17.237 14.4568C17.177 14.3768 17.137 14.2868 17.107 14.1868C17.047 13.9668 17.067 13.7468 17.167 13.5768C17.247 13.4368 17.387 13.3368 17.547 13.2868C17.887 13.1868 18.257 13.4268 18.357 13.8168C18.367 13.8668 18.377 13.9068 18.387 13.9568C18.507 13.7168 18.617 13.2768 18.677 12.4368V12.2068L16.197 8.79683C15.817 8.26683 15.647 8.17683 15.267 8.22683C15.197 8.22683 15.127 8.18683 15.107 8.12683L15.077 7.99683C15.057 7.91683 15.107 7.83683 15.177 7.81683L17.337 7.23683C17.337 7.23683 17.417 7.23683 17.447 7.24683C17.477 7.26683 17.507 7.29683 17.517 7.33683L17.547 7.45683C17.567 7.52683 17.527 7.60683 17.457 7.62683C17.257 7.69683 17.137 7.77683 17.107 7.86683C17.077 7.94683 17.127 8.07683 17.247 8.26683L18.827 10.5668L18.987 8.50683C19.027 7.92683 18.987 7.59683 18.857 7.46683C18.817 7.41683 18.737 7.36683 18.537 7.36683C18.477 7.36683 18.417 7.36683 18.347 7.37683C18.277 7.38683 18.207 7.33683 18.197 7.27683L18.167 7.14683C18.167 7.14683 18.167 7.06683 18.177 7.03683C18.197 7.00683 18.227 6.97683 18.267 6.96683L19.837 6.54683C19.837 6.54683 19.917 6.54683 19.947 6.55683C19.977 6.57683 20.007 6.60683 20.017 6.64683L20.047 6.77683C20.067 6.84683 20.027 6.91683 19.967 6.94683C19.747 7.04683 19.597 7.42683 19.547 8.00683L19.187 12.4668C19.127 13.1468 19.047 13.6268 18.917 13.9768L22.257 13.0768L22.777 15.0168C22.877 15.3968 22.637 15.7968 22.257 15.9068L22.237 15.9468Z" fill="#445582"/>
</svg>
