<svg width="24" height="24" viewBox="0 0 24 24" fill="none" xmlns="http://www.w3.org/2000/svg">
<path d="M11.995 4.66896C12.785 6.66896 14.325 7.63896 15.285 7.63896C15.895 7.63896 16.205 7.36896 16.115 7.13896C14.735 7.88896 13.165 5.99896 13.035 4.64896C12.935 3.66896 13.475 2.71896 14.645 2.96896C15.395 3.12896 15.545 3.90896 14.805 3.76896C14.575 3.72896 14.315 3.46896 13.875 3.52896C13.495 3.57896 13.405 3.98896 13.525 4.24896C13.615 4.43896 13.815 4.51896 14.005 4.52896C14.245 4.52896 14.305 4.42896 14.305 4.42896C14.305 4.42896 14.045 4.34896 14.025 4.22896C13.995 4.05896 14.175 4.03896 14.295 4.06896C14.675 4.15896 14.875 4.54896 15.285 4.72896C15.545 4.84896 15.875 4.82896 16.125 4.66896C16.325 4.52896 16.425 4.21896 16.425 3.95896C16.425 3.04896 15.515 2.40896 14.645 2.38896C13.935 2.36896 13.375 2.61896 12.915 3.12896C13.625 2.03896 12.595 -0.0010376 11.995 -0.0010376C11.395 -0.0010376 10.365 2.03896 11.075 3.12896C10.615 2.60896 10.055 2.36896 9.34498 2.38896C8.47498 2.40896 7.56498 3.04896 7.56498 3.95896C7.56498 4.21896 7.66498 4.53896 7.86498 4.66896C8.10498 4.83896 8.43498 4.84896 8.70498 4.72896C9.11498 4.54896 9.31498 4.15896 9.69498 4.06896C9.81498 4.03896 9.99498 4.06896 9.96498 4.22896C9.94498 4.34896 9.68498 4.42896 9.68498 4.42896C9.68498 4.42896 9.74498 4.53896 9.98498 4.52896C10.175 4.52896 10.385 4.43896 10.465 4.24896C10.585 3.98896 10.495 3.57896 10.115 3.52896C9.67498 3.46896 9.41498 3.72896 9.18498 3.76896C8.44498 3.89896 8.59498 3.12896 9.34498 2.96896C10.515 2.71896 11.055 3.66896 10.955 4.64896C10.815 5.98896 9.25498 7.87896 7.87498 7.13896C7.78498 7.37896 8.10498 7.63896 8.70498 7.63896C9.66498 7.63896 11.205 6.67896 11.995 4.66896ZM11.995 1.39896C12.155 1.39896 12.635 2.01896 12.365 2.79896C12.185 3.30896 11.995 3.52896 11.995 3.52896C11.995 3.52896 11.805 3.30896 11.625 2.79896C11.355 2.01896 11.825 1.39896 11.995 1.39896Z" fill="#445582"/>
<path d="M18.595 20.519C17.945 20.729 17.445 21.069 17.065 21.629C16.915 21.849 16.795 22.089 16.635 22.309C16.395 22.629 16.085 23.009 15.625 23.049C15.125 23.099 14.795 22.909 14.585 22.569C14.585 22.569 14.595 23.149 14.955 23.569C15.425 24.139 16.235 24.079 16.755 23.769C17.485 23.349 17.545 22.549 18.105 22.039C18.635 21.559 19.535 21.709 20.115 21.209C20.655 20.749 20.835 19.999 20.935 19.339C20.395 19.859 19.875 20.189 18.995 20.409C18.855 20.449 18.725 20.479 18.595 20.519Z" fill="#445582"/>
<path d="M16.555 6.19896C16.095 5.81896 15.065 5.01896 14.515 5.46896C14.305 5.64896 14.345 6.04896 14.475 6.47896C16.775 5.74896 19.195 10.179 19.215 13.579C19.255 18.879 15.395 20.109 12.955 20.119C12.995 20.029 13.025 19.919 13.045 19.819C14.225 19.669 15.145 19.259 15.845 18.669C18.045 17.099 18.455 13.859 18.075 11.739C17.645 9.35896 16.195 8.15896 16.195 8.15896C16.745 9.10896 17.045 10.099 17.175 11.089C16.645 9.82896 15.715 8.82896 14.395 8.01896C13.595 7.52896 13.065 7.04896 12.715 6.63896C12.785 7.34896 12.585 7.89896 11.995 7.89896C11.405 7.89896 11.215 7.35896 11.275 6.65896C10.915 7.06896 10.395 7.53896 9.60498 8.02896C8.26498 8.84896 7.33498 9.85896 6.80498 11.129C6.93498 10.129 7.23498 9.12896 7.78498 8.16896C7.78498 8.16896 6.33498 9.37896 5.90498 11.749C5.51498 13.889 5.94498 17.179 8.19498 18.729C8.88498 19.299 9.78498 19.689 10.935 19.839C10.955 19.949 10.985 20.049 11.025 20.139C8.58498 20.129 4.72498 18.899 4.76498 13.599C4.79498 10.199 7.21498 5.76896 9.50498 6.49896C9.64498 6.06896 9.68498 5.66896 9.46498 5.48896C8.92498 5.03896 7.89498 5.83896 7.42498 6.21896C3.84498 9.18896 2.92498 15.819 5.34498 19.929C5.34498 19.929 5.38498 19.959 5.43498 19.999C5.47498 20.009 5.51498 20.019 5.55498 20.029H5.57498C6.36498 20.289 6.92498 20.709 7.36498 21.339C8.27498 21.749 9.26498 21.739 9.81498 21.059C10.205 20.579 10.765 20.319 11.045 20.209C11.075 20.269 11.115 20.339 11.155 20.389C10.895 20.909 10.475 21.329 9.91498 21.569C9.70498 21.659 9.62498 21.919 9.73498 22.129C10.005 22.629 10.645 23.389 11.975 23.389C13.305 23.389 13.935 22.629 14.215 22.129C14.325 21.929 14.245 21.659 14.035 21.569C13.465 21.329 13.055 20.909 12.795 20.389C12.845 20.339 12.875 20.269 12.905 20.209C13.185 20.319 13.745 20.579 14.135 21.059C14.685 21.739 15.675 21.749 16.585 21.339C17.025 20.699 17.585 20.289 18.375 20.029H18.395C18.435 20.019 18.475 20.009 18.525 19.989C18.575 19.949 18.615 19.919 18.615 19.919C21.035 15.809 20.115 9.17896 16.535 6.20896L16.555 6.19896ZM12.165 16.559C12.455 16.279 12.545 16.679 12.625 16.799C12.705 16.919 12.955 17.669 13.915 17.509C14.875 17.349 14.875 16.009 14.705 14.789C14.535 13.569 14.125 12.779 13.745 12.619C13.745 12.619 14.575 11.829 14.825 11.279C15.075 10.729 14.905 10.209 14.455 10.019C13.995 9.81896 13.495 10.059 13.495 10.339C13.495 10.809 13.775 10.839 13.725 10.999C13.725 10.999 13.575 11.329 12.755 10.869C12.205 10.569 12.375 10.249 12.545 10.049C12.715 9.84896 13.165 9.37896 14.415 9.41896C15.665 9.45896 16.035 10.369 15.875 10.919C15.705 11.469 14.585 12.379 14.585 12.379C14.585 12.379 15.875 13.719 16.165 15.459C16.455 17.199 15.335 18.499 13.795 18.259C12.255 18.019 11.885 16.839 12.175 16.559H12.165ZM9.58498 18.259C8.04498 18.019 7.67498 16.839 7.96498 16.559C8.25498 16.279 8.33498 16.679 8.42498 16.799C8.50498 16.919 8.75498 17.669 9.71498 17.509C10.675 17.349 10.675 16.009 10.505 14.789C10.335 13.569 9.92498 12.779 9.54498 12.619C9.54498 12.619 10.375 11.829 10.625 11.279C10.875 10.729 10.705 10.209 10.255 10.019C9.79498 9.81896 9.29498 10.059 9.29498 10.339C9.29498 10.809 9.57498 10.839 9.52498 10.999C9.52498 10.999 9.37498 11.329 8.55498 10.869C8.00498 10.569 8.17498 10.249 8.34498 10.049C8.51498 9.84896 8.96498 9.37896 10.215 9.41896C11.465 9.45896 11.835 10.369 11.675 10.919C11.505 11.469 10.385 12.379 10.385 12.379C10.385 12.379 11.675 13.719 11.965 15.459C12.255 17.199 11.135 18.499 9.59498 18.259H9.58498ZM11.995 20.239C11.675 20.239 11.425 19.989 11.425 19.669C11.425 19.349 11.685 19.099 11.995 19.099C12.305 19.099 12.565 19.349 12.565 19.669C12.565 19.989 12.305 20.239 11.995 20.239Z" fill="#445582"/>
<path d="M5.39498 20.519C6.04498 20.729 6.54498 21.069 6.92498 21.629C7.07498 21.849 7.19498 22.089 7.35498 22.309C7.59498 22.629 7.90498 23.009 8.36498 23.049C8.86498 23.099 9.19498 22.909 9.40498 22.569C9.40498 22.569 9.39498 23.149 9.03498 23.569C8.56498 24.139 7.75498 24.079 7.23498 23.769C6.50498 23.349 6.44498 22.549 5.88498 22.039C5.35498 21.559 4.45498 21.709 3.87498 21.209C3.33498 20.749 3.15498 19.999 3.05498 19.339C3.59498 19.859 4.11498 20.189 4.99498 20.409C5.13498 20.449 5.26498 20.479 5.39498 20.519Z" fill="#445582"/>
<path d="M21.395 11.729C20.905 8.22896 19.705 6.72896 19.185 6.09896C18.765 5.58896 17.885 4.69896 17.245 4.95896C16.985 5.05896 16.855 5.66896 17.285 6.15896C17.645 6.56896 17.735 6.82896 17.635 7.07896C17.635 7.07896 17.935 7.04896 18.085 6.67896C18.145 6.51896 18.145 6.31896 18.135 6.17896C18.695 6.17896 19.445 7.38896 19.935 8.65896C19.285 7.72896 18.585 7.30896 18.585 7.30896C20.095 9.82896 20.635 12.129 20.725 14.019C20.655 16.609 20.005 18.669 19.385 19.729C19.975 19.519 20.595 19.149 21.005 18.449C21.525 17.099 21.815 14.659 21.405 11.729H21.395Z" fill="#445582"/>
<path d="M6.74498 4.95896C6.10498 4.69896 5.22498 5.57896 4.80498 6.09896C4.28498 6.72896 3.08498 8.22896 2.59498 11.729C2.18498 14.659 2.47498 17.099 2.99498 18.449C3.41498 19.149 4.03498 19.519 4.61498 19.729C3.98498 18.679 3.33498 16.619 3.27498 14.019C3.35498 12.119 3.89498 9.82896 5.41498 7.30896C5.41498 7.30896 4.71498 7.72896 4.06498 8.65896C4.55498 7.38896 5.29498 6.17896 5.86498 6.17896C5.86498 6.31896 5.85498 6.51896 5.91498 6.67896C6.05498 7.04896 6.36498 7.07896 6.36498 7.07896C6.27498 6.82896 6.36498 6.56896 6.71498 6.15896C7.14498 5.66896 7.00498 5.05896 6.75498 4.95896H6.74498Z" fill="#445582"/>
</svg>
