<svg width="24" height="24" viewBox="0 0 24 24" fill="none" xmlns="http://www.w3.org/2000/svg">
<path d="M13.4231 12.515C13.4131 12.445 13.3931 12.365 13.3731 12.295C13.2331 11.725 12.9531 11.235 12.6831 10.785C12.4831 10.455 12.2631 10.145 12.0231 9.875C11.5831 9.355 11.0531 8.885 10.3931 8.435C9.88306 8.085 9.32306 7.755 8.68306 7.435C7.94306 7.065 7.24306 6.785 6.55306 6.585C5.86306 6.385 5.12306 6.245 4.14306 6.155C3.50306 6.095 2.83306 6.095 2.10306 6.165C1.49306 6.225 0.853059 6.295 0.343059 6.695C0.0430592 6.935 -0.0669408 7.205 0.0330592 7.465C0.133059 7.735 0.743059 7.885 1.02306 7.815C1.17306 7.775 1.25306 7.675 1.23306 7.545C1.21306 7.415 1.06306 7.375 0.913059 7.335C0.863059 7.325 0.783059 7.295 0.753059 7.285C0.783059 7.255 0.883059 7.215 1.22306 7.185H1.28306C1.68306 7.135 2.09306 7.115 2.51306 7.105C3.92306 7.105 5.35306 7.385 6.64306 7.905C8.62306 8.705 11.0131 9.915 11.9031 12.155C12.1531 12.905 12.0931 13.965 11.3731 14.515C9.77306 15.795 7.62306 15.635 6.43306 15.405C6.38306 14.455 6.38306 13.595 6.38306 12.615V12.505C8.16306 12.505 9.04306 12.935 9.30306 13.085C9.28306 13.125 9.25306 13.165 9.22306 13.205C9.14306 13.305 9.06306 13.375 8.95306 13.445C8.82306 13.525 8.76306 13.635 8.76306 13.745C8.76306 13.915 8.95306 13.945 9.03306 13.965C9.27306 14.005 9.54306 14.045 9.79306 13.875C9.99306 13.735 10.1431 13.595 10.2431 13.465C10.4031 13.265 10.4531 13.055 10.4231 12.815C10.3631 12.385 10.0231 12.075 9.74306 11.895C9.50306 11.735 9.22306 11.625 8.97306 11.545C8.46306 11.365 7.92306 11.275 7.33306 11.255C7.03306 11.245 6.71306 11.255 6.39306 11.255L6.34306 9.935C6.27306 9.415 6.03306 9.065 5.66306 8.955C5.62306 8.945 5.57306 8.955 5.55306 8.995C5.24306 9.515 5.20306 10.155 5.15306 10.785C5.14306 10.985 5.12306 11.185 5.10306 11.375C4.58306 11.475 4.02306 11.595 3.48306 11.815C3.33306 11.865 3.18306 11.925 3.04306 11.995C2.79306 12.115 2.54306 12.275 2.32306 12.465C2.16306 12.595 1.95306 12.805 1.95306 13.105C1.95306 13.285 2.05306 13.455 2.13306 13.595L2.16306 13.645C2.24306 13.775 2.33306 13.905 2.43306 14.035C2.77306 14.445 3.20306 14.845 3.67306 15.185C4.09306 15.495 4.56306 15.765 5.05306 16.005C5.05306 16.055 5.06306 16.105 5.07306 16.155C5.11306 16.495 5.15306 16.875 5.40306 17.125C5.41306 17.135 5.43306 17.145 5.45306 17.155C5.53306 17.175 5.62306 17.185 5.70306 17.185C5.78306 17.185 5.86306 17.185 5.93306 17.175C6.00306 17.175 6.06306 17.175 6.12306 17.155C6.38306 17.055 6.41306 16.785 6.43306 16.595C6.43306 16.565 6.43306 16.545 6.43306 16.515C8.59306 17.035 10.6831 16.715 12.1831 15.635C12.4931 15.395 12.7631 15.065 12.9431 14.835C13.4131 14.215 13.6031 13.355 13.4531 12.535L13.4231 12.515ZM5.06306 12.555C5.06306 12.935 5.03306 13.335 5.01306 13.715C4.99306 14.125 4.96306 14.555 4.96306 14.965C4.78306 14.905 4.61306 14.835 4.45306 14.765C4.37306 14.735 4.30306 14.695 4.22306 14.655C3.63306 14.365 3.22306 14.045 2.73306 13.575C2.66306 13.505 2.60306 13.425 2.55306 13.365C2.47306 13.235 2.49306 13.165 2.51306 13.125C2.72306 12.725 4.39306 12.605 5.08306 12.555H5.06306Z" fill="#445582"/>
<path d="M18.1731 14.715C18.1731 14.715 18.1531 14.715 18.1431 14.715H18.0931C17.9331 14.715 17.8531 14.805 17.7931 14.855L17.7731 14.875C17.7131 14.935 17.6531 15.015 17.5831 15.125C17.5331 15.195 17.5031 15.235 17.4831 15.255L14.7231 15.295C14.9031 15.105 15.0931 14.915 15.2731 14.735C16.4831 13.535 17.0931 12.915 17.2731 12.725C18.1531 11.695 18.5631 10.885 18.5631 10.165C18.5631 9.405 18.2731 8.755 17.7131 8.285C17.1931 7.855 16.5431 7.645 15.7831 7.645C15.2631 7.645 14.7131 7.815 14.1431 8.165C13.5031 8.555 13.1331 8.985 13.0031 9.495L12.9831 9.555C12.9831 9.555 12.9831 9.575 12.9831 9.595V9.625C12.9831 9.855 13.1531 10.035 13.4031 10.045C13.4031 10.045 13.4131 10.045 13.4231 10.045H13.4731C13.6331 10.045 13.7231 9.965 13.8131 9.895C13.8931 9.835 13.9731 9.745 14.0831 9.625C14.3331 9.335 14.5031 9.195 14.6031 9.125C14.8631 8.945 15.1431 8.865 15.4731 8.865C15.8831 8.865 16.2131 9.005 16.4831 9.285C16.7631 9.585 16.8931 9.915 16.8931 10.335C16.8931 10.855 16.5331 11.635 15.8731 12.535C15.4331 13.115 14.7631 13.895 13.8831 14.825C13.5131 15.215 13.2431 15.515 13.0631 15.715C12.9731 15.825 12.9031 15.915 12.8431 15.995C12.8331 16.015 12.8231 16.025 12.8131 16.045C12.7731 16.105 12.7431 16.155 12.7231 16.295C12.7231 16.375 12.7431 16.455 12.8031 16.535C12.8931 16.665 12.9631 16.685 13.0331 16.695C13.0331 16.695 13.0531 16.695 13.0631 16.695H13.0931C13.0931 16.695 13.1431 16.715 13.2031 16.715H17.8831C18.1331 16.715 18.4331 16.555 18.4731 16.265C18.4731 16.235 18.4831 16.215 18.4831 16.195V16.155C18.5031 16.015 18.5331 15.715 18.5731 15.235V15.195C18.5731 15.195 18.5731 15.145 18.5731 15.125C18.5731 14.905 18.4031 14.715 18.1831 14.705L18.1731 14.715Z" fill="#445582"/>
<path d="M23.2631 11.425C22.9931 11.175 22.6831 10.995 22.3431 10.895C22.9331 10.345 23.2231 9.815 23.2331 9.275C23.2331 8.775 23.0131 8.345 22.6031 8.045C22.2531 7.795 21.8231 7.665 21.3331 7.665C20.9131 7.665 20.5031 7.785 20.1031 8.025C19.6631 8.295 19.3831 8.635 19.2731 9.045V9.105C19.2731 9.105 19.2531 9.125 19.2531 9.145C19.2531 9.165 19.2531 9.185 19.2531 9.195C19.2531 9.435 19.4531 9.635 19.6931 9.635C19.8331 9.635 19.9731 9.565 20.0531 9.455C20.5431 8.975 20.9131 8.805 21.0931 8.805C21.3331 8.805 21.5131 8.865 21.6731 8.995C21.8231 9.125 21.8731 9.255 21.8831 9.475C21.8831 9.735 21.6831 10.075 21.3131 10.425C21.0531 10.665 20.6431 10.975 20.1031 11.325C19.8631 11.485 19.6931 11.595 19.5731 11.685C19.5131 11.735 19.4531 11.775 19.4031 11.825L19.3731 11.855C19.3731 11.855 19.3331 11.885 19.3231 11.915C19.2731 11.995 19.2431 12.085 19.2431 12.175C19.2431 12.485 19.5731 12.715 19.8831 12.585L19.9231 12.565C20.2831 12.355 20.4931 12.235 20.5331 12.225C20.7231 12.145 20.9131 12.105 21.1231 12.095C21.5531 12.095 21.8731 12.215 22.1431 12.455C22.4031 12.695 22.5231 12.995 22.5231 13.415C22.5231 13.695 22.4631 13.965 22.3331 14.225C22.1831 14.535 21.9331 14.845 21.6031 15.135C21.1431 15.545 20.8531 15.605 20.7331 15.615C20.7131 15.615 20.6031 15.565 20.4731 15.485C20.2131 15.335 20.0031 15.275 19.8031 15.275C19.6731 15.275 19.4731 15.295 19.2931 15.415C19.1431 15.525 19.0531 15.705 19.0531 15.905V15.925C19.0531 16.175 19.1931 16.415 19.4131 16.535C19.5931 16.645 19.8231 16.695 20.1431 16.695C21.0331 16.695 21.9031 16.315 22.7331 15.565C23.5731 14.805 24.0031 13.975 24.0031 13.065C24.0031 12.405 23.7531 11.825 23.2731 11.395L23.2631 11.425Z" fill="#445582"/>
<path d="M12.6131 3.365C13.0131 3.365 13.3331 3.045 13.3331 2.645C13.3331 2.245 13.0131 1.925 12.6131 1.925C12.2131 1.925 11.8931 2.245 11.8931 2.645C11.8931 3.045 12.2131 3.365 12.6131 3.365Z" fill="#445582"/>
<path d="M13.1031 21.865C13.1031 21.865 13.0731 21.795 13.0331 21.785L11.8731 21.455L11.4431 20.005C11.4231 19.935 11.2731 19.935 11.2531 20.005L10.8231 21.455L9.66306 21.785C9.66306 21.785 9.59306 21.825 9.59306 21.865C9.59306 21.905 9.62306 21.935 9.66306 21.945L10.8231 22.275L11.2531 23.725C11.2531 23.725 11.3031 23.785 11.3531 23.785C11.4031 23.785 11.4331 23.755 11.4531 23.725L11.8831 22.275L13.0431 21.945C13.0431 21.945 13.1131 21.905 13.1131 21.865" fill="#445582"/>
<path d="M16.3631 2.645C16.3631 2.585 16.4131 2.525 16.4831 2.505L17.8831 2.105L18.4031 0.324996C18.4231 0.254996 18.4931 0.214996 18.5731 0.214996C18.6531 0.214996 18.7231 0.264996 18.7431 0.324996L19.2731 2.105L20.6731 2.505C20.7431 2.525 20.7931 2.585 20.7931 2.645C20.7931 2.705 20.7431 2.765 20.6731 2.785L19.2731 3.185L18.7431 4.965C18.7231 5.035 18.6531 5.075 18.5731 5.075C18.4931 5.075 18.4231 5.025 18.4031 4.965L17.8831 3.185L16.4831 2.785C16.4131 2.765 16.3631 2.705 16.3631 2.645Z" fill="#445582"/>
</svg>
