<svg width="24" height="24" viewBox="0 0 24 24" fill="none" xmlns="http://www.w3.org/2000/svg">
<path d="M17.7859 0.959961C18.0646 0.959961 18.2856 1.00794 18.4778 1.08471C19.4966 1.25743 20.2751 2.14025 20.2751 3.20538V20.8617C20.2751 22.0516 19.3044 23.0208 18.1126 23.0208C16.9209 23.0208 15.9502 22.0516 15.9502 20.8617V12.5805C14.7968 12.0911 14.3163 11.1123 14.3163 9.97044V3.89628C14.3163 2.27459 14.9026 0.959961 17.7859 0.959961Z" fill="#445582"/>
<path d="M11.0006 1.37259C11.5004 1.37259 11.9136 1.78521 11.9136 2.29379H11.9329V6.58312C11.9521 6.65989 11.9521 6.72706 11.9521 6.80383V9.08763C11.9521 9.96085 11.1255 10.575 10.0011 10.9204V20.8809C10.0011 22.0708 9.03036 23.04 7.8386 23.04C6.64683 23.04 5.67613 22.0708 5.67613 20.8809V10.9876C4.55164 10.6613 3.7251 10.0376 3.7251 9.08763V2.29379C3.7251 1.78521 4.12876 1.37259 4.63814 1.37259C5.10908 1.37259 5.50313 1.72764 5.55118 2.18824V6.79423C5.55118 7.17807 5.85873 7.48513 6.23356 7.48513C6.60839 7.48513 6.91594 7.16847 6.91594 6.79423V2.16905C6.97361 1.71804 7.35805 1.37259 7.82898 1.37259C8.32875 1.37259 8.73242 1.77562 8.74203 2.2746V6.79423C8.74203 7.17807 9.04958 7.48513 9.42441 7.48513C9.79923 7.48513 10.1068 7.16847 10.1068 6.79423V2.09228C10.1933 1.67966 10.5681 1.37259 11.0006 1.37259Z" fill="#445582"/>
</svg>
