<svg width="24" height="24" viewBox="0 0 24 24" fill="none" xmlns="http://www.w3.org/2000/svg">
<path d="M12.87 6.82495C12.87 7.32495 12.47 7.71495 11.98 7.71495C11.49 7.71495 11.0901 7.31495 11.0901 6.82495C11.0901 6.33495 11.49 5.93495 11.98 5.93495C12.47 5.93495 12.87 6.33495 12.87 6.82495Z" fill="#445582"/>
<path d="M13.1601 9.64495C11.9101 9.23495 10.67 8.99495 9.77005 9.01495C9.12005 9.02495 7.13005 9.06495 7.15005 10.185C7.15005 10.345 7.3401 10.425 7.7001 10.425H7.77005C7.85005 10.425 7.91011 10.425 7.96011 10.415C7.99011 10.415 8.01006 10.415 8.03006 10.415H8.0701L8.09012 10.385C8.13012 10.345 8.16006 10.285 8.16006 10.245C8.16006 10.185 8.12009 10.135 8.06009 10.085C8.04009 10.075 8.01008 10.065 7.93008 10.055C7.88008 10.055 7.79001 10.025 7.73001 10.015C7.76001 10.005 7.81002 9.98495 7.87002 9.97495C8.12002 9.90495 8.40004 9.87495 8.76004 9.86495C8.86004 9.86495 8.95007 9.86495 9.04007 9.86495C10.3201 9.86495 11.46 10.075 12.74 10.525C14.83 11.265 17.08 12.675 17.11 14.435C17.14 16.215 14.86 16.525 13.49 16.545C13.46 16.545 13.42 16.545 13.39 16.545C13.02 16.545 12.74 16.485 12.51 16.355L12.4601 14.105C12.5101 14.105 12.5701 14.105 12.6601 14.105C12.6901 14.105 12.72 14.105 12.75 14.105C13.58 14.105 14.59 14.355 14.86 14.565C14.82 14.625 14.7401 14.695 14.6601 14.775C14.5801 14.845 14.5001 14.915 14.4401 14.995L14.38 15.055L14.4501 15.105C14.5801 15.205 14.84 15.255 14.99 15.255C15.42 15.255 15.8301 14.715 15.8201 14.415C15.8001 13.155 13.0201 13.105 12.7001 13.105C12.6501 13.105 12.6101 13.105 12.5601 13.105H12.48C12.45 12.905 12.4401 12.705 12.4201 12.505C12.3701 11.975 12.31 11.635 11.88 11.305L11.8301 11.265L11.7801 11.315C11.5601 11.505 11.4601 12.245 11.4101 12.835V13.235C10.2901 13.445 9.66007 13.675 9.17007 14.045C8.90007 14.235 8.78006 14.415 8.78006 14.615C8.78006 14.995 9.12001 15.355 9.36001 15.595C9.70001 15.955 10.4001 16.435 11.3301 16.955C11.4001 17.285 11.47 17.595 11.64 17.795L11.6601 17.825L11.9501 17.845C12.0901 17.845 12.2001 17.825 12.3101 17.795L12.4001 17.775V17.725C12.4701 17.525 12.5 17.425 12.52 17.335C13.04 17.405 13.6001 17.465 14.0801 17.455C15.1501 17.435 16.2001 17.155 16.9601 16.675C17.8501 16.115 18.3101 15.325 18.2901 14.395C18.2501 12.095 14.8101 10.205 13.1501 9.65495L13.1601 9.64495ZM11.3501 14.165L11.3001 16.075C10.8501 15.975 10.37 15.755 10.02 15.485L9.98001 15.455C9.70001 15.255 9.23012 14.925 9.22012 14.685C9.22012 14.385 10.56 14.245 11.36 14.165H11.3501Z" fill="#445582"/>
<path d="M18.24 5.22495L17.8401 6.88495L15.9701 7.15495C15.8601 7.16495 15.78 7.24495 15.78 7.33495C15.78 7.42495 15.8601 7.50495 15.9701 7.51495L17.8401 7.82495L18.24 10.535C18.26 10.625 18.3501 10.685 18.4601 10.685C18.5701 10.685 18.66 10.625 18.67 10.535L19 7.82495L20.49 7.51495C20.59 7.50495 20.67 7.42495 20.67 7.33495C20.67 7.24495 20.59 7.17495 20.49 7.15495L19 6.88495L18.67 5.22495C18.66 5.13495 18.5701 5.07495 18.4601 5.07495C18.3501 5.07495 18.26 5.13495 18.24 5.22495Z" fill="#445582"/>
<path d="M1.45007 13.915C1.50007 13.895 1.54003 13.845 1.53003 13.795C1.50003 13.615 1.48999 13.425 1.48999 13.245C1.48999 10.605 4.21001 8.17495 8.26001 7.21495C8.50001 7.15495 8.69001 6.98495 8.76001 6.74495C9.18001 5.29495 10.49 4.31495 12 4.31495C13.32 4.31495 14.5101 5.10495 15.0601 6.28495C15.0801 6.32495 15.13 6.35495 15.17 6.33495L16.41 5.88495C16.46 5.86495 16.4901 5.80495 16.4701 5.75495C15.7001 3.98495 13.98 2.82495 12 2.82495C10.02 2.82495 8.25 4.01495 7.5 5.82495C7.49 5.85495 7.47006 5.87495 7.44006 5.87495C2.90006 7.09495 0 9.94495 0 13.235C0 13.555 0.0400977 13.865 0.100098 14.175C0.110098 14.235 0.17999 14.275 0.23999 14.265L1.46008 13.915H1.45007Z" fill="#445582"/>
<path d="M3.78003 11.855C3.69003 11.855 3.61009 11.925 3.59009 12.015L3.03003 15.165L1.06006 15.735C0.970059 15.755 0.900024 15.835 0.900024 15.925C0.900024 16.015 0.970059 16.095 1.06006 16.115L3.03003 16.675L3.59009 19.935C3.61009 20.025 3.69003 20.095 3.78003 20.095C3.87003 20.095 3.95009 20.025 3.97009 19.935L4.54004 16.675L6.55005 16.115C6.64005 16.095 6.71008 16.015 6.71008 15.925C6.71008 15.835 6.64005 15.755 6.55005 15.735L4.54004 15.165L3.97009 12.015C3.95009 11.925 3.87003 11.855 3.78003 11.855Z" fill="#445582"/>
<path d="M21.64 8.47495L21.55 8.45495L20.02 8.85495C19.96 8.85495 19.91 8.91495 19.91 8.97495C19.91 8.99495 19.9301 9.03495 19.9601 9.06495C21.5501 10.215 22.5 11.685 22.5 13.235C22.5 16.795 17.79 19.685 12 19.685C9.72 19.685 7.61001 19.235 5.89001 18.465C5.84001 18.445 5.79003 18.465 5.78003 18.525L5.56006 19.855C5.56006 19.855 5.56999 19.925 5.60999 19.945C7.45999 20.725 9.65 21.175 12 21.175C18.62 21.175 24 17.605 24 13.225C24 11.445 23.14 9.79495 21.65 8.46495L21.64 8.47495Z" fill="#445582"/>
</svg>
