<svg width="24" height="24" viewBox="0 0 24 24" fill="none" xmlns="http://www.w3.org/2000/svg">
<g clip-path="url(#clip0_10924_13069)">
<path d="M23.0493 8.75C23.2693 8.74 23.3593 8.88 23.2193 9.07L22.5493 10.03C22.4193 10.22 22.3793 10.54 22.4593 10.75L22.8693 11.85C22.9493 12.06 22.8393 12.18 22.6193 12.11L21.4993 11.77C21.2893 11.7 20.9693 11.77 20.7893 11.91L19.8793 12.64C19.6993 12.78 19.5593 12.71 19.5493 12.49L19.5193 11.31C19.5193 11.09 19.3593 10.8 19.1693 10.68L18.1893 10.04C17.9993 9.92 18.0193 9.76 18.2293 9.68L19.3393 9.29C19.5493 9.22 19.7693 8.98 19.8293 8.76L20.1393 7.63C20.1993 7.41 20.3593 7.38 20.4993 7.56L21.2093 8.49C21.3493 8.67 21.6393 8.8 21.8593 8.8L23.0293 8.74L23.0493 8.75Z" fill="#445582"/>
<path d="M4.77927 9.08C4.94928 9.12 4.97928 9.25 4.84928 9.36L4.12927 9.96C3.98927 10.07 3.88927 10.31 3.90927 10.49L3.99927 11.42C4.00927 11.6 3.90927 11.67 3.75927 11.57L2.96927 11.07C2.81927 10.98 2.55927 10.96 2.38927 11.02L1.52927 11.39C1.35927 11.46 1.26927 11.38 1.30927 11.2L1.53927 10.29C1.57927 10.12 1.51927 9.86 1.39927 9.73L0.779275 9.03C0.659275 8.9 0.709275 8.77 0.889275 8.76L1.81927 8.7C1.99927 8.69 2.21927 8.55 2.30927 8.4L2.78927 7.6C2.87927 7.45 3.00927 7.46 3.07927 7.62L3.42927 8.49C3.49927 8.66 3.68927 8.83 3.86927 8.86L4.77927 9.06V9.08Z" fill="#445582"/>
<path d="M20.6893 5.73C20.7093 5.84 20.6493 5.89 20.5493 5.84L20.0193 5.59C19.9193 5.54 19.7593 5.55 19.6593 5.61L19.1493 5.91C19.0493 5.97 18.9893 5.92 18.9993 5.81L19.0693 5.23C19.0693 5.12 19.0193 4.97 18.9393 4.89L18.4993 4.5C18.4193 4.43 18.4393 4.35 18.5493 4.32L19.1193 4.21C19.2293 4.19 19.3593 4.08 19.3993 3.98L19.6293 3.44C19.6793 3.33 19.7593 3.33 19.8093 3.43L20.0993 3.94C20.1493 4.04 20.2893 4.13 20.3993 4.14L20.9893 4.19C21.0993 4.2 21.1293 4.28 21.0593 4.36L20.6593 4.79C20.5893 4.88 20.5393 5.03 20.5693 5.14L20.6993 5.71L20.6893 5.73Z" fill="#445582"/>
<path d="M11.6293 9.7C14.3093 9.7 16.4893 7.53 16.4893 4.85C16.4893 2.17 14.3093 0 11.6293 0C8.94927 0 6.77927 2.17 6.77927 4.85C6.77927 7.53 8.94927 9.7 11.6293 9.7Z" fill="#445582"/>
<path d="M8.39927 15.01V13.87L5.92928 16.19C4.81927 17.23 3.30927 15.9 4.41927 14.86L8.50927 11.04C8.83928 10.73 9.19928 10.54 9.77928 10.54H13.4393C14.0193 10.54 14.3993 10.73 14.7393 11.04L18.8693 14.89C19.9293 15.88 18.3793 17.23 17.3593 16.23L14.8293 13.86V15.01H8.39927Z" fill="#445582"/>
<path d="M15.8993 21.47L15.5593 19.97L13.0493 20.37L13.4293 22.11V23.62C13.4293 23.82 13.5993 23.99 13.7993 23.99H17.6293C17.8393 23.99 17.9993 23.82 17.9993 23.62V23.42C17.9993 22.72 17.2693 21.82 15.8993 21.46V21.47Z" fill="#445582"/>
<path d="M7.35927 21.47C5.98927 21.83 5.25927 22.73 5.25927 23.43V23.63C5.25927 23.83 5.42928 24 5.62927 24H9.45927C9.66927 24 9.82927 23.83 9.82927 23.63V22.12L10.2093 20.37L7.69928 19.97L7.35927 21.47Z" fill="#445582"/>
<path d="M15.8693 18.54L15.0093 16.18C14.9693 16.04 14.8493 15.94 14.6993 15.94H8.55927C8.40927 15.94 8.27927 16.04 8.24927 16.18L7.38927 18.54C7.36927 18.64 7.38927 18.74 7.44927 18.82C7.50927 18.9 7.59927 18.94 7.69927 18.94L11.0393 19.46L11.4793 18.46H11.7593L12.2093 19.46L15.5493 18.94C15.6493 18.94 15.7393 18.89 15.7993 18.82C15.8593 18.74 15.8793 18.64 15.8593 18.54H15.8693Z" fill="#445582"/>
</g>
<defs>
<clipPath id="clip0_10924_13069">
<rect width="24" height="24" fill="white"/>
</clipPath>
</defs>
</svg>
