<svg width="24" height="24" viewBox="0 0 24 24" fill="none" xmlns="http://www.w3.org/2000/svg">
<path d="M21.05 4.86998C21.05 4.86998 21.02 4.83998 21 4.83998C20.98 4.83998 20.96 4.83998 20.94 4.85998L19.02 6.77998C19.02 6.77998 18.99 6.84998 19.02 6.87998C20.11 8.36998 20.69 10.14 20.69 12C20.69 14.31 19.79 16.48 18.17 18.12C18.14 18.15 18.09 18.15 18.07 18.12L15.43 15.48C15.43 15.48 15.36 15.45 15.33 15.48L12.05 18.76C12.05 18.76 12.02 18.78 12 18.78C11.89 18.78 11.79 18.78 11.69 18.78C10.77 18.78 9.87998 18.59 9.03998 18.21C9.01998 18.2 8.99998 18.18 8.99998 18.16C8.99998 18.14 8.99998 18.11 9.01998 18.09L13.48 13.63C13.48 13.63 13.51 13.55 13.48 13.52L10.49 10.53C10.49 10.53 10.42 10.5 10.39 10.53L5.92998 14.99C5.92998 14.99 5.88998 15.01 5.85998 15.01C5.83998 15.01 5.81998 14.99 5.80998 14.97C5.42998 14.13 5.23998 13.24 5.23998 12.32C5.23998 12.22 5.23998 12.12 5.23998 12.01C5.23998 11.99 5.23998 11.97 5.25998 11.96L8.53998 8.67998C8.53998 8.67998 8.56998 8.60998 8.53998 8.57998L5.89998 5.93998C5.89998 5.93998 5.87998 5.90998 5.87998 5.88998C5.87998 5.86998 5.87998 5.84998 5.89998 5.83998C6.33998 5.39998 6.82998 5.00998 7.35998 4.66998C7.47998 4.59998 7.59998 4.51998 7.71998 4.44998C7.89998 4.34998 8.08998 4.24998 8.26998 4.15998C9.43998 3.59998 10.71 3.30998 12.02 3.30998C13.85 3.30998 15.59 3.86998 17.07 4.92998C17.1 4.94998 17.14 4.94998 17.16 4.92998L19.08 3.00998C19.08 3.00998 19.1 2.96998 19.1 2.94998C19.1 2.92998 19.09 2.90998 19.07 2.89998C17.03 1.31998 14.59 0.47998 12 0.47998C8.91998 0.47998 6.02998 1.67998 3.84998 3.85998C1.67998 6.02998 0.47998 8.91998 0.47998 12C0.47998 15.08 1.67998 17.97 3.84998 20.15C6.02998 22.32 8.91998 23.52 12 23.52C18.35 23.52 23.52 18.35 23.52 12C23.52 9.41998 22.64 6.88998 21.05 4.86998Z" fill="#445582"/>
</svg>
