<svg width="24" height="24" viewBox="0 0 24 24" fill="none" xmlns="http://www.w3.org/2000/svg">
<path d="M5.34488 8.49003H2.40488V10.81H4.88488C5.65488 10.81 6.03488 11.35 6.03488 11.89C6.03488 12.43 5.65488 13.01 4.88488 13.01H2.40488V16.48C2.40488 17.28 1.89488 17.72 1.20488 17.72C0.514883 17.72 0.00488281 17.27 0.00488281 16.48V7.53003C0.00488281 6.88003 0.454883 6.29003 1.25488 6.29003H5.34488C6.04488 6.29003 6.41488 6.83003 6.41488 7.39003C6.41488 7.95003 6.06488 8.49003 5.34488 8.49003Z" fill="#445582"/>
<path d="M22.9749 14.27H20.5249V16.71C20.5249 17.31 20.1349 17.72 19.5049 17.72C18.8749 17.72 18.4949 17.32 18.4949 16.71V14.27H16.0449C15.4249 14.27 15.0349 13.87 15.0349 13.26C15.0349 12.65 15.4249 12.25 16.0449 12.25H18.4949V9.81003C18.4949 9.20003 18.8849 8.80003 19.5049 8.80003C20.1249 8.80003 20.5249 9.20003 20.5249 9.81003V12.25H22.9749C23.5949 12.25 23.9949 12.65 23.9949 13.26C23.9949 13.87 23.6049 14.27 22.9749 14.27Z" fill="#445582"/>
<path d="M11.2949 6.29003H8.46488C7.66488 6.29003 7.21488 6.78003 7.21488 7.53003V16.48C7.21488 17.28 7.72488 17.72 8.41488 17.72C9.10488 17.72 9.61488 17.27 9.61488 16.48V13.87H11.3949C13.5849 13.87 15.3949 12.42 15.3949 10.09C15.3949 7.76003 13.6549 6.28003 11.2949 6.28003V6.29003ZM11.2549 11.77H9.62488V8.39003H11.2549C12.2649 8.39003 12.9049 9.12003 12.9049 10.08C12.9049 11.04 12.2649 11.77 11.2549 11.77Z" fill="#445582"/>
</svg>
