<svg xmlns="http://www.w3.org/2000/svg" width="26" height="32" viewBox="0 0 26 32" fill="none">
  <path d="M17.3536 0.0153944C17.364 0.0199892 18.2834 0.559254 18.7241 0.961509C20.9242 2.96778 25.2416 7.60186 25.2416 7.60186L25.2617 28.8462C25.1276 30.5726 23.6635 31.8441 21.9806 31.9978L5.56369 31.9999C4.28633 31.8629 3.16311 31.0931 2.6205 29.9277C2.01148 29.9394 0.6535 30.309 0.786332 29.266C0.819749 29.0037 1.31515 28.4962 1.48433 28.21C1.80179 27.6729 2.38199 26.2305 2.4129 25.6298C2.43253 25.2535 2.19945 25.1386 1.99352 24.8767C0.811812 23.3746 0.120919 22.0166 0.0286048 20.0329C-0.0854303 17.5864 0.0732999 15.0718 1.78424 13.18L1.78341 3.02876C1.93713 1.56928 3.16353 -6.10352e-05 5.10337 -6.10352e-05L17.3536 0.0158119V0.0153944ZM16.6552 1.42183H4.93838C4.41373 1.42183 3.16311 1.87964 3.16311 3.28064V11.8646C3.46595 11.7635 4.96177 10.606 7.11089 10.5701C9.26002 10.5342 17.0641 9.26477 20.3177 13.34C21.849 15.2581 22.0307 17.5467 21.92 19.949C21.7333 23.9995 18.6176 27.2117 14.5478 27.4055C12.3611 27.5095 10.0754 27.3395 7.88324 27.383C6.85484 28.1048 5.82601 28.8274 4.6819 29.3613C4.50354 29.4444 4.13261 29.5488 3.99853 29.639C3.92877 29.6858 3.9718 29.6825 3.99853 29.7226C4.04448 29.7915 4.26545 30.0375 4.33186 30.0994C4.67689 30.4189 5.15601 30.5058 5.60546 30.5801C11.1944 30.5363 16.8005 30.6608 22.3795 30.5175C23.07 30.3951 23.9238 29.5664 23.9238 28.8454V8.56552H19.3081C18.0825 8.56552 16.6556 6.96151 16.6556 5.74597V1.42266L16.6552 1.42183ZM23.0461 7.22801L18.0336 2.25725V5.74514C18.0336 6.84413 18.9012 7.22801 19.5165 7.22801H23.0461ZM7.72827 25.9552C10.1009 25.8157 12.6076 26.0931 14.9651 25.9431C17.4827 25.7831 19.7295 23.7163 20.3026 21.2974C20.5461 20.2706 20.5603 18.7936 20.4977 17.7339C20.3126 14.6223 17.9818 12.1587 14.8402 11.9878C12.2537 11.8471 9.37196 11.7339 6.94172 11.9878C3.70154 12.2731 1.60463 14.6466 1.4484 17.8562C1.30471 20.8116 1.56077 22.1319 3.37196 24.4164C3.46261 24.5304 3.68065 24.6984 3.74874 24.8028C4.00229 25.1925 3.71741 26.0831 3.5921 26.5158C3.37948 27.2501 3.0687 27.9481 2.78759 28.6557C3.82476 28.3161 4.8256 27.8299 5.74999 27.2535C6.42125 26.8345 7.03027 26.2915 7.72869 25.9548L7.72827 25.9552Z" fill="#445582"/>
  <path d="M14.0508 22.2089C12.6523 23.3175 10.7354 23.5815 9.07964 22.886C8.54497 22.6613 7.36159 21.8204 7.11306 21.3021C6.86452 20.7837 7.27513 20.2569 7.8524 20.3539C8.12976 20.4006 8.52617 20.8948 8.78306 21.0936C10.0303 22.0594 11.8904 22.1341 13.1836 21.1939C13.4869 20.9733 13.8039 20.4813 14.149 20.3647C14.735 20.1663 15.2166 20.7762 14.9096 21.3342C14.7655 21.5961 14.2847 22.023 14.0508 22.2089Z" fill="#445582"/>
  <path d="M8.45203 18.7251C8.96002 18.7251 9.37183 18.1594 9.37183 17.4615C9.37183 16.7637 8.96002 16.1979 8.45203 16.1979C7.94403 16.1979 7.53223 16.7637 7.53223 17.4615C7.53223 18.1594 7.94403 18.7251 8.45203 18.7251Z" fill="#445582"/>
  <path d="M13.3085 18.7251C13.8165 18.7251 14.2283 18.1594 14.2283 17.4615C14.2283 16.7637 13.8165 16.1979 13.3085 16.1979C12.8005 16.1979 12.3887 16.7637 12.3887 17.4615C12.3887 18.1594 12.8005 18.7251 13.3085 18.7251Z" fill="#445582"/>
</svg>