<svg width="24" height="24" viewBox="0 0 24 24" fill="none" xmlns="http://www.w3.org/2000/svg">
<g clip-path="url(#clip0_101493_14477)">
<path d="M18.9912 6.53628L20.8032 4.72428C21.2244 4.30188 21.2244 3.61788 20.8032 3.19668C20.3808 2.77428 19.6968 2.77428 19.2756 3.19668L16.9248 5.54748C15.4752 4.99428 13.8288 4.63908 12.0012 4.63908C6.8952 4.63908 2.9436 7.45668 0.948 10.0883C0 11.3351 0 11.8871 0 12.0743C0 12.2615 0 12.6647 0.9468 13.9127C1.8924 15.1583 3.2808 16.4435 5.0196 17.4539L3.198 19.2755C2.7768 19.6979 2.7768 20.3819 3.198 20.8031C3.4092 21.0143 3.6852 21.1187 3.9624 21.1187C4.2396 21.1187 4.5156 21.0131 4.7268 20.8031L7.0872 18.4427C8.5608 19.0079 10.2084 19.3607 12.0012 19.3607C19.4988 19.3607 24.0012 13.6295 24.0012 12.0899C24.0012 11.1179 22.2024 8.40588 18.9924 6.53628H18.9912ZM5.2404 13.2983C5.4276 14.2031 5.802 15.0239 6.2904 15.7523C4.2 14.5775 2.952 13.0799 2.6088 12.6323C2.3592 12.3095 2.214 12.2291 2.1408 12.0839C2.214 11.9387 2.3592 11.6891 2.6088 11.3663C2.952 10.9187 4.2 9.42228 6.2904 8.24628C5.802 8.97468 5.4276 9.79548 5.2404 10.7003C5.1468 11.1575 5.0952 11.6255 5.0952 12.0935C5.0952 12.5615 5.1468 12.8399 5.2404 13.2971V13.2983ZM7.7004 14.7719C7.3368 14.2307 7.0608 13.6223 6.9252 12.9563C6.852 12.6131 6.8208 12.4487 6.8208 12.0959C6.8208 11.7431 6.852 11.3891 6.9252 11.0459C7.4136 8.65428 9.5556 6.91788 12 6.91788C13.014 6.91788 13.9524 7.22028 14.7504 7.72308L12.1956 10.2779C12.1284 10.2863 12.0684 10.3127 12 10.3127C11.196 10.3127 10.5264 9.74748 10.3608 8.99388C9.2916 9.57828 8.5584 10.6991 8.5584 12.0023C8.5584 12.5579 8.7024 13.0739 8.9352 13.5383L7.7004 14.7731V14.7719ZM12 17.0843C11.0004 17.0843 10.0596 16.7819 9.2544 16.2755L10.464 15.0659C10.9284 15.2999 11.4456 15.4427 12 15.4427C13.9008 15.4427 15.4416 13.9019 15.4416 12.0011C15.4416 11.4455 15.3012 10.9259 15.066 10.4639L16.308 9.22188C16.8576 10.0427 17.1792 11.0291 17.1792 12.0911C17.1792 14.9507 14.8608 17.0843 12.0012 17.0843H12ZM17.73 15.7115C18.4584 14.6195 18.8676 13.4951 18.8676 12.0911C18.8676 10.6871 18.4572 9.38148 17.73 8.28948C20.07 9.59988 21.4944 11.3735 21.8376 12.0911C21.4944 12.8087 20.07 14.4011 17.73 15.7115Z" fill="#445582"/>
</g>
<defs>
<clipPath id="clip0_101493_14477">
<rect width="24" height="24" fill="white"/>
</clipPath>
</defs>
</svg>
