<svg width="24" height="24" viewBox="0 0 24 24" fill="none" xmlns="http://www.w3.org/2000/svg">
<path d="M7.46484 8.9533C7.59484 8.6933 7.80484 8.6933 7.92484 8.9533L8.58484 10.3033C8.71484 10.5633 9.04484 10.8033 9.33484 10.8433L10.8148 11.0633C11.0948 11.1033 11.1648 11.3033 10.9548 11.5033L9.88484 12.5533C9.68484 12.7533 9.55484 13.1533 9.60484 13.4333L9.85484 14.9133C9.90484 15.2033 9.73484 15.3233 9.48484 15.1833L8.15484 14.4833C7.90484 14.3533 7.48484 14.3533 7.23484 14.4833L5.90484 15.1833C5.65484 15.3233 5.48484 15.1933 5.53484 14.9133L5.78484 13.4333C5.83484 13.1433 5.70484 12.7533 5.49484 12.5533L4.42484 11.5033C4.21484 11.3033 4.28484 11.1033 4.56484 11.0633L6.04484 10.8433C6.33484 10.8033 6.66484 10.5533 6.79484 10.3033L7.45484 8.9533H7.46484Z" fill="#445582"/>
<path d="M16.0848 8.9533C16.2148 8.6933 16.4148 8.6933 16.5448 8.9533L17.2048 10.3033C17.3348 10.5633 17.6648 10.8033 17.9548 10.8433L19.4348 11.0633C19.7148 11.1033 19.7848 11.3033 19.5748 11.5033L18.5048 12.5533C18.2948 12.7533 18.1748 13.1533 18.2248 13.4333L18.4748 14.9133C18.5248 15.2033 18.3548 15.3233 18.1048 15.1833L16.7748 14.4833C16.5248 14.3533 16.1048 14.3533 15.8548 14.4833L14.5248 15.1833C14.2748 15.3233 14.1048 15.1933 14.1548 14.9133L14.4048 13.4333C14.4548 13.1433 14.3248 12.7533 14.1148 12.5533L13.0448 11.5033C12.8348 11.3033 12.9048 11.1033 13.1848 11.0633L14.6648 10.8433C14.9448 10.8033 15.2848 10.5533 15.4148 10.3033L16.0748 8.9533H16.0848Z" fill="#445582"/>
</svg>
