<svg width="24" height="24" viewBox="0 0 24 24" fill="none" xmlns="http://www.w3.org/2000/svg">
<path d="M24 1.97977C24 1.16977 23.34 0.509766 22.53 0.509766H1.47C0.66 0.509766 0 1.16977 0 1.97977C0 2.42977 0.21 2.82977 0.53 3.09977C0.61 3.25977 0.77 3.36977 0.96 3.36977H1C1.15 3.41977 1.3 3.44977 1.47 3.44977H2.59L5.4 12.3498C5.46 12.5598 5.65 12.6898 5.87 12.6898H5.88C6.1 12.6898 6.29 12.5298 6.34 12.3198L8.51 3.63977L11.27 23.0698C11.3 23.3098 11.5 23.4798 11.74 23.4898H11.75C11.98 23.4898 12.18 23.3298 12.23 23.0998L15.47 6.87977L18.14 18.6998C18.19 18.9198 18.39 19.0798 18.62 19.0798C18.85 19.0798 19.05 18.9198 19.1 18.6898L22.43 3.45977H22.52C22.69 3.45977 22.84 3.42977 22.99 3.37977H23.03C23.22 3.37977 23.38 3.26977 23.46 3.11977C23.78 2.84977 23.99 2.44977 23.99 1.99977L24 1.97977Z" fill="#445582"/>
</svg>
