<svg width="24" height="24" viewBox="0 0 24 24" fill="none" xmlns="http://www.w3.org/2000/svg">
<path d="M1.14609 10.7649C0.516094 10.7649 -0.00390625 11.2749 -0.00390625 11.9049V21.1749C-0.00390625 21.8049 0.516094 22.3249 1.14609 22.3149H16.2961C16.9261 22.3149 17.4461 21.8049 17.4461 21.1749V11.9049C17.4461 11.2749 16.9261 10.7649 16.3061 10.7649H1.14609ZM12.5561 16.5349C12.5561 18.6549 10.8361 20.3749 8.71609 20.3749C6.59609 20.3749 4.87609 18.6549 4.87609 16.5349C4.87609 14.4149 6.59609 12.6949 8.71609 12.6949C10.8361 12.6949 12.5561 14.4149 12.5561 16.5349Z" fill="#445582"/>
<path d="M6.40609 16.3649C6.60609 16.6349 6.94609 16.7449 7.29609 16.6849C7.20609 16.8849 7.15609 17.1049 7.15609 17.3349C7.15609 18.2049 7.86609 18.9149 8.73609 18.9149C9.60609 18.9149 10.3161 18.2049 10.3161 17.3349C10.3161 17.1049 10.2561 16.8849 10.1661 16.6849C10.5161 16.7449 10.8561 16.6349 11.0561 16.3649C11.3561 15.9549 11.2261 15.3449 10.7461 14.9949C10.2761 14.6449 9.64609 14.6849 9.34609 15.0949C9.18609 15.3149 9.15609 15.5849 9.22609 15.8449C9.07609 15.7949 8.90609 15.7649 8.73609 15.7549C8.56609 15.7549 8.39609 15.7849 8.24609 15.8449C8.31609 15.5849 8.28609 15.3149 8.12609 15.0949C7.82609 14.6849 7.19609 14.6449 6.72609 14.9949C6.25609 15.3449 6.11609 15.9649 6.41609 16.3649H6.40609Z" fill="#445582"/>
<path d="M23.1461 5.64494L8.51609 1.72494C8.41609 1.69494 8.31609 1.68494 8.21609 1.68494C7.71609 1.68494 7.24609 2.02494 7.10609 2.53494L5.23609 9.50494H6.47609L7.21609 6.75494L21.7561 10.6549L20.4261 15.6449L18.6961 15.1849V16.4149L20.1661 16.8049C20.2661 16.8349 20.3661 16.8449 20.4561 16.8449C20.9661 16.8449 21.4261 16.5049 21.5661 15.9949L23.9661 7.04494C24.1261 6.43494 23.7661 5.80494 23.1561 5.64494H23.1461ZM22.3261 8.51494L7.78609 4.61494L8.25609 2.88494L22.7961 6.78494L22.3261 8.51494Z" fill="#445582"/>
</svg>
