<svg width="24" height="24" viewBox="0 0 24 24" fill="none" xmlns="http://www.w3.org/2000/svg">
<path d="M23.5598 11.3098L23.3598 11.2298C22.9798 5.55976 18.4498 1.03977 12.7898 0.659766L12.7098 0.459766C12.5898 0.179766 12.3198 0.00976562 12.0198 0.00976562C11.7198 0.00976562 11.4498 0.189766 11.3298 0.459766L11.2498 0.659766C5.56977 1.02977 1.03977 5.55976 0.659766 11.2298L0.459766 11.3098C0.189766 11.4298 0.00976562 11.6998 0.00976562 11.9998C0.00976562 12.2998 0.189766 12.5698 0.459766 12.6898L0.659766 12.7698C1.03977 18.4398 5.56977 22.9598 11.2298 23.3398L11.3098 23.5398C11.4298 23.8198 11.6998 23.9898 11.9998 23.9898C12.2998 23.9898 12.5698 23.8098 12.6898 23.5398L12.7698 23.3398C18.4398 22.9598 22.9598 18.4298 23.3398 12.7698L23.5398 12.6898C23.8198 12.5698 23.9898 12.2998 23.9898 11.9998C23.9898 11.6998 23.8098 11.4298 23.5398 11.3098H23.5598ZM17.0298 5.90977C17.4498 6.25977 17.8298 6.64977 18.1798 7.07977H16.7898C16.5298 6.50977 15.9598 6.11977 15.3098 6.09977C14.9898 5.41977 14.5998 4.85977 14.1798 4.40977C15.2398 4.70977 16.2098 5.21977 17.0298 5.90977ZM18.7598 16.0698H15.9798C16.2798 14.9798 16.4498 13.7398 16.4798 12.4198H19.8798C19.8098 13.7498 19.4098 14.9898 18.7598 16.0698ZM16.4798 11.5798C16.4598 10.7298 16.3798 9.91977 16.2498 9.15977C16.6398 8.87977 16.8898 8.43977 16.9398 7.93977H18.7698C19.4198 9.01977 19.8198 10.2598 19.8898 11.5898H16.4898L16.4798 11.5798ZM14.4598 6.30977C14.1398 6.47977 13.8798 6.74977 13.7198 7.08977H12.4298V4.26977C13.1998 4.46977 13.8998 5.20977 14.4498 6.30977H14.4598ZM11.5898 4.26977V7.08977H9.21977C9.80977 5.56977 10.6498 4.51977 11.5898 4.26977ZM11.5898 7.92977V11.5798H9.77977C9.62977 10.9098 9.12977 10.3798 8.48977 10.1698C8.57977 9.36977 8.73977 8.61977 8.93977 7.92977H11.5898ZM9.76977 12.4198H11.5798V16.0698H8.92977C8.72977 15.3798 8.57977 14.6298 8.47977 13.8298C9.11977 13.6198 9.61977 13.0898 9.76977 12.4198ZM11.5898 16.9198V19.7398C10.6498 19.4898 9.79977 18.4398 9.21977 16.9198H11.5898ZM12.4298 19.7298V16.9098H14.7998C14.2098 18.4298 13.3698 19.4798 12.4298 19.7298ZM12.4298 16.0698V12.4198H15.6298C15.5898 13.7398 15.3998 14.9898 15.0798 16.0698H12.4298ZM12.4298 11.5798V7.92977H13.5698C13.6398 8.79977 14.3698 9.47976 15.2498 9.47976C15.3098 9.47976 15.3698 9.46977 15.4298 9.45977C15.5398 10.1298 15.6098 10.8398 15.6298 11.5698H12.4298V11.5798ZM9.82977 4.41977C9.21977 5.06977 8.68977 5.97977 8.29977 7.08977H5.83977C5.83977 7.08977 5.88977 7.01977 5.91977 6.98977C6.91977 5.77977 8.27977 4.86977 9.82977 4.42977V4.41977ZM4.13977 12.4198H5.99977C6.17977 13.1998 6.82977 13.7998 7.63977 13.9098C7.72977 14.6698 7.85977 15.3998 8.03977 16.0698H5.25977C4.60977 14.9898 4.20977 13.7498 4.13977 12.4198ZM5.25977 7.92977H8.03977C7.85977 8.59976 7.71977 9.31977 7.63977 10.0898C6.82977 10.1998 6.17977 10.7998 5.99977 11.5798H4.13977C4.20977 10.2498 4.60977 9.00977 5.25977 7.92977ZM8.29977 16.9198C8.68977 18.0298 9.20977 18.9398 9.82977 19.5898C8.27977 19.1398 6.91977 18.2398 5.91977 17.0298C5.88977 16.9998 5.86977 16.9598 5.83977 16.9298H8.29977V16.9198ZM17.0298 18.0898C16.2098 18.7698 15.2398 19.2798 14.1898 19.5798C14.7998 18.9298 15.3298 18.0198 15.7198 16.9098H18.1798C17.8398 17.3398 17.4598 17.7298 17.0298 18.0798V18.0898ZM12.0098 0.749766L13.1098 3.30977C12.7498 3.26977 12.3898 3.22977 12.0098 3.22977C11.6298 3.22977 11.2698 3.25977 10.9098 3.30977L12.0098 0.749766ZM3.31977 10.8998C3.27977 11.2598 3.23977 11.6198 3.23977 11.9998C3.23977 12.3798 3.26977 12.7398 3.31977 13.0998L0.759766 11.9998L3.31977 10.8998ZM12.0098 23.2498L10.9098 20.6898C11.2698 20.7398 11.6298 20.7698 12.0098 20.7698C12.3898 20.7698 12.7498 20.7398 13.1098 20.6898L12.0098 23.2498ZM20.6998 13.0998C20.7398 12.7398 20.7798 12.3798 20.7798 11.9998C20.7798 11.6198 20.7498 11.2598 20.6998 10.8998L23.2598 11.9998L20.6998 13.0998Z" fill="#445582"/>
</svg>
