<svg width="24" height="24" viewBox="0 0 24 24" fill="none" xmlns="http://www.w3.org/2000/svg">
<path d="M2.34631 0.257441C2.00631 0.597441 2.00631 1.18744 2.34631 1.51744L20.3863 19.7174C20.7363 20.0574 21.3063 20.0674 21.6463 19.7174C21.9963 19.3774 21.9963 18.8174 21.6463 18.4574L3.61631 0.257441C3.26631 -0.0825586 2.68631 -0.0825586 2.34631 0.257441Z" fill="#445582"/>
<path d="M12.486 2.17745C11.3342 2.17745 10.3205 2.41404 9.46436 2.87745H9.46598C9.25598 3.00745 9.07598 3.14745 8.89598 3.29745L8.87019 3.319C8.81637 3.36405 8.75615 3.41446 8.69598 3.45745L7.12598 1.87745C7.75598 1.34745 8.45598 0.877446 9.27598 0.567446C10.236 0.187446 11.326 0.0074463 12.496 0.0074463C13.666 0.0074463 14.756 0.187446 15.716 0.597446C16.686 0.967446 17.516 1.50745 18.226 2.19745C18.926 2.88745 19.466 3.71745 19.846 4.67745C20.206 5.62745 20.406 6.69745 20.406 7.85745C20.406 8.73745 20.296 9.50745 20.056 10.1874C19.826 10.8474 19.526 11.4574 19.176 11.9774C18.906 12.3674 18.646 12.7274 18.386 13.0674L18.296 13.1874L16.776 11.6474C16.7872 11.6306 16.7984 11.6131 16.8098 11.5951C16.8392 11.549 16.87 11.5006 16.906 11.4574C16.926 11.4275 16.9485 11.395 16.971 11.3625C16.9934 11.33 17.016 11.2974 17.036 11.2674C17.376 10.8074 17.656 10.2774 17.886 9.71745C18.116 9.16745 18.226 8.53745 18.226 7.82745C18.226 6.70745 17.986 5.71745 17.506 4.86745C17.026 4.01745 16.356 3.35745 15.506 2.88745C14.646 2.41745 13.646 2.17745 12.486 2.17745Z" fill="#445582"/>
<path d="M10.556 23.5074C10.036 23.1874 9.75604 22.7174 9.69604 22.1674H9.68604V22.0074H15.266V22.1674C15.186 22.7174 14.906 23.1674 14.386 23.5074C13.876 23.8274 13.256 23.9974 12.476 23.9974C11.696 23.9974 11.046 23.8274 10.556 23.5074Z" fill="#445582"/>
<path d="M10.1362 16.0874H14.7562L16.6662 18.0074C16.5062 18.1374 16.3162 18.2074 16.0862 18.2074H8.87615C8.62615 18.2074 8.40615 18.1274 8.23615 17.9674C8.06615 17.7974 7.98615 17.5874 7.98615 17.3274V15.9174C7.98615 15.4774 7.87615 15.0574 7.66615 14.6574C7.43615 14.2474 7.15615 13.8074 6.81615 13.3874C6.46615 12.9474 6.12615 12.4674 5.78615 11.9474C5.44615 11.4274 5.14615 10.8174 4.90615 10.1574C4.67615 9.49743 4.55615 8.70743 4.55615 7.82743C4.55615 7.18743 4.63615 6.58743 4.75615 5.98743L6.75615 8.00743C6.78615 8.64743 6.88615 9.21743 7.07615 9.71743C7.30615 10.2774 7.58615 10.8074 7.90615 11.2674C8.24615 11.7474 8.58615 12.2174 8.92615 12.6774C9.26615 13.1474 9.56615 13.6374 9.78615 14.1474C10.0262 14.6574 10.1362 15.2174 10.1362 15.8374V16.0874Z" fill="#445582"/>
<path d="M9.08631 18.9675H15.8763C16.1863 18.9675 16.4463 19.0875 16.6763 19.3075C16.9063 19.5275 17.0163 19.7975 17.0163 20.1075C17.0163 20.4175 16.9063 20.6775 16.6763 20.9075C16.4563 21.1375 16.1863 21.2475 15.8763 21.2475H9.08631C8.77631 21.2475 8.51631 21.1375 8.28631 20.9075C8.07631 20.6875 7.96631 20.4175 7.96631 20.1075C7.96631 19.7975 8.07631 19.5375 8.28631 19.3075C8.50631 19.0775 8.77631 18.9675 9.08631 18.9675Z" fill="#445582"/>
</svg>
