<svg width="24" height="24" viewBox="0 0 24 24" fill="none" xmlns="http://www.w3.org/2000/svg">
<path d="M17.5462 0.959961H6.44625C5.74625 0.959961 5.17625 1.54996 5.15625 2.28996L7.23625 4.32996V3.74996C7.23625 3.41996 7.49625 3.12996 7.82625 3.12996H16.1663C16.4963 3.12996 16.7563 3.39996 16.7563 3.74996V13.66L18.8363 15.71V2.29996C18.8363 1.55996 18.2662 0.959961 17.5462 0.959961Z" fill="#445582"/>
<path d="M5.15625 21.6999C5.15625 22.4399 5.72625 23.0399 6.44625 23.0399H17.5562C18.2262 23.0399 18.7463 22.4999 18.8162 21.8199L16.7663 19.7999V20.2399C16.7663 20.5699 16.5063 20.8599 16.1763 20.8599H7.82625C7.49625 20.8599 7.23625 20.5899 7.23625 20.2399V10.4699L5.15625 8.42993V21.6999Z" fill="#445582"/>
<path d="M2.64594 3.95996C2.31594 3.63996 2.31594 3.08996 2.64594 2.76996C2.97594 2.43996 3.53594 2.43996 3.87594 2.76996L21.3459 20.04C21.6859 20.37 21.6859 20.91 21.3459 21.23C21.0159 21.56 20.4659 21.55 20.1259 21.23L2.64594 3.95996Z" fill="#445582"/>
</svg>
