<svg width="24" height="24" viewBox="0 0 24 24" fill="none" xmlns="http://www.w3.org/2000/svg">
<path d="M11.9978 3.195C12.2278 3.195 12.4478 3.365 12.6278 3.715L14.4278 7.385C14.7778 8.085 15.6878 8.755 16.4578 8.865L20.4878 9.455C21.2578 9.565 21.4378 10.105 20.8778 10.655L17.9578 13.505C17.3978 14.055 17.0478 15.125 17.1778 15.905L17.8678 19.935C17.9678 20.495 17.7478 20.825 17.3578 20.825C17.2078 20.825 17.0378 20.775 16.8478 20.675L13.2378 18.775C12.8978 18.595 12.4378 18.505 11.9878 18.505C11.5378 18.505 11.0778 18.595 10.7378 18.775L7.12782 20.675C6.93782 20.775 6.76782 20.825 6.61782 20.825C6.22782 20.825 6.01782 20.495 6.10782 19.935L6.79782 15.905C6.92782 15.135 6.57782 14.055 6.01782 13.505L3.09782 10.655C2.53782 10.105 2.71782 9.575 3.48782 9.455L7.51782 8.865C8.28782 8.755 9.20782 8.085 9.54782 7.385L11.3478 3.715C11.5178 3.365 11.7478 3.195 11.9778 3.195M11.9978 0.885C10.8678 0.885 9.85782 1.565 9.29782 2.695L7.49782 6.365C7.49782 6.365 7.27782 6.545 7.17782 6.585L3.17782 7.165C1.92782 7.355 0.967822 8.105 0.617822 9.175C0.267822 10.245 0.597822 11.415 1.50782 12.305L4.39782 15.135C4.45782 15.235 4.52782 15.455 4.52782 15.555L3.84782 19.535C3.67782 20.525 3.89782 21.455 4.47782 22.135C5.00782 22.765 5.78782 23.125 6.62782 23.125C7.15782 23.125 7.69782 22.985 8.21782 22.705L11.7878 20.825C11.7878 20.825 11.8978 20.805 11.9978 20.805C12.0978 20.805 12.1778 20.815 12.2078 20.825L15.7778 22.705C16.2978 22.985 16.8378 23.125 17.3678 23.125C18.2078 23.125 18.9878 22.765 19.5178 22.135C20.0978 21.455 20.3178 20.525 20.1478 19.535L19.4578 15.505C19.4578 15.435 19.5378 15.205 19.6078 15.115L22.4978 12.295C23.3978 11.415 23.7278 10.245 23.3878 9.165C23.0378 8.095 22.0878 7.345 20.8378 7.155L16.8378 6.575C16.7278 6.535 16.5478 6.405 16.4978 6.315L14.7178 2.685C14.1578 1.545 13.1478 0.875 12.0178 0.875L11.9978 0.885Z" fill="#445582"/>
</svg>
