<svg width="24" height="24" viewBox="0 0 24 24" fill="none" xmlns="http://www.w3.org/2000/svg">
<path d="M23.9389 3.83501C23.8189 3.54501 23.5489 3.36501 23.2389 3.36501C23.1689 3.36501 23.1089 3.36501 23.0489 3.39501C22.9889 3.41501 21.9589 3.69501 20.3689 4.56501C18.9889 3.82501 17.3689 3.84501 16.1289 4.70501C14.7289 5.68501 14.1989 7.49501 14.6289 9.26501C14.6289 9.26501 14.6189 9.28501 14.6089 9.28501C13.7489 8.65501 12.7489 8.19501 11.6389 7.99501C10.5289 7.79501 9.43889 7.86501 8.41889 8.15501C9.44889 6.64501 9.59889 4.75501 8.61889 3.34501C7.29889 1.44501 4.44889 1.14501 2.24889 2.67501C0.0588906 4.20501 -0.661109 6.97501 0.658891 8.87501C1.56889 10.185 3.19889 10.735 4.85889 10.445C4.06889 11.375 3.50889 12.525 3.26889 13.805C2.55889 17.725 5.16889 21.475 9.06889 22.185C12.9889 22.895 16.7389 20.295 17.4489 16.375C17.6789 15.075 17.5489 13.805 17.1389 12.655C18.5889 13.525 20.3389 13.595 21.6689 12.675C23.5689 11.355 23.8689 8.50501 22.3389 6.30501C22.2689 6.20501 22.1389 6.03501 21.9989 5.86501C22.5189 5.46501 23.0589 5.10501 23.6189 4.78501C23.9489 4.59501 24.0889 4.19501 23.9489 3.84501L23.9389 3.83501ZM23.3189 4.25501C15.6589 8.58501 11.4989 20.925 11.4589 21.045C11.4389 21.105 11.3889 21.145 11.3189 21.145C11.2589 21.145 11.1989 21.105 11.1789 21.055C9.05889 15.975 4.50889 13.555 4.46889 13.535C4.41889 13.505 4.38889 13.455 4.38889 13.395C4.38889 13.335 4.42889 13.285 4.48889 13.265L8.53889 11.795C8.58889 11.775 8.65889 11.795 8.69889 11.835C9.61889 12.765 10.4889 14.315 10.8089 14.905C13.7589 10.225 16.9389 7.52501 19.1089 6.06501C21.4989 4.46501 23.1589 4.00501 23.2289 3.98501C23.2989 3.96501 23.3789 4.00501 23.4089 4.07501C23.4389 4.14501 23.4089 4.22501 23.3389 4.26501L23.3189 4.25501Z" fill="#445582"/>
</svg>
