<svg width="24" height="24" viewBox="0 0 24 24" fill="none" xmlns="http://www.w3.org/2000/svg">
<path d="M15.1201 7.2C10.4801 7.2 6.72007 10.96 6.72007 15.6C6.72007 20.24 10.4801 24 15.1201 24C19.7601 24 23.5201 20.24 23.5201 15.6C23.5201 10.96 19.7601 7.2 15.1201 7.2ZM15.0901 14.1C15.0901 14.55 14.6701 14.86 14.0901 15.04V20.15C14.0901 20.76 13.5901 21.26 12.9801 21.26C12.3701 21.26 11.8701 20.76 11.8701 20.15V15.08C11.2901 14.91 10.8701 14.6 10.8701 14.11V10.62C10.8701 10.36 11.0801 10.15 11.3401 10.15C11.5801 10.15 11.7801 10.33 11.8101 10.57V12.93C11.8101 13.12 11.9701 13.28 12.1601 13.28C12.3501 13.28 12.5101 13.12 12.5101 12.93V10.56C12.5401 10.33 12.7401 10.15 12.9801 10.15C13.2401 10.15 13.4401 10.36 13.4501 10.61V12.93C13.4501 13.12 13.6101 13.28 13.8001 13.28C13.9901 13.28 14.1501 13.12 14.1501 12.93V10.52C14.2001 10.31 14.3901 10.15 14.6101 10.15C14.8701 10.15 15.0801 10.36 15.0801 10.62V12.82C15.0801 12.82 15.0801 12.89 15.0801 12.93V14.1H15.0901ZM19.3701 20.15C19.3701 20.76 18.8701 21.26 18.2601 21.26C17.6501 21.26 17.1501 20.76 17.1501 20.15V15.9C16.5601 15.65 16.3101 15.15 16.3101 14.56V11.44C16.3101 10.61 16.6101 9.93 18.0901 9.93C18.2301 9.93 18.3401 9.96 18.4401 9.99C18.9601 10.08 19.3601 10.53 19.3601 11.08V20.15H19.3701Z" fill="#445582"/>
<path d="M6.56007 20.36H2.60007C2.41007 20.36 2.20007 20.21 2.20007 20.02V2.93C2.20007 2.77 2.31007 2.6 2.45007 2.56C2.48007 2.56 12.9401 2.56 12.9401 2.56C13.0301 2.56 13.1201 2.6 13.1801 2.66C13.2501 2.72 13.3401 2.81 13.3401 2.9V5.93C13.8801 5.83 14.4401 5.77 15.0101 5.76V1.79C15.0101 0.8 14.2201 0 13.2501 0H2.23007C1.26007 0 0.470074 0.84 0.480074 1.83V22.24C0.480074 23.23 1.34007 24 2.31007 24H10.0501C8.60007 23.11 7.39007 21.86 6.56007 20.36Z" fill="#445582"/>
</svg>
