<svg width="24" height="24" viewBox="0 0 24 24" fill="none" xmlns="http://www.w3.org/2000/svg">
<path d="M13.2135 2.12C13.2135 3.3 12.2635 4.25 11.0835 4.25C9.90348 4.25 8.95348 3.3 8.95348 2.12C8.95348 0.94 9.91348 -0.0100002 11.0835 -0.0100002C12.2535 -0.0100002 13.2135 0.95 13.2135 2.12Z" fill="#445582"/>
<path d="M13.6735 14.64L11.7935 17.57L13.7635 23.06C13.9635 23.62 14.4935 23.98 15.0635 23.98C15.2135 23.98 15.3735 23.95 15.5335 23.9C16.2535 23.64 16.6235 22.85 16.3635 22.13L13.6735 14.65V14.64Z" fill="#445582"/>
<path d="M17.9635 11.82L13.0135 5.79C13.0135 5.79 12.6935 5.46 12.6635 5.44C12.2935 5.12 11.8335 4.96 11.3035 4.96C10.9435 4.96 10.6235 5 10.3035 5.22C10.2035 5.28 9.97348 5.45 9.87348 5.53L6.20348 8.59C5.96348 8.79 5.81348 9.1 5.81348 9.41V14.18C5.81348 14.77 6.29348 15.25 6.88348 15.25C7.47348 15.25 7.95348 14.77 7.95348 14.18V9.91L9.13348 8.91V13.77L6.23348 22.15C5.98348 22.88 6.36348 23.67 7.09348 23.93C7.25348 23.98 7.40348 24.01 7.56348 24.01C8.13348 24.01 8.67348 23.64 8.87348 23.07L11.0735 16.73L13.4435 13.26V9.74L16.2635 13.18C16.4735 13.44 16.7735 13.58 17.0935 13.58C17.3335 13.58 17.5735 13.51 17.7835 13.34C18.2435 12.97 18.3235 12.29 17.9535 11.83L17.9635 11.82Z" fill="#445582"/>
</svg>
