<svg width="24" height="24" viewBox="0 0 24 24" fill="none" xmlns="http://www.w3.org/2000/svg">
<path d="M23.1763 8.11103H16.4463L17.2363 12.601C17.3563 13.261 17.2063 13.921 16.8263 14.471C16.4463 15.011 15.8763 15.381 15.2063 15.491L6.74629 16.921L6.79629 21.691C6.79629 22.151 7.16629 22.511 7.61629 22.511H23.1663C23.6263 22.511 23.9963 22.121 23.9963 21.671V8.93103C23.9963 8.48103 23.6263 8.11103 23.1663 8.11103H23.1763ZM11.8863 20.521H9.16629V17.991H11.8863V20.521ZM16.8463 20.521H14.1263V17.991H16.8463V20.521ZM21.8063 20.521H19.0863V17.991H21.8063V20.521ZM21.8063 12.641H19.0863V10.111H21.8063V12.641Z" fill="#445582"/>
<path d="M13.2363 2.21103C13.1563 1.74103 12.6963 1.42103 12.2263 1.50103L0.716293 3.39103C0.236293 3.48103 -0.0637069 3.99103 0.0162931 4.47103L1.84629 14.841C1.92629 15.321 2.38629 15.631 2.85629 15.551L14.3663 13.641C14.8463 13.561 15.1563 13.111 15.0763 12.631L13.2363 2.21103ZM6.78629 4.41103C8.05629 4.18103 9.26629 5.03103 9.49629 6.30103C9.71629 7.57103 8.87629 8.79103 7.60629 9.01103C6.33629 9.24103 5.11629 8.38103 4.89629 7.12103C4.67629 5.85103 5.51629 4.64103 6.78629 4.41103ZM11.5363 12.301L5.13629 13.431C4.88629 13.471 4.65629 13.321 4.61629 13.101L4.56629 12.851C4.31629 11.451 4.75629 10.491 5.57629 9.86103C5.57629 9.86103 5.59629 9.86103 5.59629 9.87103C5.61629 9.85103 5.62629 9.84103 5.65629 9.82103C6.27629 10.271 7.07629 10.481 7.88629 10.351C8.69629 10.201 9.36629 9.72103 9.80629 9.09103C9.82629 9.09103 9.84629 9.11103 9.87629 9.12103C9.87629 9.12103 9.88629 9.11103 9.89629 9.10103C10.8863 9.41103 11.6263 10.161 11.8663 11.561L11.9063 11.811C11.9463 12.041 11.7763 12.251 11.5263 12.301H11.5363Z" fill="#445582"/>
</svg>
