<svg width="24" height="24" viewBox="0 0 24 24" fill="none" xmlns="http://www.w3.org/2000/svg">
<path d="M21.2298 6.705H16.5198C18.0198 6.435 18.8198 5.765 19.2398 5.175C19.7698 4.425 19.9098 3.475 19.6098 2.62499C19.1598 1.355 17.8198 0.494995 16.2498 0.494995C15.6298 0.494995 15.0198 0.624995 14.4198 0.894995C13.3298 1.375 12.5498 2.185 11.9998 3.005C11.4498 2.185 10.6698 1.375 9.57979 0.894995C8.97979 0.634995 8.36978 0.494995 7.74978 0.494995C6.18979 0.494995 4.83979 1.355 4.38979 2.62499C4.08979 3.475 4.22979 4.425 4.75979 5.175C5.17979 5.765 5.97978 6.435 7.46979 6.705H2.76979C2.22979 6.705 1.77979 7.145 1.77979 7.695V22.515C1.77979 23.055 2.21979 23.505 2.76979 23.505H21.2298C21.7698 23.505 22.2198 23.065 22.2198 22.515V7.695C22.2198 7.155 21.7798 6.705 21.2298 6.705ZM15.2798 2.845C15.5998 2.70499 15.9298 2.635 16.2498 2.635C16.9698 2.635 17.4798 2.995 17.5998 3.345C17.6298 3.43499 17.6898 3.695 17.4998 3.965C17.3398 4.195 16.7798 4.725 15.0898 4.725H13.4398C13.8098 4.025 14.3998 3.23499 15.2698 2.855L15.2798 2.845ZM6.49978 3.955C6.30978 3.675 6.36978 3.42499 6.39979 3.335C6.51978 2.995 7.03979 2.62499 7.75979 2.62499C8.07979 2.62499 8.40978 2.69499 8.72978 2.835C9.59978 3.21499 10.1898 4.005 10.5598 4.705H8.90979C7.21979 4.705 6.65978 4.175 6.49978 3.945V3.955ZM13.6398 19.815H6.91979C6.59978 19.815 6.33979 19.555 6.33979 19.235C6.33979 18.915 6.59978 18.655 6.91979 18.655H13.6398C13.9598 18.655 14.2198 18.915 14.2198 19.235C14.2198 19.555 13.9598 19.815 13.6398 19.815ZM13.6398 16.935H6.91979C6.59978 16.935 6.33979 16.675 6.33979 16.355C6.33979 16.035 6.59978 15.775 6.91979 15.775H13.6398C13.9598 15.775 14.2198 16.035 14.2198 16.355C14.2198 16.675 13.9598 16.935 13.6398 16.935ZM19.6898 12.265C19.6898 12.515 19.4798 12.725 19.2298 12.725H16.0898C15.8398 12.725 15.6298 12.515 15.6298 12.265V9.345C15.6298 9.095 15.8298 8.885 16.0898 8.885H19.2298C19.4798 8.885 19.6898 9.095 19.6898 9.345V12.265Z" fill="#445582"/>
</svg>
