<svg width="24" height="24" viewBox="0 0 24 24" fill="none" xmlns="http://www.w3.org/2000/svg">
<path d="M1.34 11.595C0.6 11.595 0 10.995 0 10.255C0 9.51504 0.6 8.91504 1.34 8.91504H9.37C10.11 8.91504 10.71 9.51504 10.71 10.255C10.71 10.995 10.11 11.595 9.37 11.595H1.34Z" fill="#445582"/>
<path d="M21.7 19.755H1.65C0.91 19.755 0.31 19.155 0.31 18.415C0.31 17.675 0.91 17.075 1.65 17.075H21.7C22.44 17.075 23.04 17.675 23.04 18.415C23.04 19.155 22.44 19.755 21.7 19.755Z" fill="#445582"/>
<path d="M17.38 15.675H4.01C3.27 15.675 2.67 15.075 2.67 14.335C2.67 13.595 3.27 12.995 4.01 12.995H17.38C18.12 12.995 18.72 13.595 18.72 14.335C18.72 15.075 18.12 15.675 17.38 15.675Z" fill="#445582"/>
<path d="M17.38 23.835H4.01C3.27 23.835 2.67 23.235 2.67 22.495C2.67 21.755 3.27 21.155 4.01 21.155H17.38C18.12 21.155 18.72 21.755 18.72 22.495C18.72 23.235 18.12 23.835 17.38 23.835Z" fill="#445582"/>
<path d="M11.13 7.42504C11.21 4.91504 12.95 2.82504 15.3 2.23504C15.31 2.23504 15.33 2.23504 15.34 2.22504C15.55 2.17504 15.77 2.16504 15.99 2.13504C16.12 2.12504 16.24 2.10504 16.37 2.09504C14.84 2.81504 14.35 4.08504 14.35 5.89504C14.35 8.39504 16.37 10.415 18.87 10.415C20.38 10.415 21.16 9.94504 21.94 8.83504C21.61 10.245 20.74 11.445 19.56 12.205C19.99 12.675 20.37 13.195 20.67 13.775C22.67 12.445 24 10.165 24 7.58504C24 3.49504 20.67 0.165039 16.58 0.165039C12.49 0.165039 9.48 3.19504 9.19 7.02504C9.86 7.06504 10.52 7.19504 11.13 7.41504V7.42504Z" fill="#445582"/>
</svg>
