<svg width="24" height="24" viewBox="0 0 24 24" fill="none" xmlns="http://www.w3.org/2000/svg">
<path d="M17.96 15.93C16.32 17.24 14.25 18.03 12 18.03C11.96 18.03 11.93 18.03 11.89 18.03L13.96 23.74C14.02 23.9 14.2 23.99 14.37 23.99C14.41 23.99 14.45 23.99 14.49 23.97C14.59 23.94 14.68 23.88 14.73 23.79L16.52 20.68L19.63 22.47C19.72 22.52 19.88 22.52 19.97 22.5C20.08 22.47 20.18 22.4 20.23 22.3C20.28 22.2 20.29 22.08 20.25 21.97L17.96 15.93Z" fill="#445582"/>
<path d="M6.03004 15.93L3.75004 21.97C3.71004 22.08 3.75004 22.2 3.80004 22.3C3.85004 22.4 3.97004 22.48 4.08004 22.51C4.18004 22.53 4.28004 22.51 4.37004 22.47L7.48004 20.68L9.27004 23.79C9.32004 23.88 9.41004 23.95 9.51004 23.97H9.56004C9.56004 23.97 9.63004 24 9.67004 24C9.83004 24 9.98004 23.9 10.04 23.74L11.42 19.93L10.69 17.93C8.94004 17.69 7.34004 16.98 6.03004 15.93Z" fill="#445582"/>
<path d="M12 16.93C7.33004 16.93 3.54004 13.13 3.54004 8.47C3.54004 3.81 7.33004 0 12 0C16.67 0 20.46 3.8 20.46 8.46C20.46 13.12 16.66 16.92 12 16.92V16.93ZM12 1.77C8.31004 1.77 5.30004 4.77 5.30004 8.47C5.30004 12.17 8.30004 15.17 12 15.17C15.7 15.17 18.7 12.17 18.7 8.47C18.7 4.77 15.69 1.77 12 1.77Z" fill="#445582"/>
<path d="M17.08 6.78C17.03 6.62 16.89 6.51 16.72 6.5L13.55 6.31L12.39 3.19C12.27 2.87 11.75 2.87 11.63 3.19L10.47 6.31L7.30004 6.5C7.13004 6.51 6.99004 6.62 6.94004 6.78C6.89004 6.94 6.94004 7.11 7.06004 7.22L9.53004 9.35L8.72004 12.61C8.68004 12.77 8.74004 12.95 8.88004 13.04C8.95004 13.09 9.03004 13.11 9.11004 13.11C9.19004 13.11 9.27004 13.09 9.34004 13.04L12.01 11.24L14.68 13.04C14.75 13.09 14.83 13.11 14.91 13.11H14.92C15.15 13.11 15.33 12.93 15.33 12.7C15.33 12.63 15.31 12.56 15.28 12.51L14.49 9.35L16.96 7.22C17.09 7.11 17.13 6.94 17.08 6.78Z" fill="#445582"/>
</svg>
