<svg width="24" height="24" viewBox="0 0 24 24" fill="none" xmlns="http://www.w3.org/2000/svg">
<path d="M22.9549 19.9052C21.7949 16.9652 20.0649 14.5052 17.6749 12.3652C17.2749 12.0052 16.9049 11.6652 16.5549 11.3352C16.0149 10.8252 15.4949 10.3352 14.8849 9.8352C16.0549 9.0152 17.0449 8.0352 17.9349 7.16519C19.3649 5.76519 20.0549 4.4852 20.0549 3.2552C20.0549 2.7652 19.9449 2.2952 19.7249 1.8752C19.3149 1.0852 18.5049 0.555195 17.2349 0.265195C16.1049 -0.0148047 15.0049 0.00519531 14.6949 0.00519531H3.70494C3.61494 0.00519531 3.15494 0.00519532 2.60494 0.185195C1.82494 0.435195 1.26494 0.905195 0.964941 1.5552C0.864941 1.7852 0.814941 2.0252 0.814941 2.2652C0.814941 2.8752 1.12494 3.4352 1.74494 3.9752C2.10494 4.2852 2.48494 4.5152 2.66494 4.6352L2.74494 4.68519C3.51494 5.17519 4.29494 5.6552 5.07494 6.1352C5.91494 6.6552 6.76494 7.18519 7.60494 7.7152L7.56494 15.6252C7.42494 16.0852 7.25494 16.3852 7.10494 16.6552C7.06494 16.7352 7.01494 16.8052 6.97494 16.8852C6.94494 16.9452 6.90494 17.0152 6.87494 17.0752C6.72494 17.3552 6.57494 17.6352 6.56494 18.0152C6.56494 18.4052 6.76494 18.7552 7.09494 18.9952C7.23494 19.1252 7.39494 19.1952 7.50494 19.2452C7.57494 19.2752 7.63494 19.2952 7.68494 19.3152C7.68494 19.3152 7.74494 19.3352 7.78494 19.3452C7.78494 19.3452 7.78494 19.3452 7.79494 19.3452C7.90494 19.3752 7.99494 19.3752 8.07494 19.3752C8.37494 19.3752 8.80494 19.2752 9.21494 18.7952C9.24494 18.7652 9.41494 18.5552 9.50494 18.3352C9.52494 18.3052 9.53494 18.2752 9.54494 18.2452L9.64494 17.9852C9.83494 17.4952 9.99494 17.0752 10.0449 16.2852C10.0449 16.2352 10.0549 16.1552 10.0649 16.0752C10.0849 15.8652 10.0949 15.7752 10.0949 15.7152L10.2049 13.0052C10.3749 12.8952 10.5749 12.7552 10.8449 12.5752C11.3049 12.2552 11.9149 11.8352 12.5849 11.4252C15.6649 13.7652 17.9449 15.8452 19.6849 18.8452C20.5149 20.2652 20.6049 20.7252 20.5949 20.8652C20.5949 20.8952 20.5949 20.9052 20.5849 20.9352C20.5149 21.0152 20.2949 21.2052 20.1149 21.3152C19.9949 21.3852 19.8449 21.4952 19.7249 21.6252C19.5249 21.8152 19.4049 22.0452 19.3749 22.2852C19.3749 22.3052 19.3749 22.3252 19.3749 22.3452V22.4052C19.3749 22.7852 19.5649 23.1652 19.9349 23.4952C20.2849 23.8152 20.7049 23.9952 21.1149 23.9952C21.2349 23.9952 21.3449 23.9852 21.4449 23.9552C21.9149 23.8252 22.4249 23.2952 22.7049 22.8552C23.0149 22.3552 23.1849 21.7452 23.1849 21.1352C23.1849 20.7252 23.1049 20.3052 22.9449 19.8952L22.9549 19.9052ZM7.62494 3.9252V5.0052C6.50494 4.2752 5.71494 3.6952 5.21494 3.3252C4.86494 3.0652 4.60494 2.8552 4.42494 2.7152C4.28494 2.6052 4.21494 2.5452 4.20494 2.5252C4.17494 2.4952 4.14494 2.4752 4.11494 2.4552H4.10494C4.24494 2.4352 4.41494 2.4452 4.55494 2.4552C4.63494 2.4552 4.70494 2.4552 4.76494 2.4552H14.6349C14.6349 2.4552 14.7749 2.4552 14.9949 2.4752H15.2049C15.5449 2.5152 16.0749 2.5452 16.3449 2.6452C16.7749 2.7852 17.0149 3.0552 17.1049 3.2452C17.1449 3.3252 17.1549 3.4152 17.1549 3.5252C17.1549 3.9452 16.8649 4.5452 16.3749 5.16519C15.8049 5.86519 15.5349 6.18519 14.3949 7.1052C13.9649 7.45519 13.2349 7.9852 12.7649 8.3052C12.1449 7.8752 11.4249 7.4252 10.7249 6.9852C10.5049 6.8452 10.2849 6.7052 10.0649 6.5752V3.9352C10.0549 3.2652 9.51494 2.7152 8.84494 2.7152C8.17494 2.7152 7.62494 3.2652 7.62494 3.9252ZM10.7249 9.8452C10.6449 9.8952 10.5649 9.9552 10.4849 10.0052C10.3449 10.1052 10.2049 10.1952 10.0749 10.2852V9.3652C10.2049 9.4652 10.3349 9.55519 10.4649 9.6552C10.5549 9.7152 10.6349 9.7852 10.7249 9.8452Z" fill="#445582"/>
</svg>
