<svg width="24" height="24" viewBox="0 0 24 24" fill="none" xmlns="http://www.w3.org/2000/svg">
<path d="M11.5491 16.56L17.6067 7.71838L17.5971 7.70878C17.8467 7.34398 17.9235 6.94078 17.8467 6.50878C17.7699 6.05758 17.5491 5.70238 17.1747 5.45278C16.4163 4.93438 15.4275 5.14558 14.9187 5.88478L10.1379 12.8832L9.02427 11.4144C8.44827 10.7136 7.46907 10.5792 6.73947 11.1168C6.02907 11.6736 5.90427 12.6624 6.44187 13.392L8.90907 16.6272C9.25467 17.0304 9.71547 17.2704 10.2051 17.2704H10.2531C10.7907 17.2608 11.2707 16.992 11.5491 16.56Z" fill="#445582"/>
<path fill-rule="evenodd" clip-rule="evenodd" d="M3.93592 1.91992H20.0639C21.1775 1.91992 22.0799 2.82232 22.0799 3.93592V20.0639C22.0799 21.1775 21.1775 22.0799 20.0639 22.0799H3.93592C2.82232 22.0799 1.91992 21.1775 1.91992 20.0639V3.93592C1.91992 2.82232 2.82232 1.91992 3.93592 1.91992ZM21.0719 3.93592C21.0719 3.37912 20.6207 2.92792 20.0639 2.92792H3.93592C3.37912 2.92792 2.92792 3.37912 2.92792 3.93592V20.0639C2.92792 20.6207 3.37912 21.0719 3.93592 21.0719H20.0639C20.6207 21.0719 21.0719 20.6207 21.0719 20.0639V3.93592Z" fill="#445582"/>
</svg>
