<svg width="24" height="24" viewBox="0 0 24 24" fill="none" xmlns="http://www.w3.org/2000/svg">
<path d="M10.69 10.8301L9.1 14.1001H7.74L4.66 20.4301H1.02L8.56 4.92007C10.35 4.92007 11.77 4.92007 13.55 4.92007L11.96 8.19007H10.61L9.34 10.8301H10.69Z" fill="#445582"/>
<path d="M1.92 16.0701H0L3.98 7.90007H5.9L1.92 16.0701Z" fill="#445582"/>
<path d="M17.82 20.4201H16.44L15.52 15.4601H16.89L17.82 20.4201Z" fill="#445582"/>
<path d="M17.76 15.4601H18.62L19.54 20.4201H18.68L17.76 15.4601Z" fill="#445582"/>
<path d="M18.84 9.45007L18.11 10.9001H16.53L18.18 7.51007C19.27 7.57007 19.34 8.34007 18.84 9.45007ZM19.66 14.1801L21.57 10.2101C23.08 7.15007 22.91 5.17007 19.41 4.94007L20.09 3.57007H16.63C16.32 4.19007 16.14 4.57007 15.95 4.96007H14.8L13.25 8.22007H14.55C14.12 9.11007 13.69 9.99007 13.26 10.8701H11.97L10.42 14.1301H11.54C10.55 16.1701 9.55 18.2401 8.5 20.4301H12.21L15.25 14.1701H19.67L19.66 14.1801Z" fill="#445582"/>
<path d="M22.42 10.9101H24L22.45 14.1801H20.86L22.42 10.9101Z" fill="#445582"/>
</svg>
