<svg width="24" height="24" viewBox="0 0 24 24" fill="none" xmlns="http://www.w3.org/2000/svg">
<path d="M11.9449 -0.000793457C15.4449 -0.000793457 18.2749 2.82921 18.2749 6.32921C18.2749 9.82921 15.4349 12.6592 11.9449 12.6592C8.4549 12.6592 5.6149 9.82921 5.6149 6.32921C5.6149 2.82921 8.4449 -0.000793457 11.9449 -0.000793457Z" fill="#445582"/>
<path d="M15.7549 16.1692C15.6649 15.8292 15.3149 15.6292 14.9749 15.7192L7.1849 17.8092C6.8549 17.8992 6.6449 18.2492 6.7349 18.5792L8.0649 23.5292C8.1549 23.8692 8.5049 24.0692 8.8349 23.9792L16.6249 21.8892C16.9649 21.7992 17.1649 21.4492 17.0749 21.1192L15.7449 16.1692H15.7549ZM14.4949 20.1892C14.6249 20.5892 14.6649 20.9792 14.6249 21.3592L14.1649 21.4792C14.2349 21.1192 14.2249 20.7292 14.1149 20.3392C13.8549 19.3492 13.0749 18.6692 12.2349 18.5992L12.0749 18.2892C13.0949 18.2392 14.1149 18.9992 14.4849 20.1792L14.4949 20.1892ZM11.2049 20.3892L11.5549 19.9192L11.6349 18.3292C11.6349 18.3292 11.6749 18.2892 11.6849 18.3192L12.5449 19.6592L13.0849 19.8892C13.0849 19.8892 13.1049 19.9292 13.0849 19.9392L11.2449 20.4292C11.2449 20.4292 11.2049 20.4092 11.2149 20.3892H11.2049ZM11.3949 17.5592L12.8549 17.5092C12.8549 17.5092 12.8949 17.5492 12.8649 17.5592L11.5649 18.1792C11.5649 18.1792 11.5249 18.1792 11.5249 18.1492L11.3749 17.5992C11.3749 17.5992 11.3749 17.5492 11.3949 17.5492V17.5592ZM11.3849 20.6392L13.0449 20.1992C13.0449 20.1992 13.0749 20.1992 13.0749 20.2192L13.1749 20.6092V20.6292L12.9549 20.9592L13.1549 21.7092C13.1549 21.7092 13.1549 21.7392 13.1349 21.7392L12.0849 22.0192C12.0849 22.0192 12.0549 22.0192 12.0549 21.9992L11.8549 21.2492L11.4949 21.0692V21.0492L11.3749 20.6592C11.3749 20.6492 11.3749 20.6292 11.3949 20.6292L11.3849 20.6392ZM11.2549 18.5292L11.2849 18.8192C10.8749 19.0492 10.5849 19.4392 10.4249 19.9192L10.2949 19.6692C10.4849 19.1792 10.8149 18.7692 11.2549 18.5292ZM10.0249 20.8392L9.6149 20.5792C9.6149 20.5792 9.5949 20.5592 9.6049 20.5392C9.6049 20.5292 9.6249 20.5192 9.6349 20.5192L10.0749 20.5392L9.9949 19.8492C9.9949 19.8492 10.0449 19.7992 10.0649 19.8292L10.3549 20.4592L10.7149 20.2192C10.7149 20.2192 10.7449 20.2192 10.7549 20.2192C10.7649 20.2292 10.7749 20.2492 10.7549 20.2592L10.5449 20.6892L10.9549 20.9492C10.9549 20.9492 10.9749 20.9692 10.9649 20.9892C10.9649 20.9992 10.9449 21.0092 10.9349 21.0092L10.4949 20.9892L10.5749 21.6792C10.5749 21.6792 10.5749 21.7092 10.5449 21.7192C10.5149 21.7292 10.5149 21.7192 10.5049 21.6992L10.2149 21.0692L9.8549 21.3092C9.8549 21.3092 9.8249 21.3092 9.8149 21.3092C9.8049 21.2992 9.7949 21.2792 9.8149 21.2692L10.0249 20.8392Z" fill="#445582"/>
<path d="M17.7749 11.9892C16.2949 13.5092 14.2249 14.4592 11.9449 14.4592C9.6649 14.4592 7.6249 13.5292 6.1449 12.0192C3.6449 13.2892 2.0249 15.6592 2.0249 19.5092V20.1892C2.0249 20.8092 2.5849 21.3192 3.2549 21.3192H6.7449L6.0549 18.7592C5.9649 18.4092 6.0049 18.0492 6.1849 17.7392C6.3649 17.4292 6.6549 17.1992 7.0049 17.1092L14.7949 15.0192C14.9049 14.9892 15.0249 14.9692 15.1449 14.9692C15.7549 14.9692 16.2849 15.3792 16.4449 15.9692L17.7749 20.9192C17.8049 21.0492 17.8049 21.1792 17.8049 21.3092H20.7449C21.4249 21.3092 21.9749 20.7992 21.9749 20.1792V19.4992C21.9749 15.6192 20.3149 13.2392 17.7849 11.9792L17.7749 11.9892Z" fill="#445582"/>
</svg>
