<svg width="24" height="24" viewBox="0 0 24 24" fill="none" xmlns="http://www.w3.org/2000/svg">
<path d="M9.33023 18.9302L11.2102 23.2402C11.3502 23.5502 11.6602 23.7602 12.0002 23.7602C12.3402 23.7602 12.6502 23.5602 12.7902 23.2402L14.6702 18.9302C13.0102 19.5702 10.9902 19.5702 9.33023 18.9302ZM15.0102 18.7902L19.3902 20.5102C19.7102 20.6402 20.0802 20.5502 20.3102 20.3202C20.5502 20.0802 20.6302 19.7202 20.5002 19.4002L18.7802 15.0202C18.0302 16.7002 16.6802 18.0502 15.0102 18.7902ZM5.21023 15.0102L3.49023 19.3902C3.36023 19.7102 3.44023 20.0702 3.68023 20.3102C3.92023 20.5502 4.28023 20.6302 4.60023 20.5002L8.98023 18.7802C7.30023 18.0302 5.95023 16.6802 5.21023 15.0102ZM5.07023 9.33023L0.760234 11.2102C0.450234 11.3502 0.240234 11.6602 0.240234 12.0002C0.240234 12.3402 0.440234 12.6502 0.760234 12.7902L5.07023 14.6702C4.75023 13.8402 4.57023 12.9402 4.57023 12.0002C4.57023 11.0602 4.75023 10.1602 5.07023 9.33023ZM18.9302 9.33023C19.2502 10.1602 19.4302 11.0602 19.4302 12.0002C19.4302 12.9402 19.2502 13.8402 18.9302 14.6702L23.2402 12.7902C23.5502 12.6502 23.7602 12.3402 23.7602 12.0002C23.7602 11.6602 23.5602 11.3502 23.2402 11.2102L18.9302 9.33023ZM4.29023 3.43023C4.06023 3.43023 3.84023 3.52023 3.68023 3.68023C3.44023 3.92023 3.36023 4.28023 3.49023 4.60023L5.21023 8.98023C5.96023 7.30023 7.31023 5.95023 8.98023 5.21023L4.60023 3.49023C4.50023 3.45023 4.39023 3.43023 4.29023 3.43023ZM15.0102 5.21023C16.6902 5.96023 18.0402 7.31023 18.7802 8.98023L20.5002 4.60023C20.6302 4.28023 20.5502 3.92023 20.3102 3.68023C20.0702 3.44023 19.7002 3.37023 19.3902 3.49023L15.0102 5.21023ZM12.0002 0.240234C11.6602 0.240234 11.3502 0.440234 11.2102 0.760234L9.33023 5.07023C10.9902 4.43023 13.0102 4.43023 14.6602 5.07023L12.7802 0.760234C12.6402 0.450234 12.3302 0.240234 11.9902 0.240234H12.0002Z" fill="#445582"/>
<path d="M12.0002 17.3202C9.07023 17.3202 6.68023 14.9302 6.68023 12.0002C6.68023 9.07023 9.07023 6.68023 12.0002 6.68023C14.9302 6.68023 17.3202 9.07023 17.3202 12.0002C17.3202 14.9302 14.9302 17.3202 12.0002 17.3202Z" fill="#445582"/>
</svg>
