<svg width="24" height="24" viewBox="0 0 24 24" fill="none" xmlns="http://www.w3.org/2000/svg">
<path d="M17.8399 12C17.8399 15.23 15.2199 17.84 11.9999 17.84C8.77986 17.84 6.15986 15.23 6.15986 12C6.15986 8.77 8.77986 6.16 11.9999 6.16C15.2199 6.16 17.8399 8.78 17.8399 12Z" fill="#445582"/>
<path d="M11.9999 5.16C11.3499 5.16 10.8199 4.63 10.8199 3.98V1.17C10.8199 0.52 11.3499 0 11.9999 0C12.6499 0 13.1799 0.53 13.1799 1.17V3.98C13.1799 4.63 12.6499 5.16 11.9999 5.16Z" fill="#445582"/>
<path d="M11.9999 24C11.3499 24 10.8199 23.47 10.8199 22.83V20.02C10.8199 19.37 11.3499 18.85 11.9999 18.85C12.6499 18.85 13.1799 19.37 13.1799 20.02V22.83C13.1799 23.48 12.6499 24 11.9999 24Z" fill="#445582"/>
<path d="M22.7099 13.18H19.8999C19.2499 13.18 18.7299 12.65 18.7299 12C18.7299 11.35 19.2599 10.82 19.8999 10.82H22.7099C23.3599 10.82 23.8899 11.35 23.8899 12C23.8899 12.65 23.3599 13.18 22.7099 13.18Z" fill="#445582"/>
<path d="M4.09986 13.18H1.27986C0.629863 13.18 0.109863 12.65 0.109863 12C0.109863 11.35 0.639863 10.82 1.27986 10.82H4.08986C4.73986 10.82 5.25986 11.35 5.25986 12C5.25986 12.65 4.72986 13.18 4.08986 13.18H4.09986Z" fill="#445582"/>
<path d="M7.98986 6.23C7.57986 6.23 7.18986 6.02 6.96986 5.64L5.55986 3.21C5.23986 2.65 5.42986 1.93 5.98986 1.61C6.54986 1.28 7.26986 1.48 7.58986 2.04L8.99986 4.47C9.31986 5.03 9.12986 5.75 8.56986 6.07C8.38986 6.18 8.17986 6.23 7.97986 6.23H7.98986Z" fill="#445582"/>
<path d="M17.4099 22.55C16.9999 22.55 16.6099 22.34 16.3899 21.96L14.9799 19.52C14.6599 18.96 14.8499 18.24 15.4099 17.91C15.9699 17.59 16.6899 17.78 17.0199 18.34L18.4299 20.78C18.7499 21.34 18.5599 22.06 17.9999 22.38C17.8199 22.49 17.6099 22.54 17.4099 22.54V22.55Z" fill="#445582"/>
<path d="M18.8399 9.22C18.4299 9.22 18.0399 9.01 17.8199 8.63C17.4999 8.07 17.6899 7.35 18.2499 7.03L20.6799 5.62C21.2399 5.29 21.9599 5.49 22.2899 6.05C22.6099 6.61 22.4199 7.33 21.8599 7.66L19.4299 9.06C19.2399 9.17 19.0399 9.22 18.8399 9.22Z" fill="#445582"/>
<path d="M2.71986 18.53C2.30986 18.53 1.91986 18.32 1.69986 17.94C1.37986 17.38 1.56986 16.66 2.12986 16.33L4.55986 14.93C5.11986 14.61 5.83986 14.8 6.15986 15.36C6.47986 15.92 6.28986 16.64 5.72986 16.97L3.29986 18.37C3.11986 18.48 2.90986 18.53 2.70986 18.53H2.71986Z" fill="#445582"/>
<path d="M5.05986 9.17C4.85986 9.17 4.65986 9.12 4.46986 9.01L2.02986 7.61C1.46986 7.29 1.26986 6.57 1.59986 6.01C1.91986 5.45 2.63986 5.26 3.20986 5.58L5.64986 6.98C6.20986 7.3 6.40986 8.02 6.07986 8.58C5.85986 8.96 5.46986 9.17 5.05986 9.17Z" fill="#445582"/>
<path d="M21.3699 18.59C21.1699 18.59 20.9699 18.54 20.7799 18.43L18.3499 17.03C17.7899 16.7 17.5999 15.99 17.9199 15.42C18.2399 14.86 18.9599 14.67 19.5199 14.99L21.9499 16.4C22.5099 16.72 22.6999 17.44 22.3799 18C22.1599 18.38 21.7699 18.59 21.3599 18.59H21.3699Z" fill="#445582"/>
<path d="M15.9499 6.33C15.7499 6.33 15.5499 6.28 15.3599 6.17C14.7999 5.85 14.6099 5.13 14.9299 4.56L16.3299 2.12C16.6499 1.56 17.3699 1.36 17.9399 1.69C18.4999 2.02 18.6899 2.73 18.3699 3.29L16.9599 5.73C16.7399 6.11 16.3499 6.32 15.9399 6.32L15.9499 6.33Z" fill="#445582"/>
<path d="M6.63986 22.45C6.43986 22.45 6.23986 22.4 6.04986 22.29C5.48986 21.96 5.29986 21.25 5.61986 20.68L7.02986 18.25C7.34986 17.69 8.06986 17.5 8.62986 17.82C9.18986 18.15 9.37986 18.86 9.05986 19.43L7.64986 21.86C7.42986 22.24 7.03986 22.45 6.62986 22.45H6.63986Z" fill="#445582"/>
</svg>
