<svg width="24" height="24" viewBox="0 0 24 24" fill="none" xmlns="http://www.w3.org/2000/svg">
<path d="M8.65802 11.601C7.64802 12.601 7.64802 14.241 8.65802 15.251C9.65802 16.261 11.298 16.261 12.308 15.251C13.318 14.251 13.318 12.611 12.308 11.601C11.308 10.591 9.66802 10.591 8.65802 11.601ZM11.248 13.711C10.888 14.071 10.308 14.071 9.95802 13.711C9.59802 13.351 9.59802 12.771 9.95802 12.421C10.318 12.071 10.898 12.061 11.248 12.421C11.608 12.781 11.608 13.361 11.248 13.711Z" fill="#445582"/>
<path d="M22.738 3.33098L13.948 12.101L20.868 13.251L23.728 4.48098C23.758 4.39098 23.728 4.30098 23.668 4.24098L22.748 3.32098L22.738 3.33098Z" fill="#445582"/>
<path d="M19.678 0.260978C19.618 0.200978 19.518 0.170978 19.438 0.200978L10.788 2.93098C8.71802 2.87098 6.68802 3.44098 4.95802 4.52098C5.10802 4.70098 5.30802 4.96098 5.60802 5.34098C6.03802 5.90098 6.61802 6.64098 7.18802 7.39098L9.43802 10.301C9.76802 10.191 10.118 10.131 10.488 10.131C10.828 10.131 11.158 10.181 11.478 10.281L20.508 1.25098C20.508 1.25098 20.568 1.20098 20.598 1.19098L19.668 0.260978H19.678ZM11.328 8.17098C11.328 8.24098 11.278 8.29098 11.208 8.29098H9.99802C9.92802 8.29098 9.87802 8.24098 9.87802 8.17098V7.44098C9.87802 7.37098 9.92802 7.32098 9.99802 7.32098H11.208C11.278 7.32098 11.328 7.37098 11.328 7.44098V8.17098ZM12.578 6.59098H8.61802V4.67098H12.578V6.59098Z" fill="#445582"/>
<path d="M13.278 11.761L20.248 4.79098L19.118 3.66098L12.138 10.621L13.278 11.761Z" fill="#445582"/>
<path d="M8.14802 11.091C8.33802 10.901 8.53802 10.751 8.75802 10.611C7.96802 9.59098 4.30802 4.85098 4.30802 4.85098C3.14802 4.85098 2.20802 5.78098 2.19802 6.94098L7.90802 11.361C7.97802 11.271 8.05802 11.181 8.14802 11.101V11.091Z" fill="#445582"/>
<path d="M18.378 19.101L13.278 15.161C13.148 15.371 12.988 15.581 12.808 15.761C12.728 15.841 12.638 15.921 12.558 15.991L17.008 21.781C17.008 21.781 17.028 21.781 17.038 21.781C18.198 21.781 19.138 20.851 19.148 19.691L18.388 19.111L18.378 19.101Z" fill="#445582"/>
<path d="M11.948 16.381C11.728 16.491 11.498 16.571 11.258 16.631V23.111H10.538V16.721C10.538 16.721 10.498 16.721 10.478 16.721C9.59802 16.721 8.76802 16.381 8.14802 15.751C7.52802 15.131 7.18802 14.301 7.18802 13.421C7.18802 13.401 7.18802 13.381 7.18802 13.361H0.788017V12.641H7.27802C7.33802 12.411 7.41802 12.181 7.51802 11.971L1.85802 7.59098C-0.881983 11.671 -0.381983 17.261 3.11802 20.771C5.12802 22.781 7.81802 23.811 10.518 23.811C12.538 23.811 14.558 23.231 16.308 22.061L11.948 16.381ZM7.90802 18.511C8.18802 18.231 8.64802 18.231 8.93802 18.511C9.21802 18.791 9.21802 19.251 8.93802 19.541C8.65802 19.821 8.19802 19.821 7.90802 19.541C7.62802 19.261 7.62802 18.801 7.90802 18.511ZM4.38802 14.991C4.66802 14.711 5.12802 14.711 5.41802 14.991C5.69802 15.271 5.69802 15.731 5.41802 16.021C5.13802 16.301 4.67802 16.301 4.38802 16.021C4.10802 15.741 4.10802 15.281 4.38802 14.991ZM0.828017 14.081H2.26802C2.33802 14.971 2.57802 15.861 2.94802 16.691L1.87802 17.761C1.27802 16.601 0.908017 15.351 0.828017 14.081ZM3.68802 20.251C3.18802 19.751 2.75802 19.201 2.38802 18.631L3.42802 17.591C3.78802 18.181 4.20802 18.741 4.70802 19.241C5.19802 19.731 5.73802 20.151 6.30802 20.501L5.26802 21.541C4.70802 21.171 4.16802 20.741 3.68802 20.261V20.251ZM9.81802 23.121C8.53802 23.031 7.27802 22.651 6.11802 22.041L7.18802 20.971C8.02802 21.361 8.91802 21.601 9.81802 21.681V23.121Z" fill="#445582"/>
<path d="M23.808 13.401L23.038 12.621C22.968 12.551 22.878 12.531 22.788 12.561L20.868 13.251L22.048 14.481C21.768 14.481 21.508 14.591 21.308 14.751L20.498 13.931L13.728 12.801C13.828 13.361 13.788 13.941 13.608 14.481L19.398 18.961C19.688 18.401 19.928 17.831 20.118 17.241L21.378 16.701C21.578 16.841 21.818 16.931 22.088 16.931C22.768 16.931 23.308 16.381 23.308 15.711C23.308 15.541 23.278 15.381 23.218 15.241L23.878 13.671C23.918 13.581 23.898 13.481 23.828 13.411L23.808 13.401ZM22.068 16.431C21.668 16.431 21.338 16.101 21.338 15.701C21.338 15.301 21.668 14.971 22.068 14.971C22.468 14.971 22.798 15.301 22.798 15.701C22.798 16.101 22.468 16.431 22.068 16.431Z" fill="#445582"/>
</svg>
