<svg width="24" height="24" viewBox="0 0 24 24" fill="none" xmlns="http://www.w3.org/2000/svg">
<path d="M20.6595 1.58817C20.5895 1.30817 20.2995 1.14817 20.0295 1.21817L1.97951 6.05817C1.84951 6.09817 1.72951 6.17817 1.66951 6.29817C1.59951 6.41817 1.57951 6.55817 1.61951 6.68817L2.75951 10.9282C2.82951 11.2082 3.11951 11.3682 3.38951 11.2982L9.27951 9.71817L12.6795 22.4182C12.7395 22.6482 12.9495 22.7982 13.1795 22.7982C13.2195 22.7982 13.2695 22.7982 13.3095 22.7782L18.5595 21.3682C18.6895 21.3282 18.8095 21.2482 18.8695 21.1282C18.9395 21.0082 18.9595 20.8682 18.9195 20.7382L15.5195 8.03817L21.4095 6.45817C21.5395 6.41817 21.6595 6.33817 21.7195 6.21817C21.7895 6.09817 21.8095 5.95817 21.7695 5.82817L20.6295 1.58817H20.6595Z" fill="#445582"/>
<path d="M3.55951 14.7782C3.50951 14.5282 3.64951 14.4182 3.87951 14.5282L5.06951 15.0982C5.28951 15.2082 5.65951 15.1982 5.87951 15.0782L7.01951 14.4282C7.23951 14.3082 7.38951 14.4082 7.35951 14.6582L7.18951 15.9582C7.15951 16.2082 7.27951 16.5482 7.46951 16.7182L8.44951 17.5982C8.63951 17.7682 8.58951 17.9382 8.33951 17.9882L7.04951 18.2182C6.79951 18.2582 6.51951 18.4782 6.40951 18.7082L5.86951 19.8982C5.76951 20.1282 5.57951 20.1382 5.45951 19.9082L4.82951 18.7482C4.70951 18.5282 4.40951 18.3282 4.15951 18.2982L2.84951 18.1482C2.59951 18.1182 2.53951 17.9482 2.70951 17.7682L3.61951 16.8282C3.78951 16.6482 3.88951 16.2982 3.83951 16.0482L3.56951 14.7682L3.55951 14.7782Z" fill="#445582"/>
<path d="M22.3095 11.6282C22.4395 11.7082 22.4295 11.8182 22.2895 11.8682L21.5495 12.1582C21.4095 12.2182 21.2695 12.3782 21.2295 12.5282L21.0595 13.2982C21.0295 13.4482 20.9195 13.4682 20.8195 13.3582L20.3095 12.7482C20.2095 12.6282 20.0095 12.5482 19.8495 12.5582L19.0595 12.6282C18.9095 12.6382 18.8495 12.5482 18.9295 12.4182L19.3495 11.7482C19.4295 11.6182 19.4495 11.3982 19.3895 11.2582L19.0695 10.5282C19.0095 10.3882 19.0795 10.3082 19.2295 10.3382L19.9995 10.5382C20.1495 10.5782 20.3595 10.5282 20.4795 10.4282L21.0795 9.90817C21.1895 9.80817 21.2995 9.84817 21.3095 9.99817L21.3595 10.7882C21.3595 10.9382 21.4895 11.1282 21.6195 11.2082L22.3095 11.6182V11.6282Z" fill="#445582"/>
</svg>
