<svg width="24" height="24" viewBox="0 0 24 24" fill="none" xmlns="http://www.w3.org/2000/svg">
<path d="M10.5149 12.005C10.5149 12.005 10.5149 12.005 10.5349 12.005H10.5549C10.5649 11.995 10.5649 11.975 10.5549 11.965C9.86485 10.895 10.0049 9.57501 10.8849 8.88501C11.2349 8.61501 11.6649 8.47501 12.1249 8.47501C12.5549 8.47501 12.9948 8.60501 13.3948 8.83501C13.4048 8.84501 13.4249 8.83501 13.4349 8.83501C13.4349 8.82501 13.4349 8.80501 13.4349 8.78501C12.0749 7.66501 10.3449 7.04501 8.57487 7.04501C6.80487 7.04501 5.07486 7.66501 3.71486 8.78501C3.70486 8.79501 3.69486 8.81501 3.71486 8.83501C3.72486 8.84501 3.74487 8.85501 3.76487 8.83501C4.16487 8.59501 4.59486 8.47501 5.03486 8.47501C5.49486 8.47501 5.92485 8.61501 6.27485 8.88501C7.15485 9.56501 7.29487 10.895 6.60487 11.965C6.60487 11.975 6.60487 11.995 6.60487 12.005C6.61487 12.005 6.63485 12.015 6.64485 12.005C7.22485 11.645 7.89485 11.455 8.58485 11.455C9.27485 11.455 9.93485 11.645 10.5249 12.005H10.5149Z" fill="#445582"/>
<path d="M4.89484 15.125C4.89484 14.355 5.12486 13.625 5.57486 13.005C5.57486 12.995 5.57486 12.975 5.57486 12.965C5.56486 12.955 5.54485 12.955 5.53485 12.965C5.18485 13.145 4.79484 13.245 4.42484 13.245C3.96484 13.245 3.53484 13.105 3.18484 12.835C2.31484 12.155 2.16486 10.845 2.82486 9.78501C2.82486 9.77501 2.82486 9.75501 2.82486 9.74501C2.81486 9.73501 2.79484 9.74501 2.77484 9.74501C1.62484 11.105 0.984863 12.835 0.984863 14.615C0.984863 15.885 1.35484 17.315 1.99484 18.455C2.05484 18.515 2.13485 18.555 2.25485 18.555C2.38485 18.555 2.51485 18.515 2.56485 18.505C2.78485 18.445 2.91485 18.355 3.00485 18.205L3.03485 18.165L3.06485 18.205C3.19485 18.435 3.47486 18.575 3.82486 18.575C4.22486 18.575 4.52483 18.445 4.70483 18.205C4.71483 18.185 4.73485 18.165 4.75485 18.145C4.76485 18.165 4.77485 18.185 4.78485 18.195C4.92485 18.385 5.13484 18.565 5.64484 18.565C6.02484 18.565 6.34486 18.375 6.48486 18.195C6.48486 18.195 6.48486 18.175 6.48486 18.165C6.48486 18.165 6.48485 18.155 6.47485 18.145C5.48485 17.455 4.90485 16.335 4.90485 15.145L4.89484 15.125Z" fill="#445582"/>
<path d="M16.2448 1.78501C16.2448 1.78501 16.2549 1.78501 16.2649 1.78501L18.3648 1.22501C18.3648 1.22501 18.4248 1.18501 18.4248 1.14501C18.4248 1.10501 18.4048 1.07501 18.3648 1.06501L16.2649 0.475006C16.2649 0.475006 16.2149 0.475006 16.1949 0.485006C16.1749 0.495006 16.1649 0.525006 16.1649 0.545006V1.69501C16.1649 1.69501 16.1649 1.74501 16.1949 1.75501C16.2049 1.76501 16.2248 1.77501 16.2448 1.77501V1.78501Z" fill="#445582"/>
<path d="M22.9548 13.385L20.8549 12.795C20.8549 12.795 20.8049 12.795 20.7849 12.805C20.7649 12.815 20.7549 12.845 20.7549 12.865V14.015C20.7549 14.015 20.7649 14.065 20.7849 14.075C20.7949 14.085 20.8148 14.095 20.8348 14.095H20.8549L22.9548 13.535C22.9548 13.535 23.0149 13.495 23.0149 13.465C23.0149 13.425 22.9948 13.395 22.9548 13.385Z" fill="#445582"/>
<path d="M22.1248 19.715C22.1848 19.525 22.3948 19.505 22.4048 19.505C22.4348 19.505 22.4548 19.475 22.4548 19.445V18.345C22.4548 18.345 22.4348 18.285 22.3948 18.285H21.6649V17.495H22.0149C22.0149 17.495 22.0749 17.475 22.0749 17.435C22.0749 17.415 22.0748 17.405 22.0548 17.395C21.6148 16.715 20.9948 14.975 20.9948 14.435V14.345C20.9948 14.345 20.9648 14.285 20.9348 14.285H20.7849C20.7849 14.285 20.7249 14.315 20.7249 14.345V14.435C20.7249 14.945 20.3448 16.455 19.9548 17.225V14.945H20.1049C20.1049 14.945 20.1649 14.925 20.1649 14.885V14.315C20.1649 14.315 20.1648 14.295 20.1548 14.285C20.1548 14.285 20.1649 14.285 20.1649 14.275C20.1649 14.265 20.1649 14.255 20.1649 14.245L19.2349 10.605C19.2349 10.605 19.1348 10.555 19.1248 10.605L18.2048 14.255C18.2048 14.255 18.2048 14.295 18.2048 14.305C18.2048 14.305 18.1949 14.305 18.1949 14.325V14.895C18.1949 14.895 18.2149 14.955 18.2549 14.955H18.4149V15.845H17.5248V8.93501H17.7148C17.7148 8.93501 17.7649 8.91501 17.7649 8.87501V8.18501C17.7649 8.18501 17.7649 8.16501 17.7649 8.15501C17.1349 7.17501 16.5448 2.70501 16.5248 2.03501C16.5248 2.00501 16.4948 1.98501 16.4648 1.98501H16.2249C16.2249 1.98501 16.1649 2.01501 16.1649 2.04501C16.1549 2.65501 15.5049 7.11501 14.8549 8.11501C14.8549 8.11501 14.8549 8.13501 14.8549 8.14501V8.88501C14.8549 8.88501 14.8748 8.94501 14.9048 8.94501H15.1148V13.055H14.7448L14.1548 10.855C14.1548 10.855 14.1249 10.815 14.1049 10.815H12.3549C12.3549 10.815 12.3048 10.835 12.3048 10.855L11.6248 13.895L10.9849 12.605C10.9849 12.605 10.9548 12.575 10.9248 12.575C10.9048 12.575 10.8848 12.595 10.8748 12.615L10.0648 15.155V15.615C10.0648 15.615 10.0648 15.645 10.0848 15.655L10.4648 16.045V16.685H9.93484C9.80484 16.465 8.87485 14.905 8.81485 14.375C8.81485 14.345 8.78486 14.325 8.76486 14.325H8.60486C8.60486 14.325 8.55486 14.345 8.54486 14.375C8.49486 14.905 7.80483 16.425 7.45483 16.845C7.44483 16.865 7.43483 16.885 7.45483 16.905C7.45483 16.925 7.48485 16.935 7.50485 16.935H8.01486V18.305H7.25485C7.25485 18.305 7.19485 18.335 7.19485 18.365V19.465C7.19485 19.465 7.19484 19.495 7.21484 19.505C7.22484 19.515 7.24486 19.515 7.26486 19.515C7.26486 19.515 7.27486 19.515 7.29486 19.515C7.36486 19.515 7.49485 19.555 7.56485 19.805C7.66485 20.115 7.06484 22.545 6.83484 23.455C6.83484 23.475 6.83484 23.495 6.83484 23.505C6.83484 23.515 6.86485 23.525 6.87485 23.525H22.7448C22.7448 23.525 22.7749 23.525 22.7949 23.505C22.7949 23.495 22.8049 23.475 22.7949 23.455C22.1949 21.525 22.0348 19.985 22.1148 19.735L22.1248 19.715Z" fill="#445582"/>
</svg>
