<svg width="24" height="24" viewBox="0 0 24 24" fill="none" xmlns="http://www.w3.org/2000/svg">
<path d="M1.43994 17.0101V19.1501C1.43994 20.1201 2.23994 20.9201 3.19994 20.9201H20.7899C21.7599 20.9201 22.5599 20.1301 22.5599 19.1501V17.0101H1.43994Z" fill="#445582"/>
<path d="M22.5599 6.65008V4.85008C22.5599 3.88008 21.7699 3.08008 20.7899 3.08008H13.2899V6.65008H22.5599Z" fill="#445582"/>
<path d="M22.5599 10.2201H13.2999V13.7901H22.5599V10.2201Z" fill="#445582"/>
<path d="M3.19994 3.12008C2.22994 3.12008 1.43994 3.91008 1.43994 4.89008V13.7901H12.0699V3.12008H3.19994ZM10.0499 7.83008L8.93994 8.91008C8.72994 9.12008 8.59994 9.53008 8.64994 9.82008L8.90994 11.3401C8.95994 11.6301 8.78994 11.7601 8.52994 11.6201L7.15994 10.9001C6.89994 10.7601 6.46994 10.7601 6.20994 10.9001L4.83994 11.6201C4.57994 11.7601 4.39994 11.6301 4.45994 11.3401L4.71994 9.82008C4.76994 9.53008 4.63994 9.12008 4.42994 8.91008L3.31994 7.83008C3.10994 7.62008 3.17994 7.42008 3.46994 7.38008L4.99994 7.16008C5.28994 7.12008 5.63994 6.86008 5.76994 6.60008L6.44994 5.21008C6.57994 4.94008 6.79994 4.94008 6.92994 5.21008L7.60994 6.60008C7.73994 6.86008 8.08994 7.11008 8.37994 7.16008L9.90994 7.38008C10.1999 7.43008 10.2699 7.63008 10.0599 7.83008H10.0499Z" fill="#445582"/>
</svg>
