<svg width="24" height="24" viewBox="0 0 24 24" fill="none" xmlns="http://www.w3.org/2000/svg">
<path d="M2.06488 21.6501C0.924883 21.6501 0.00488281 20.7301 0.00488281 19.5901V9.25009C0.00488281 8.68009 0.234883 8.12009 0.644883 7.72009C1.03488 7.33009 1.53488 7.12009 2.06488 7.12009H17.1549C17.7049 7.12009 18.2249 7.34009 18.6149 7.73009C19.0049 8.12009 19.2149 8.64009 19.2149 9.19009V19.5801C19.2149 20.7201 18.2949 21.6401 17.1549 21.6401L2.06488 21.6601V21.6501ZM2.24488 9.36009V19.4001L16.9649 19.3801V9.36009H2.24488Z" fill="#445582"/>
<path d="M21.9349 16.8401C21.3149 16.8401 20.8149 16.3401 20.8149 15.7201C20.8149 15.1601 21.2249 14.7001 21.7549 14.6101V4.58009H7.02488C6.96488 5.15009 6.48488 5.59009 5.90488 5.59009C5.28488 5.59009 4.78488 5.09009 4.78488 4.47009C4.78488 3.90009 5.01488 3.34009 5.42488 2.94009C5.81488 2.55009 6.31488 2.34009 6.84488 2.34009H21.9349C22.4849 2.34009 23.0049 2.55009 23.3949 2.94009C23.7849 3.33009 23.9949 3.85009 23.9949 4.40009V14.7901C23.9949 15.9301 23.0749 16.8501 21.9349 16.8501V16.8401Z" fill="#445582"/>
</svg>
