<svg width="24" height="24" viewBox="0 0 24 24" fill="none" xmlns="http://www.w3.org/2000/svg">
<path d="M6.85846 11.48C9.45846 11.48 10.2985 8.97998 10.2985 7.75998C10.2985 6.96998 10.9385 6.31999 11.7385 6.31999H14.5985V4.87999C14.5985 4.52999 14.9685 4.31999 15.1785 4.48999L18.4085 7.31999C18.6185 7.48999 18.6485 7.92999 18.4385 8.09999L15.1685 10.93C14.9585 11.1 14.6085 10.88 14.6085 10.54V9.19998H13.0185C12.5385 11.33 11.0285 13.6 8.29846 14.2V18.13C8.29846 18.92 7.65846 19.57 6.85846 19.57C6.05846 19.57 5.41846 18.93 5.41846 18.13V12.92C5.41846 12.13 6.05846 11.48 6.85846 11.48Z" fill="#445582"/>
</svg>
