<svg width="24" height="24" viewBox="0 0 24 24" fill="none" xmlns="http://www.w3.org/2000/svg">
<path d="M8.00887 8.77587C9.33887 8.77587 10.0089 8.49587 10.8689 7.58587C11.1389 7.30587 11.5089 7.13587 11.8989 7.13587C12.2989 7.11587 12.6589 7.28587 12.9389 7.55587L15.4989 10.1159L16.4389 9.17586C16.6789 8.93586 17.0989 9.03587 17.1289 9.30587L17.4089 13.5859C17.4389 13.8559 17.1489 14.1859 16.8789 14.1559L12.5689 13.8459C12.2989 13.8159 12.1989 13.4159 12.4489 13.1659L13.4789 12.1359L11.8789 10.5359C11.1489 11.0559 10.3789 11.3759 9.46886 11.5359V15.4259C9.46886 16.2159 8.82887 16.8659 8.02887 16.8659C7.22887 16.8659 6.58887 16.2259 6.58887 15.4259V10.2159C6.58887 9.42587 7.22887 8.77587 8.02887 8.77587H8.00887Z" fill="#445582"/>
</svg>
