<svg width="24" height="24" viewBox="0 0 24 24" fill="none" xmlns="http://www.w3.org/2000/svg">
<path d="M9.26303 2.90002C12.313 2.90002 14.863 5.03004 15.523 7.88004H16.913V6.46004C16.913 6.11004 17.283 5.90004 17.493 6.07004L20.973 8.90002C21.183 9.07002 21.213 9.51002 21.003 9.68002L17.483 12.51C17.273 12.68 16.923 12.46 16.923 12.12V10.76H14.253C13.463 10.76 12.813 10.12 12.813 9.32004C12.813 7.37004 11.223 5.78003 9.27301 5.78003C7.32301 5.78003 5.73303 7.37004 5.73303 9.32004C5.73303 11.27 7.32301 12.86 9.27301 12.86C10.063 12.86 10.713 13.5 10.713 14.3V19.66C10.713 20.45 10.073 21.1 9.27301 21.1C8.47301 21.1 7.83301 20.46 7.83301 19.66V15.58C4.98301 14.92 2.85303 12.37 2.85303 9.32004C2.85303 5.78004 5.73301 2.90002 9.27301 2.90002H9.26303Z" fill="#445582"/>
</svg>
