<svg width="24" height="24" viewBox="0 0 24 24" fill="none" xmlns="http://www.w3.org/2000/svg">
<path d="M22.512 6.71002C22.122 3.39002 19.122 1.65002 16.362 1.65002C14.622 1.65002 13.072 2.31002 11.992 3.50002C10.912 2.32002 9.36196 1.65002 7.62196 1.65002C4.86196 1.65002 1.86196 3.39002 1.47196 6.71002C1.33196 7.86002 1.56196 9.51002 2.01196 10.62C2.82196 12.64 4.79196 15.25 6.38196 16.93C7.76196 18.4 9.07196 19.75 10.272 20.94L10.802 21.46C11.092 21.74 11.362 22.01 11.462 22.11C11.572 22.26 11.752 22.35 11.942 22.35H12.072C12.262 22.35 12.442 22.26 12.552 22.11C12.652 22.01 12.942 21.72 13.232 21.43L13.742 20.93C14.922 19.74 16.232 18.39 17.622 16.92C19.212 15.24 21.182 12.64 21.992 10.61C22.442 9.50002 22.662 7.86002 22.532 6.70002L22.512 6.71002ZM16.322 11.93L11.962 18.84C11.962 18.84 11.892 18.9 11.852 18.9C11.832 18.9 11.822 18.9 11.802 18.9C11.742 18.88 11.712 18.81 11.732 18.75L12.702 14.43H10.492C10.492 14.43 10.412 14.41 10.382 14.38C10.362 14.35 10.352 14.3 10.362 14.27L11.202 11.49H8.93196C8.93196 11.49 8.85196 11.47 8.83196 11.44C8.81196 11.41 8.80196 11.37 8.81196 11.33L10.592 5.43002C10.612 5.38002 10.662 5.34002 10.712 5.34002H13.292C13.292 5.34002 13.372 5.36002 13.392 5.39002C13.422 5.42002 13.422 5.47002 13.412 5.50002L12.572 8.28003H14.842C14.842 8.28003 14.922 8.30002 14.942 8.33002C14.962 8.36002 14.972 8.40002 14.962 8.44002L13.962 11.74H16.192C16.192 11.74 16.282 11.77 16.302 11.81C16.322 11.85 16.322 11.9 16.302 11.94L16.322 11.93Z" fill="#445582"/>
</svg>
