<svg width="24" height="24" viewBox="0 0 24 24" fill="none" xmlns="http://www.w3.org/2000/svg">
<path d="M1.43994 11.9999C1.43994 17.8299 6.16994 22.5599 11.9999 22.5599C17.8299 22.5599 22.5599 17.8299 22.5599 11.9999C22.5599 6.16994 17.8299 1.43994 11.9999 1.43994C6.16994 1.43994 1.43994 6.16994 1.43994 11.9999ZM7.74994 11.0199L12.3699 6.39994C12.6299 6.13994 12.9799 5.99994 13.3499 5.99994C13.7199 5.99994 14.0699 6.13994 14.3299 6.39994C14.5899 6.65994 14.7299 7.00994 14.7299 7.37994C14.7299 7.74994 14.5899 8.09994 14.3299 8.35994L10.6899 11.9999L14.3299 15.6399C14.5899 15.8999 14.7299 16.2499 14.7299 16.6199C14.7299 16.9899 14.5899 17.3399 14.3299 17.5999C14.0699 17.8599 13.7199 17.9999 13.3499 17.9999C12.9799 17.9999 12.6299 17.8599 12.3699 17.5899L7.75994 12.9699C7.49994 12.7099 7.34994 12.3599 7.34994 11.9899C7.34994 11.6199 7.48994 11.2699 7.75994 11.0099L7.74994 11.0199Z" fill="#445582"/>
</svg>
