<svg width="24" height="24" viewBox="0 0 24 24" fill="none" xmlns="http://www.w3.org/2000/svg">
<path d="M23.9468 4.12156C23.9468 2.73156 22.8168 1.60156 21.4268 1.60156L13.6668 1.64156C12.9968 1.64156 12.3668 1.91156 11.8968 2.40156C11.4268 2.88156 11.1668 3.52156 11.1768 4.19156V4.21156L8.27677 4.23156C8.09677 4.23156 7.92677 4.34156 7.85677 4.51156C7.78677 4.68156 7.82677 4.88156 7.95677 5.00156L11.1968 8.21156L11.2268 12.0016C11.2268 13.3916 12.3568 14.5216 13.7368 14.5216H13.7468L21.5168 14.4916C22.1868 14.4916 22.8168 14.2216 23.2868 13.7316C23.7568 13.2516 24.0168 12.6116 24.0068 11.9416L23.9568 4.13156L23.9468 4.12156ZM14.9868 8.84156C14.9868 8.40156 15.0968 7.99156 15.2868 7.63156C15.2868 7.63156 15.3068 7.60156 15.2668 7.62156C14.7068 7.85156 14.0968 7.77156 13.6868 7.39156C13.1268 6.85156 13.1968 5.87156 13.8568 5.23156C14.5168 4.58156 15.4968 4.49156 16.0668 5.04156C16.4668 5.42156 16.5368 6.02156 16.3268 6.56156C16.3068 6.61156 16.3168 6.61156 16.3568 6.59156C16.7168 6.40156 17.1368 6.29156 17.5768 6.29156C18.0168 6.29156 18.4368 6.39156 18.7968 6.58156C18.8268 6.59156 18.8468 6.60156 18.8268 6.56156C18.6068 6.02156 18.6768 5.42156 19.0668 5.03156C19.6268 4.48156 20.6068 4.55156 21.2768 5.19156C21.9368 5.83156 22.0268 6.80156 21.4668 7.35156C21.0768 7.74156 20.4568 7.82156 19.9068 7.60156C19.8868 7.60156 19.8668 7.59156 19.8868 7.63156C20.0768 7.99156 20.1868 8.39156 20.1968 8.82156C20.1968 10.2316 19.0468 11.3816 17.6068 11.3816C16.1668 11.3816 14.9968 10.2516 14.9868 8.85156" fill="#445582"/>
<path d="M2.53677 1.95156C2.53677 1.95156 2.56677 1.95156 2.58677 1.94156C2.53677 1.97156 2.47677 2.01156 2.42677 2.04156C1.01677 3.01156 0.286771 4.36156 0.0767709 5.70156C-0.00322914 5.98156 -0.0432291 6.37156 0.0367709 6.98156C0.0567709 7.21156 0.0967709 7.44156 0.156771 7.66156C0.346771 8.56156 0.726771 9.82156 1.40677 11.6016C1.82677 12.6916 2.23677 13.5416 2.55677 14.1616L2.71677 14.4816C2.71677 14.4816 2.71677 14.4816 2.71677 14.4916L2.80677 14.6616C3.17677 15.3816 3.63677 16.2516 4.28677 17.2716C5.19677 18.6816 5.92677 19.6516 6.50677 20.3416C6.72677 20.6416 6.99677 20.9216 7.29677 21.1816C7.71677 21.5616 8.03677 21.7516 8.29677 21.8416C9.48677 22.4316 10.9768 22.6216 12.5568 22.0716C12.6168 22.0516 12.6768 22.0216 12.7368 22.0016C12.7268 22.0016 12.7168 22.0216 12.6968 22.0316C13.3768 21.7616 13.7668 21.4616 13.6668 20.7816C13.4968 19.6116 12.0268 16.6916 11.3468 16.1316C11.0868 15.9216 10.2468 16.1916 10.2368 16.1916C9.57677 16.3816 8.83677 16.4616 8.15677 16.4216C7.73677 16.4016 7.42677 16.2316 7.17677 15.8516C6.46677 14.7616 6.24677 14.3216 5.64677 13.1616L5.51677 12.9016C4.92677 11.7316 4.62677 11.1316 4.16677 9.91156C3.99677 9.46156 4.10677 9.08156 4.38677 8.73156C4.76677 8.24156 5.75677 7.41156 5.75677 7.40156C6.12677 7.08156 6.50677 6.89156 6.48677 6.54156C6.43677 5.65156 4.94677 2.74156 4.10677 1.92156C3.61677 1.44156 3.13677 1.57156 2.51677 1.96156L2.53677 1.95156Z" fill="#445582"/>
</svg>
