<svg width="25" height="24" viewBox="0 0 25 24" fill="none" xmlns="http://www.w3.org/2000/svg">
<path d="M14.6515 8.01886C14.6515 8.01886 14.6515 7.95886 14.6315 7.93886C14.6315 7.83886 14.6315 7.74886 14.6315 7.65886C14.6315 7.51886 14.6415 7.37886 14.6115 7.21886C14.8215 6.99886 15.1615 6.86886 15.6715 6.81886C15.7615 6.81886 15.8315 6.73886 15.8515 6.64886C15.8715 6.54886 15.9715 6.45886 16.0815 6.35886C16.2215 6.23886 16.3715 6.09886 16.3615 5.88886C16.3615 5.82886 16.3315 5.77886 16.2915 5.73886C16.2415 5.69886 16.1915 5.68886 16.1315 5.69886C15.7515 5.74886 15.4315 5.85886 15.1115 5.95886C14.9515 6.00886 14.7915 6.05886 14.6315 6.09886C14.6215 5.72886 14.6115 5.15886 14.7215 4.92886C14.7515 4.85886 14.7415 4.76886 14.6915 4.70886C14.5715 4.56886 14.4115 4.37886 14.1415 4.29886C14.0715 4.27886 14.0015 4.29886 13.9515 4.33886C13.8115 4.46886 13.7815 4.65886 13.7615 4.82886C13.7615 4.84886 13.7615 4.87886 13.7615 4.89886C13.3015 5.12886 13.1115 5.60886 12.9415 6.04886C12.8215 6.35886 12.7115 6.64886 12.5115 6.83886C12.4615 6.85886 12.4115 6.86886 12.3615 6.88886C12.1715 6.93886 11.9315 6.99886 11.8315 7.23886C11.8015 7.30886 11.8115 7.38886 11.8615 7.44886C11.9415 7.53886 12.0515 7.57886 12.1615 7.55886C12.0515 7.70886 11.9415 7.88886 11.9115 8.15886C11.9115 8.22886 11.9315 8.28886 11.9815 8.32886C12.0215 8.35886 12.0615 8.37886 12.1115 8.37886C11.6915 8.46886 11.2915 8.60886 10.9015 8.74886C10.6715 8.82886 10.4415 8.91886 10.2215 8.97886C10.4815 8.53886 10.6715 8.02886 10.8515 7.53886C11.0015 7.13886 11.1515 6.71886 11.3415 6.35886C11.3815 6.28886 11.3715 6.20886 11.3215 6.13886C11.2715 6.07886 11.2415 5.97886 11.2015 5.86886C11.1215 5.61886 10.9915 5.24886 10.4915 5.24886C10.3915 5.24886 10.3015 5.33886 10.3015 5.43886C10.3015 5.47886 10.2915 5.48886 10.1915 5.55886C10.0915 5.61886 9.94154 5.71886 9.90154 5.91886C9.90154 5.95886 9.90154 6.00886 9.92154 6.04886C9.96154 6.12886 10.0215 6.17886 10.0915 6.20886C10.0115 6.50886 9.90154 6.79886 9.79154 7.09886C9.54154 7.78886 9.29154 8.50886 9.29154 9.30886C9.25154 9.34886 9.19154 9.37886 9.13154 9.40886C9.00154 9.47886 8.84154 9.56886 8.76154 9.74886C8.73154 9.79886 8.73154 9.85886 8.76154 9.90886C8.80154 10.0089 8.87154 10.0789 8.92154 10.1289C8.94154 10.1489 8.96154 10.1689 8.98154 10.1989C9.01154 10.2489 9.07154 10.2789 9.13154 10.2789C9.17154 10.2789 9.20154 10.2789 9.23154 10.2789C9.35154 10.2789 9.45154 10.2589 9.55154 10.2489C9.66154 10.2289 9.77154 10.2089 9.92154 10.2289C9.97154 10.2289 10.0215 10.2289 10.0715 10.1889C10.7715 9.65886 11.5915 9.21886 12.3915 8.78886H12.4015C12.4815 8.80886 12.5615 8.78886 12.6115 8.71886C12.8115 8.69886 12.9015 8.56886 12.9115 8.43886C12.9115 8.36886 12.8815 8.28886 12.8315 8.24886C12.7715 8.20886 12.6915 8.18886 12.6315 8.20886C12.5415 8.19886 12.4515 8.20886 12.3915 8.22886C12.5315 8.11886 12.6315 7.97886 12.7015 7.84886C12.7715 7.72886 12.8315 7.62886 12.9315 7.55886C13.0815 7.45886 13.2715 7.42886 13.4915 7.37886C13.5615 7.35886 13.6415 7.34886 13.7215 7.32886C13.8115 7.68886 13.9415 8.07886 14.3815 8.18886C14.4015 8.18886 14.4215 8.18886 14.4315 8.18886C14.5415 8.18886 14.6415 8.09886 14.6415 7.98886L14.6515 8.01886ZM12.2315 8.33886C12.2315 8.33886 12.2115 8.33886 12.2015 8.33886C12.2215 8.33886 12.2315 8.32886 12.2415 8.31886C12.2415 8.31886 12.2415 8.31886 12.2315 8.32886V8.33886Z" fill="#445582"/>
<path d="M23.9415 13.7389C23.9415 13.7389 23.9215 13.6589 23.9215 13.6289C23.9215 13.5689 23.9115 13.5189 23.8715 13.4789C23.8315 13.4389 23.7815 13.4089 23.7215 13.4089H23.6515C22.8315 13.4089 22.1915 13.6989 21.5715 13.9689C21.4815 14.0089 21.3815 14.0589 21.2915 14.0989C21.2915 14.0289 21.2915 13.9489 21.3015 13.8689C21.3115 13.7589 21.3215 13.6389 21.3215 13.5189C21.3215 13.4689 21.3015 13.4089 21.2815 13.3489C21.2615 13.2989 21.2415 13.2189 21.2415 13.1789C21.2415 13.0389 21.2315 12.8789 21.2415 12.7389C21.2515 12.5889 21.3015 12.4389 21.3515 12.2889C21.3915 12.1589 21.4315 12.0189 21.4515 11.8889C21.4615 11.8289 21.4515 11.7789 21.4315 11.7289L21.4515 11.6789C21.4515 11.6789 21.4915 11.5689 21.4815 11.4889C21.4615 11.2589 21.3015 10.9889 21.0215 10.8989C20.9815 10.8889 20.9415 10.8889 20.9115 10.8989C20.6715 10.9689 20.3715 11.0489 20.1815 11.2789C20.1615 11.3089 20.1415 11.3389 20.1415 11.3789C20.1315 11.4789 20.0915 11.5789 20.0515 11.6789C19.9815 11.8689 19.9015 12.0789 19.9415 12.3389C19.9415 12.3389 19.9015 12.3689 19.8915 12.3789C19.8615 12.4089 19.8315 12.4489 19.8215 12.4889C19.7715 12.6889 19.6915 12.8489 19.6015 13.0289C19.5115 13.1989 19.4215 13.3789 19.3715 13.5789C19.2215 13.7389 19.1515 13.9389 19.0915 14.1189C19.0615 14.1989 19.0415 14.2889 19.0015 14.3589C18.9715 14.4289 18.9215 14.4889 18.8815 14.5489C18.8215 14.6289 18.7615 14.7189 18.7215 14.8089C18.6715 14.8989 18.6415 14.9989 18.6115 15.1089C18.5915 15.1889 18.5715 15.2689 18.5315 15.3389C18.5115 15.3789 18.4815 15.4289 18.4515 15.4789C18.3715 15.6189 18.2615 15.7889 18.2315 16.0089C18.0815 16.2289 17.9715 16.4789 17.8615 16.7289C17.8015 16.8689 17.7315 17.0089 17.6615 17.1389C17.6215 17.1789 17.5915 17.2089 17.5515 17.2389C17.4015 17.3689 17.2315 17.5189 17.1615 17.7789C17.1615 17.7989 17.1615 17.8289 17.1615 17.8589C17.1615 17.9289 17.2115 18.0189 17.3215 18.0589C17.2615 18.1389 17.1715 18.2689 17.2215 18.4389C17.2415 18.4889 17.2715 18.5389 17.3215 18.5589C17.3915 18.5989 17.4615 18.6189 17.5315 18.6189C17.7715 18.6189 17.8815 18.4189 17.9515 18.2989L17.9815 18.2489C18.0415 18.1489 18.0915 18.0389 18.1515 17.9289C18.2015 17.8089 18.2515 17.6989 18.3215 17.5989C18.3615 17.5489 18.4115 17.4889 18.4615 17.4289C18.5715 17.3089 18.6915 17.1689 18.7615 17.0089C18.7815 16.9589 18.7815 16.8889 18.7615 16.8389C18.7615 16.8389 18.7615 16.8389 18.7615 16.8289C19.0815 16.3489 19.5315 15.9889 19.9715 15.6489L20.0615 15.5789C20.1315 15.5189 20.2015 15.4589 20.2715 15.4189C20.2915 15.4589 20.3215 15.4989 20.3415 15.5289C20.3615 15.5589 20.3815 15.5889 20.4015 15.6289C20.4315 15.6889 20.4515 15.7589 20.4715 15.8189C20.5015 15.9089 20.5215 15.9989 20.5615 16.0789C20.6715 16.3089 20.8215 16.5189 20.9715 16.7089C21.0815 16.8589 21.1915 16.9989 21.2815 17.1589C21.3115 17.2089 21.3715 17.2489 21.4315 17.2589C21.5315 17.2789 21.6415 17.2989 21.7215 17.2989C21.9515 17.2989 22.0715 17.1789 22.1315 17.0789C22.1615 17.0189 22.1615 16.9389 22.1315 16.8789C21.7815 16.2789 21.5515 15.6289 21.4415 14.8789C21.5315 14.8389 21.6415 14.7789 21.7115 14.6789L21.7815 14.6489C22.2515 14.4289 22.7015 14.2189 23.3215 14.1789C23.3415 14.1789 23.3515 14.1889 23.3715 14.2089C23.4115 14.2289 23.4615 14.2589 23.5215 14.2789C23.5915 14.2989 23.6915 14.2789 23.7415 14.2289C23.7815 14.2289 23.8315 14.2089 23.8815 14.1789C23.9215 14.1589 23.9515 14.1289 23.9715 14.0889C24.0515 13.9389 24.0115 13.8089 23.9815 13.7289L23.9415 13.7389ZM19.6415 14.8389C19.7615 14.5789 19.8815 14.3189 20.0015 14.0689C20.0015 14.1789 20.0115 14.2889 20.0215 14.3989C20.0215 14.4589 20.0415 14.5289 20.0615 14.5889C20.0815 14.6589 20.0915 14.6989 20.0915 14.6989C20.0715 14.7289 19.9815 14.7989 19.9315 14.8289C19.8815 14.8589 19.8415 14.8889 19.8115 14.9189C19.7215 14.9889 19.6515 15.0489 19.5815 15.1089C19.5415 15.1389 19.5115 15.1689 19.4815 15.1989C19.5315 15.0889 19.5815 14.9789 19.6315 14.8589L19.6415 14.8389Z" fill="#445582"/>
<path d="M6.92154 11.4789V11.2789L7.03154 10.9589C7.18154 10.5189 7.31154 10.0989 7.48154 9.69886C7.56154 9.50886 7.63154 9.37886 7.71154 9.21886C7.81154 9.01886 7.91154 8.79886 7.99154 8.57886C8.06154 8.50886 8.18154 8.38886 8.15154 8.14886C8.15154 8.11886 8.14154 8.08886 8.12154 8.06886C8.08154 8.00886 8.03154 7.97886 7.98154 7.96886C8.00154 7.92886 8.02154 7.86886 8.03154 7.78886C8.03154 7.72886 8.01154 7.66886 7.96154 7.62886C7.94154 7.60886 7.92154 7.57886 7.90154 7.55886C7.84154 7.47886 7.74154 7.34886 7.55154 7.31886C7.46154 7.30886 7.38154 7.34886 7.34154 7.41886C7.07154 7.89886 6.85154 8.43886 6.63154 8.95886L6.56154 9.11886C6.53154 9.17886 6.54154 9.24886 6.58154 9.30886C6.61154 9.35886 6.66154 9.37886 6.71154 9.39886C6.65154 9.58886 6.57154 9.77886 6.50154 9.96886C6.38154 10.2989 6.25154 10.6389 6.15154 11.0189C6.11154 11.0589 6.09154 11.0989 6.08154 11.1389C6.03154 11.1789 6.00154 11.2389 6.00154 11.2989C6.00154 11.4889 5.95154 11.6489 5.85154 11.7889C5.82154 11.8289 5.81154 11.8889 5.81154 11.9389C5.81154 11.9789 5.76154 12.0789 5.73154 12.1389C5.70154 12.1889 5.68154 12.2489 5.66154 12.2889C5.64154 12.3489 5.64154 12.4089 5.65154 12.4689C5.63154 12.4989 5.60154 12.5389 5.58154 12.5889C5.55154 12.6789 5.54154 12.7789 5.52154 12.8789C5.51154 12.9689 5.50154 13.0489 5.48154 13.0989C5.46154 13.1489 5.43154 13.1989 5.39154 13.2589C5.34154 13.3389 5.28154 13.4189 5.26154 13.5289C5.24154 13.6189 5.25154 13.6989 5.26154 13.7589C5.26154 13.7989 5.26154 13.8489 5.26154 13.8689C5.26154 13.8989 5.23154 13.9389 5.20154 13.9789C5.16154 14.0389 5.11154 14.0989 5.09154 14.1889C5.06154 14.2889 5.04154 14.3889 5.03154 14.4889C5.03154 14.4589 5.01154 14.4289 4.98154 14.4089C4.83154 14.2489 4.74154 14.0489 4.72154 13.8389C4.72154 13.7689 4.72154 13.6889 4.64154 13.6289V13.5789C4.64154 13.5789 4.64154 13.5089 4.62154 13.4789C4.59154 13.4289 4.56154 13.3889 4.51154 13.3489C4.51154 13.1089 4.41154 12.9189 4.33154 12.7589C4.30154 12.6889 4.26154 12.6289 4.23154 12.5189C4.23154 12.4689 4.23154 12.4189 4.21154 12.3589C4.18154 12.2589 4.14154 12.1789 4.09154 12.0789C4.02154 11.9389 3.96154 11.8089 3.93154 11.6589C3.97154 11.4589 3.86154 11.3689 3.76154 11.3189C3.72154 11.2989 3.68154 11.2989 3.64154 11.2989C3.59154 11.1089 3.55154 10.9289 3.60154 10.7789C3.61154 10.7389 3.61154 10.6889 3.60154 10.6489C3.60154 10.6489 3.58154 10.5989 3.58154 10.5889C3.63154 10.5689 3.69154 10.5189 3.73154 10.4389C3.75154 10.3889 3.76154 10.3389 3.74154 10.2989C3.71154 10.1789 3.63154 10.1189 3.58154 10.0789C3.54154 10.0489 3.53154 10.0389 3.53154 10.0289C3.50154 9.93886 3.47154 9.51886 3.48154 9.32886C3.63154 9.25886 3.69154 9.14886 3.68154 8.99886C3.68154 8.93886 3.64154 8.87886 3.59154 8.84886C3.48154 8.77886 3.37154 8.74886 3.24154 8.74886C2.96154 8.74886 2.73154 8.91886 2.54154 9.04886C2.49154 9.08886 2.45154 9.11886 2.41154 9.13886C2.36154 9.16886 2.33154 9.21886 2.32154 9.26886C2.25154 9.61886 2.20154 10.1389 2.25154 10.4989C2.15154 10.6789 2.11154 10.8689 2.08154 11.0489C2.06154 11.1489 2.04154 11.2489 2.02154 11.3089C1.99154 11.3389 1.95154 11.3789 1.93154 11.4589C1.91154 11.5189 1.92154 11.5789 1.92154 11.6589C1.90154 11.6889 1.87154 11.7389 1.85154 11.7989C1.78154 12.0689 1.70154 12.3989 1.64154 12.6989C1.62154 12.8089 1.60154 12.9189 1.59154 13.0189C1.58154 13.1189 1.56154 13.2189 1.54154 13.3189C1.52154 13.3989 1.50154 13.4789 1.47154 13.5589C1.44154 13.6789 1.40154 13.7889 1.38154 13.9089C1.36154 13.9989 1.35154 14.0989 1.34154 14.1889C1.33154 14.3089 1.31154 14.4289 1.27154 14.5389C1.25154 14.5689 1.21154 14.6289 1.20154 14.7089C1.19154 14.7889 1.20154 14.8589 1.20154 14.9189C1.20154 14.9589 1.20154 14.9989 1.20154 15.0289C1.20154 15.0889 1.16154 15.1589 1.13154 15.2389C1.10154 15.3289 1.06154 15.4189 1.04154 15.5089C1.02154 15.5989 1.02154 15.6889 1.01154 15.7789C1.01154 15.8489 1.01154 15.9289 0.981543 16.0189C0.961543 16.0489 0.931543 16.0989 0.921543 16.1489C0.881543 16.2989 0.871543 16.4489 0.861543 16.5889C0.861543 16.6989 0.841543 16.8089 0.821543 16.9089C0.801543 17.0089 0.761543 17.0989 0.721543 17.1889C0.681543 17.2889 0.641543 17.3889 0.611543 17.4789C0.551543 17.6989 0.511543 17.9189 0.461543 18.1389C0.391543 18.5189 0.321543 18.8689 0.171543 19.1989C0.111543 19.2289 0.0215426 19.2889 0.00154261 19.3989C-0.00845739 19.4689 0.0315426 19.5889 0.0815426 19.6289C0.161543 19.6989 0.261543 19.7089 0.331543 19.7089H0.481543C0.481543 19.7089 0.581543 19.6989 0.621543 19.6689C0.841543 19.5089 0.911543 19.2989 0.991543 19.0689L1.10154 18.7689C1.21154 18.4889 1.34154 18.1389 1.38154 17.7789C1.40154 17.7389 1.42154 17.6989 1.44154 17.6589C1.50154 17.5489 1.55154 17.4389 1.59154 17.3089C1.62154 17.2089 1.63154 17.1089 1.65154 16.9989C1.67154 16.8789 1.68154 16.7689 1.74154 16.6389C1.77154 16.5989 1.81154 16.5389 1.83154 16.4689C1.86154 16.3589 1.87154 16.2389 1.89154 16.1289C1.90154 16.0289 1.91154 15.9389 1.95154 15.8189C1.96154 15.7889 1.98154 15.7489 1.99154 15.6989L2.02154 15.5689C2.05154 15.3889 2.10154 15.1489 2.19154 14.9589C2.21154 14.9189 2.21154 14.8889 2.21154 14.8489C2.21154 14.8089 2.20154 14.7889 2.18154 14.7489C2.20154 14.6989 2.22154 14.6489 2.24154 14.5889C2.28154 14.4989 2.32154 14.4089 2.34154 14.3189C2.36154 14.2589 2.35154 14.1989 2.34154 14.1289C2.36154 14.0289 2.40154 13.9289 2.43154 13.8289C2.48154 13.6689 2.54154 13.5089 2.56154 13.3489C2.56154 13.3089 2.56154 13.2689 2.56154 13.2189C2.56154 13.1989 2.56154 13.1689 2.56154 13.1589C2.57154 13.0989 2.60154 13.0489 2.62154 12.9889C2.66154 12.9089 2.70154 12.8089 2.72154 12.6989C2.73154 12.6289 2.72154 12.5689 2.69154 12.5289C2.69154 12.4889 2.70154 12.4489 2.71154 12.4189C2.81154 12.9089 2.92154 13.3789 3.12154 13.8089C3.11154 13.9689 3.16154 14.0889 3.21154 14.1789C3.24154 14.2389 3.25154 14.2689 3.25154 14.2889C3.22154 14.3689 3.30154 14.4789 3.37154 14.5289C3.37154 14.6789 3.44154 14.7789 3.49154 14.8289C3.48154 14.8689 3.47154 14.9289 3.49154 14.9989C3.49154 15.0389 3.52154 15.0789 3.56154 15.1089C3.60154 15.1389 3.62154 15.2389 3.65154 15.3389C3.67154 15.4489 3.70154 15.5689 3.77154 15.6889C3.75154 15.7289 3.74154 15.7889 3.75154 15.8589C3.75154 15.8889 3.77154 15.9189 3.79154 15.9489C3.83154 15.9989 3.87154 16.0389 3.91154 16.0889C3.96154 16.1389 4.00154 16.1889 4.02154 16.2289C4.03154 16.2789 4.04154 16.2989 4.03154 16.3289C4.03154 16.3789 4.03154 16.4289 4.06154 16.4689C4.32154 16.8489 4.54154 17.2789 4.70154 17.5989C4.71154 17.6289 4.74154 17.6589 4.77154 17.6789C4.86154 17.7389 4.91154 17.8189 4.92154 17.9289C4.92154 17.9689 4.94154 17.9989 4.97154 18.0289C5.02154 18.0889 5.08154 18.1189 5.12154 18.1489C5.16154 18.1689 5.18154 18.1889 5.18154 18.1889C5.19154 18.2289 5.21154 18.2989 5.26154 18.3589C5.31154 18.4089 5.36154 18.4289 5.41154 18.4589C5.44154 18.4689 5.47154 18.4889 5.48154 18.4989C5.50154 18.5189 5.52154 18.5389 5.53154 18.5489C5.57154 18.5989 5.64154 18.6589 5.81154 18.6789C5.94154 18.6789 6.04154 18.6189 6.11154 18.5689C6.17154 18.5289 6.18154 18.5089 6.27154 18.5189C6.27154 18.5189 6.29154 18.5189 6.30154 18.5189C6.41154 18.5289 6.51154 18.4289 6.51154 18.3189C6.51154 18.3089 6.51154 18.2989 6.51154 18.2889C6.52154 18.2889 6.53154 18.2689 6.54154 18.2589C6.58154 18.2089 6.59154 18.1489 6.58154 18.0889C6.54154 17.9289 6.45154 17.8289 6.37154 17.7489C6.37154 17.7489 6.39154 17.7389 6.40154 17.7289C6.48154 17.6489 6.48154 17.5189 6.40154 17.4389C6.25154 17.2889 6.15154 17.0889 6.03154 16.8789C6.00154 16.8289 5.97154 16.7789 5.95154 16.7189C6.00154 16.5889 5.93154 16.4389 5.90154 16.3789C5.88154 16.3389 5.86154 16.2889 5.85154 16.2589C5.88154 16.2189 5.94154 16.1489 5.93154 15.9989C5.93154 15.9489 5.93154 15.8789 5.95154 15.8089C5.97154 15.6889 6.00154 15.5289 5.95154 15.3789C6.03154 15.2089 6.06154 15.0089 6.09154 14.7889C6.10154 14.6689 6.12154 14.5489 6.15154 14.4189C6.15154 14.3789 6.18154 14.3489 6.19154 14.3089C6.22154 14.2489 6.25154 14.1689 6.26154 14.0889C6.26154 14.0389 6.26154 13.9989 6.26154 13.9289C6.26154 13.8989 6.29154 13.8489 6.32154 13.7989C6.36154 13.7289 6.40154 13.6489 6.42154 13.5689C6.44154 13.5089 6.42154 13.4489 6.44154 13.3689C6.47154 13.3289 6.51154 13.2689 6.53154 13.1989C6.55154 13.1089 6.56154 13.0289 6.58154 12.9489C6.59154 12.8689 6.60154 12.7789 6.63154 12.6989C6.67154 12.5889 6.70154 12.4689 6.74154 12.3389C6.81154 12.0989 6.88154 11.8289 6.99154 11.6189C7.00154 11.5889 7.01154 11.5589 7.01154 11.5289L6.92154 11.4789Z" fill="#445582"/>
<path d="M17.3715 15.6489C17.3715 15.6489 17.4415 15.5889 17.4815 15.5489C17.5815 15.4489 17.6915 15.3389 17.7515 15.2089C17.7515 15.1889 17.7615 15.1789 17.7715 15.1589C17.7815 15.0989 17.7715 15.0289 17.7315 14.9789C17.8415 14.7589 17.9415 14.5189 17.9015 14.2489C17.8815 14.1089 17.8015 14.0089 17.7315 13.9189C17.7015 13.8789 17.6615 13.8389 17.6415 13.7889C17.6115 13.7289 17.5915 13.6489 17.5815 13.5789C17.5615 13.4989 17.5515 13.4089 17.5115 13.3389C17.4515 13.2289 17.3515 13.1589 17.2815 13.1089C17.2615 13.0989 17.2415 13.0789 17.2215 13.0689C17.2415 13.0489 17.2815 13.0189 17.3415 12.9889C17.4015 12.9489 17.4715 12.9089 17.5315 12.8589C17.5815 12.8189 17.6215 12.7589 17.6615 12.7089C17.6915 12.6689 17.7215 12.6289 17.7515 12.5989L17.8415 12.5089C18.0915 12.2589 18.4115 11.9489 18.4415 11.6089C18.4515 11.4589 18.4115 11.3289 18.3715 11.2389C18.3315 11.1489 18.3315 11.1189 18.3415 11.0989C18.3815 11.0089 18.3615 10.9089 18.2815 10.8489C18.2215 10.8089 18.1715 10.7289 18.1115 10.6489L18.0815 10.6089C17.7115 9.22886 15.7615 8.84886 15.1315 8.75886C15.0315 8.75886 14.9615 8.80886 14.8915 8.86886C14.8515 8.86886 14.8215 8.88886 14.7915 8.91886C14.7415 8.95886 14.7215 9.00886 14.7215 9.06886V9.30886C14.7215 9.30886 14.7315 9.37886 14.7515 9.41886C14.8915 9.63886 15.1615 9.67886 15.3915 9.72886C15.5115 9.74886 15.6415 9.76886 15.7115 9.81886C15.6715 10.2689 15.5615 10.6989 15.4415 11.1489C15.3515 11.5089 15.2515 11.8789 15.2115 12.2089C15.1915 12.2289 15.1615 12.2689 15.1515 12.3389C15.0615 12.7389 14.9615 13.1889 14.8915 13.5189C14.8415 13.7489 14.8015 13.9589 14.7615 14.1589L14.6715 14.5989C14.5215 15.3189 14.3715 16.0589 14.5215 16.8489C14.5315 16.9289 14.6015 16.9889 14.6815 17.0089C14.7015 17.0089 14.7215 17.0189 14.7415 17.0289C14.8015 17.0589 14.8815 17.0989 15.0015 17.0989C15.0315 17.0989 15.0615 17.0989 15.1015 17.0989C15.1815 17.0889 15.2415 17.0289 15.2615 16.9489C15.3015 16.7789 15.2915 16.5589 15.2915 16.3389C15.2915 16.0789 15.2715 15.7789 15.3515 15.5989C15.3715 15.5589 15.3715 15.5089 15.3615 15.4689C15.3315 15.3589 15.3615 15.2789 15.3815 15.1589C15.3915 15.1089 15.4015 15.0589 15.4115 14.9989L15.4615 14.7089C15.4915 14.5489 15.5115 14.4089 15.5415 14.2689C15.5815 14.0589 15.6315 13.8889 15.6715 13.7289C15.7115 13.5989 15.7415 13.4689 15.7715 13.3189L15.8215 13.0689C15.8415 12.9589 15.8715 12.8589 15.8915 12.7489C15.9415 12.8889 16.0215 13.0089 16.0915 13.1089L16.1415 13.1789C16.1415 13.1789 16.2015 13.2689 16.2315 13.3189C16.3015 13.4389 16.3815 13.5689 16.4515 13.6489C16.5215 13.7189 16.6015 13.7689 16.6615 13.7989C16.7115 13.8189 16.7315 13.8389 16.7515 13.8589C16.6115 14.3189 16.4115 14.6689 16.1515 14.9189C16.1315 14.9389 16.1115 14.9689 16.1015 14.9989C16.0215 15.2289 15.8915 15.4089 15.7615 15.6089C15.6115 15.8289 15.4615 16.0489 15.3615 16.3389C15.3415 16.3889 15.3515 16.4389 15.3615 16.4889C15.4815 16.7489 15.6515 16.8089 15.7715 16.8089C15.9615 16.8089 16.1215 16.6689 16.2715 16.5289C16.3215 16.4889 16.3915 16.4289 16.4415 16.3889C16.4715 16.4289 16.5315 16.4789 16.6215 16.4889C16.6815 16.4889 16.7515 16.4789 16.7915 16.4289C16.9215 16.2989 17.0115 16.1489 17.1015 15.9989C17.1415 15.9289 17.1815 15.8589 17.2315 15.7989C17.2715 15.7489 17.3215 15.6989 17.3815 15.6489H17.3715ZM16.3815 11.1289C16.4115 11.0789 16.4115 11.0089 16.3815 10.9589C16.3415 10.8589 16.3915 10.7289 16.4715 10.5889C16.5315 10.6089 16.5815 10.6389 16.6415 10.6889C16.7315 10.7489 16.8315 10.8189 16.9815 10.8589C17.0115 10.8989 17.0415 10.9289 17.0715 10.9489C17.0915 10.9589 17.1115 10.9889 17.1215 10.9789C17.1215 11.0289 17.0515 11.1789 16.9515 11.3189C16.8815 11.4189 16.7115 11.5889 16.6315 11.6589C16.5515 11.7289 16.4615 11.7889 16.3815 11.8589C16.2515 11.9589 16.1115 12.0489 16.0115 12.1689C16.1115 11.7889 16.2215 11.4189 16.3715 11.1389L16.3815 11.1289Z" fill="#445582"/>
<path d="M14.2115 12.0789C14.2115 12.0789 14.1315 12.0189 14.0815 12.0089C14.1115 11.7289 14.0415 11.4489 13.8115 11.3289C13.7515 11.2989 13.6915 11.2989 13.6315 11.3289C13.6015 11.3489 13.5715 11.3689 13.5415 11.3989C13.5215 11.3989 13.5015 11.3989 13.4815 11.3989C13.4015 11.3989 13.3015 11.4089 13.2115 11.4689C13.1615 11.4989 13.1315 11.5489 13.1215 11.5989C13.0615 11.9389 12.9815 12.2589 12.9015 12.5689C12.8115 12.9189 12.7115 13.2789 12.6615 13.6289C12.5915 13.7989 12.5515 13.9789 12.5015 14.1589C12.4515 14.3689 12.4015 14.5589 12.3215 14.7189C12.3015 14.7589 12.3015 14.7989 12.3115 14.8489C12.1315 14.9189 12.0115 15.0689 11.9215 15.2089C11.9015 15.2389 11.8815 15.2589 11.8715 15.2889C11.9015 15.1889 11.9115 15.0689 11.9215 14.9589C11.9215 14.8789 11.9415 14.6989 11.9815 14.6789C12.0815 14.6389 12.1315 14.5289 12.1015 14.4189C12.0915 14.3789 12.1115 14.2789 12.1615 14.2089C12.1715 14.1889 12.1915 14.1589 12.1915 14.1289C12.2015 14.0589 12.1915 13.9989 12.1915 13.9389C12.4015 13.5689 12.4315 13.1289 12.4615 12.6989V12.6389C12.4615 12.5889 12.4615 12.5389 12.4215 12.4989C12.3815 12.4489 12.3415 12.3889 12.3115 12.3289C12.2915 12.2989 12.2715 12.2589 12.2515 12.2289C12.3015 12.1789 12.3415 12.0989 12.3415 11.9889C12.3415 11.9389 12.3215 11.8789 12.2815 11.8489C12.1815 11.7489 12.0915 11.7589 12.0215 11.7689C11.9715 11.6489 11.8915 11.5189 11.7615 11.4489C11.7315 11.4289 11.6915 11.4189 11.6515 11.4289C11.5515 11.4289 11.4915 11.4889 11.4415 11.5389C11.3615 11.5389 11.2815 11.5789 11.2415 11.6589C11.1715 11.8089 11.1615 11.9689 11.1515 12.0989C11.1515 12.1789 11.1415 12.2489 11.1215 12.3189C11.0915 12.4589 11.0415 12.5989 10.9915 12.7289C10.9315 12.8889 10.8715 13.0589 10.8315 13.2389C10.8215 13.2889 10.8315 13.3389 10.8315 13.3789C10.8115 13.4489 10.7815 13.5189 10.7515 13.5889C10.7115 13.6889 10.6715 13.7789 10.6415 13.8889C10.6315 13.9489 10.6215 14.0089 10.6115 14.0689C10.5915 14.1989 10.5815 14.2789 10.5215 14.3289C10.4815 14.3589 10.4515 14.4089 10.4515 14.4589C10.4515 14.5589 10.4415 14.6589 10.4315 14.7589C10.4215 14.9689 10.4115 15.1989 10.3515 15.3489C10.3315 15.4089 10.3415 15.4689 10.3715 15.5189C10.4515 15.6489 10.5715 15.7489 10.6715 15.8289C10.7315 15.8789 10.7815 15.9189 10.8215 15.9689C10.8515 16.1089 10.9015 16.2089 10.9515 16.2989C10.9715 16.3389 10.9915 16.3789 11.0115 16.4289C11.0315 16.4789 11.0715 16.5189 11.1215 16.5389C11.2115 16.5789 11.3215 16.5789 11.4115 16.5789H11.6615C11.7315 16.5789 11.8015 16.5489 11.8415 16.4889C11.8715 16.4389 11.9115 16.3889 11.9515 16.3489C12.0415 16.2389 12.1415 16.1189 12.2015 15.9489C12.2315 15.9289 12.2515 15.9189 12.2615 15.8989C12.3015 15.8789 12.3315 15.8489 12.3515 15.8089C12.3515 15.8489 12.3515 15.8889 12.3515 15.9289C12.3615 16.0589 12.3715 16.1889 12.3515 16.2589C12.3215 16.3389 12.3515 16.4189 12.4015 16.4789C12.4415 16.5089 12.4715 16.5289 12.5015 16.5389C12.5315 16.7889 12.6115 17.0089 12.7615 17.2289L12.8115 17.3089C12.9515 17.5189 13.1415 17.8189 13.4315 17.8189C13.5015 17.8189 13.5715 17.7989 13.6315 17.7689C13.6615 17.7489 13.6915 17.7289 13.7015 17.6989C13.7815 17.5589 13.7215 17.4389 13.6715 17.3589C13.7215 17.2789 13.7415 17.1789 13.7615 17.0989C13.7715 17.0589 13.7815 17.0189 13.7915 16.9789C13.8015 16.9489 13.8115 16.9089 13.8015 16.8689C13.7915 16.7789 13.7515 16.7189 13.7215 16.6789C13.7115 16.6589 13.7015 16.6489 13.7015 16.6489C13.7215 16.5389 13.7215 16.4689 13.7215 16.4089C13.7215 16.3589 13.7215 16.3189 13.7415 16.2589C13.7615 16.1989 13.7415 16.1289 13.7115 16.0789C13.6615 16.0089 13.6715 15.9689 13.7115 15.7889C13.7415 15.6889 13.7715 15.5789 13.7715 15.4489C13.7715 15.3689 13.7715 15.2889 13.7515 15.2289C13.7515 15.1789 13.7415 15.1289 13.7415 15.0989C13.7415 15.0789 13.7515 15.0389 13.7715 14.9989C13.7915 14.9389 13.8215 14.8689 13.8215 14.7889C13.8215 14.7289 13.8115 14.6789 13.7915 14.6589C13.7915 14.6089 13.8315 14.5389 13.8615 14.4689C13.8915 14.3989 13.9315 14.3089 13.9515 14.2189C13.9615 14.1489 13.9615 14.0889 13.9515 14.0389C13.9515 14.0089 13.9515 13.9889 13.9515 13.9689C13.9615 13.8689 13.9915 13.7789 14.0215 13.6789C14.0515 13.5789 14.0715 13.4789 14.0915 13.3889C14.1015 13.2989 14.0915 13.2189 14.0915 13.1589C14.0915 13.1189 14.0915 13.0789 14.0915 13.0589C14.0915 13.0489 14.1115 13.0189 14.1315 12.9989C14.1615 12.9489 14.2015 12.8889 14.2215 12.8089C14.2815 12.5989 14.2715 12.3789 14.2515 12.1589C14.2515 12.1089 14.2315 12.0689 14.2015 12.0389L14.2115 12.0789Z" fill="#445582"/>
<path d="M9.66154 12.9989C9.66154 12.9989 9.63154 12.9389 9.63154 12.9189C9.62154 12.8589 9.58154 12.7989 9.52154 12.7789C9.49154 12.7689 9.46154 12.7489 9.42154 12.7389C9.32154 12.6989 9.29154 12.6889 9.29154 12.6689C9.29154 12.6189 9.24154 12.5689 9.19154 12.5389C9.15154 12.5089 9.08154 12.4989 9.02154 12.5089C9.01154 12.5089 9.00154 12.5089 8.96154 12.4889C8.94154 12.4789 8.91154 12.4589 8.88154 12.4489C8.97154 12.3289 9.02154 12.1889 9.05154 12.0689C9.06154 12.0089 9.05154 11.9489 9.02154 11.8989C8.83154 11.6289 8.49154 11.5689 8.19154 11.5489C8.13154 11.5489 8.07154 11.5689 8.03154 11.6189C8.00154 11.6489 7.98154 11.6889 7.98154 11.7289C7.97154 11.7289 7.96154 11.7289 7.95154 11.7289C7.90154 11.7289 7.85154 11.7489 7.75154 11.7889C7.63154 11.8689 7.59154 11.9789 7.56154 12.0689C7.55154 12.1089 7.53154 12.1389 7.52154 12.1589C7.48154 12.2189 7.43154 12.2589 7.38154 12.3089C7.24154 12.4389 7.05154 12.6189 7.06154 12.9289C7.00154 13.0189 6.96154 13.1089 6.92154 13.1889C6.91154 13.2089 6.90154 13.2389 6.90154 13.2689C6.90154 13.2989 6.90154 13.3389 6.91154 13.3489C6.81154 13.4789 6.81154 13.6489 6.81154 13.7789C6.81154 13.8589 6.81154 13.9589 6.78154 13.9889C6.75154 14.0089 6.74154 14.0389 6.73154 14.0789C6.71154 14.1689 6.72154 14.2389 6.74154 14.2889C6.67154 14.4289 6.69154 14.5889 6.71154 14.6989C6.72154 14.7689 6.73154 14.8289 6.73154 14.8789C6.73154 14.8989 6.72154 14.9289 6.71154 14.9589C6.70154 15.0089 6.68154 15.0689 6.68154 15.1289C6.67154 15.5389 6.81154 15.9689 7.07154 16.2689C7.10154 16.2989 7.15154 16.3189 7.20154 16.3289C7.20154 16.3389 7.20154 16.3589 7.20154 16.3789C7.21154 16.4389 7.25154 16.4989 7.31154 16.5289C7.33154 16.5389 7.36154 16.5589 7.39154 16.5889C7.45154 16.6489 7.54154 16.7289 7.68154 16.7589C7.73154 16.7589 7.77154 16.7589 7.81154 16.7389C7.87154 16.7089 7.91154 16.7289 7.96154 16.7389C8.01154 16.7389 8.06154 16.7589 8.11154 16.7589H8.13154C8.18154 16.7589 8.24154 16.7389 8.27154 16.6989C8.41154 16.5589 8.53154 16.4489 8.67154 16.3689C8.71154 16.3489 8.73154 16.3189 8.75154 16.2789L8.87154 16.0389C9.16154 15.4589 9.49154 14.8089 9.59154 14.0889C9.59154 14.0189 9.62154 13.9589 9.63154 13.8989C9.67154 13.7489 9.71154 13.5789 9.66154 13.3789C9.69154 13.3289 9.73154 13.2489 9.71154 13.1089C9.70154 13.0689 9.68154 13.0389 9.67154 12.9989H9.66154ZM8.45154 15.0489C8.42154 15.2689 8.32154 15.4789 8.21154 15.6589L8.18154 15.7189C8.18154 15.7189 8.13154 15.8189 8.12154 15.8189C8.11154 15.8189 8.06154 15.7789 8.03154 15.7289C7.95154 15.5989 7.96154 15.3889 7.98154 15.1689C7.98154 15.0789 7.98154 14.9889 7.98154 14.8989C7.98154 14.8189 7.98154 14.7289 7.98154 14.6589C8.02154 14.3489 8.10154 14.0389 8.19154 13.7389C8.25154 13.5089 8.31154 13.2989 8.34154 13.1089C8.35154 13.0889 8.37154 13.0689 8.39154 13.0589C8.41154 13.0289 8.44154 13.0089 8.46154 12.9689C8.49154 13.0089 8.52154 13.0489 8.54154 13.0889C8.55154 13.1089 8.57154 13.1289 8.58154 13.1389C8.57154 13.2089 8.57154 13.2789 8.57154 13.3389C8.57154 13.3789 8.57154 13.4489 8.57154 13.4689C8.55154 13.5189 8.57154 13.6189 8.58154 13.6689C8.58154 13.6789 8.59154 13.6989 8.60154 13.7189C8.58154 13.7989 8.59154 13.8789 8.60154 13.9489C8.60154 13.9889 8.61154 14.0289 8.60154 14.0589C8.59154 14.1489 8.56154 14.2589 8.53154 14.3889C8.50154 14.5189 8.47154 14.6689 8.44154 14.8089C8.43154 14.8689 8.44154 14.9289 8.44154 14.9789C8.44154 15.0089 8.44154 15.0389 8.44154 15.0489H8.45154Z" fill="#445582"/>
</svg>
