<svg width="24" height="24" viewBox="0 0 24 24" fill="none" xmlns="http://www.w3.org/2000/svg">
<path d="M9.11014 16.0749V12.4049H6.88014V16.0749C6.20014 16.4649 5.74014 17.1849 5.74014 18.0249C5.74014 19.2749 6.75014 20.2849 8.00014 20.2849C9.25014 20.2849 10.2601 19.2749 10.2601 18.0249C10.2601 17.1849 9.80014 16.4649 9.12014 16.0749H9.11014Z" fill="#445582"/>
<path d="M12.7001 4.70488C12.7001 2.11488 10.5901 0.00488281 8.00014 0.00488281C5.41014 0.00488281 3.29014 2.11488 3.29014 4.70488V14.0049C2.39014 15.0849 1.89014 16.4549 1.89014 17.8949C1.89014 21.2649 4.63014 23.9949 8.00014 23.9949C11.3701 23.9949 14.1101 21.2549 14.1101 17.8949C14.1101 16.4449 13.6101 15.0849 12.7101 14.0049V4.70488H12.7001ZM8.00014 21.4949C6.01014 21.4949 4.40014 19.8849 4.40014 17.8949C4.40014 16.7349 4.95014 15.7049 5.80014 15.0549V4.70488C5.80014 3.49488 6.78014 2.51488 7.99014 2.51488C9.20014 2.51488 10.1801 3.49488 10.1801 4.70488V15.0549C11.0301 15.7149 11.5801 16.7449 11.5801 17.8949C11.5801 19.8849 9.97014 21.4949 7.98014 21.4949H8.00014Z" fill="#445582"/>
<path d="M16.1001 7.94488H20.9101C21.5701 7.94488 22.1101 7.40488 22.1101 6.74488C22.1101 6.08488 21.5701 5.54488 20.9101 5.54488H16.1001C15.4401 5.54488 14.9001 6.08488 14.9001 6.74488C14.9001 7.40488 15.4401 7.94488 16.1001 7.94488Z" fill="#445582"/>
<path d="M20.9101 11.6349H16.1001C15.4401 11.6349 14.9001 12.1749 14.9001 12.8349C14.9001 13.4949 15.4401 14.0349 16.1001 14.0349H20.9101C21.5701 14.0349 22.1101 13.4949 22.1101 12.8349C22.1101 12.1749 21.5701 11.6349 20.9101 11.6349Z" fill="#445582"/>
</svg>
