<svg width="24" height="24" viewBox="0 0 24 24" fill="none" xmlns="http://www.w3.org/2000/svg">
<path d="M16.5099 0C14.3599 0 12.6099 1.75 12.5899 3.89C12.5899 4.94 12.9799 5.93 13.7199 6.67C14.0599 7.01 14.4499 7.29 14.8799 7.48C15.4399 9.56 16.2699 11.46 16.2699 11.48C16.2999 11.55 16.3699 11.59 16.4499 11.6C16.5299 11.6 16.5899 11.56 16.6299 11.49C16.6299 11.47 17.5299 9.6 18.1299 7.5C19.5299 6.87 20.4399 5.49 20.4499 3.96C20.4699 1.8 18.7199 0.02 16.5299 0H16.5099ZM16.5099 2.43C17.3399 2.43 17.9999 3.11 17.9999 3.93C17.9999 4.74 17.3299 5.4 16.4999 5.4C16.0999 5.4 15.7299 5.24 15.4499 4.96C15.1699 4.67 15.0199 4.3 15.0199 3.9C15.0199 3.09 15.6899 2.43 16.5099 2.43Z" fill="#445582"/>
<path d="M16.5099 0C14.3599 0 12.6099 1.75 12.5899 3.89C12.5899 4.94 12.9799 5.93 13.7199 6.67C14.0599 7.01 14.4499 7.29 14.8799 7.48C15.4399 9.56 16.2699 11.46 16.2699 11.48C16.2999 11.55 16.3699 11.59 16.4499 11.6C16.5299 11.6 16.5899 11.56 16.6299 11.49C16.6299 11.47 17.5299 9.6 18.1299 7.5C19.5299 6.87 20.4399 5.49 20.4499 3.96C20.4699 1.8 18.7199 0.02 16.5299 0H16.5099ZM16.5099 2.43C17.3399 2.43 17.9999 3.11 17.9999 3.93C17.9999 4.74 17.3299 5.4 16.4999 5.4C16.0999 5.4 15.7299 5.24 15.4499 4.96C15.1699 4.67 15.0199 4.3 15.0199 3.9C15.0199 3.09 15.6899 2.43 16.5099 2.43Z" fill="#445582"/>
<path d="M22.1399 13.8C22.1399 13.61 22.1399 13.42 22.1199 13.24C22.1199 13.15 22.1099 13.06 22.0999 12.98C22.0899 12.86 22.0799 12.75 22.0599 12.64C22.0499 12.53 22.0399 12.43 22.0199 12.33C22.0199 12.3 22.0099 12.28 21.9999 12.25C21.9499 11.96 21.8899 11.67 21.8199 11.38C21.8199 11.36 21.8099 11.34 21.7999 11.31C21.4299 9.89 20.7599 8.6 19.8699 7.5C19.5899 7.77 19.2799 8 18.9399 8.2C18.8499 8.5 18.7499 8.8 18.6499 9.08C19.6299 10.38 20.2099 11.97 20.2099 13.71C20.2099 14.39 20.1099 15.05 19.9499 15.68C19.8099 15.71 19.6599 15.74 19.5199 15.75C19.1399 15.8 18.8199 15.69 18.6999 15.59C18.5799 15.49 18.5299 15.25 18.1699 15.06C17.8899 14.91 17.5399 15.06 17.2799 14.99C16.9399 14.9 16.7499 14.63 16.4099 14.48C16.1799 14.38 15.8299 14.31 15.3699 14.31C15.3699 14.31 14.8399 14.33 14.5199 14.45C14.1999 14.57 13.7099 15.2 13.5699 15.27C13.3499 15.39 13.0199 15.51 12.6799 15.49C12.5299 15.49 12.4099 15.37 12.3399 15.3C12.2699 15.23 12.4599 14.43 12.1199 14.31C11.7799 14.19 11.5399 14.21 11.3999 14.21C11.2599 14.21 11.2599 14.19 11.2599 14.11C11.2599 14.03 11.4499 13.55 11.4299 13.38C11.4099 13.21 11.1899 12.99 10.8799 13.11C10.5599 13.23 10.4699 13.35 10.3699 13.55C10.2699 13.74 10.1599 13.73 9.94986 13.7C9.72986 13.68 9.25986 13.08 9.43986 12.54C9.57986 12.12 9.59986 12.11 9.76986 11.97C9.93986 11.82 10.3799 11.89 10.5699 11.97C10.7599 12.04 10.9299 11.7 10.9299 11.7C10.9299 11.7 11.1899 11.32 11.4599 11.67C11.7999 12.11 11.7099 12.35 12.3099 12.48C12.6999 12.57 12.5899 12.11 12.4899 11.93C12.4099 11.77 12.2299 11.58 12.1799 11.33C12.1299 11.09 12.2099 10.97 12.5399 10.6C12.8599 10.26 12.8999 10.07 12.9299 9.8C12.9499 9.64 13.1599 9.42 13.4599 9.19C13.6199 9.07 13.4899 8.93 13.5199 8.84C13.5599 8.74 13.6099 8.7 13.6799 8.65C13.7599 8.59 13.7899 8.57 13.9699 8.49C13.9899 8.49 14.0499 8.46 14.0999 8.43C14.0699 8.33 14.0399 8.24 14.0099 8.14C13.6399 7.92 13.2899 7.65 12.9899 7.34C12.0699 6.4 11.5699 5.16 11.5799 3.85C11.5799 3.8 11.5799 3.75 11.5799 3.7C6.17986 3.95 1.85986 8.4 1.85986 13.86C1.85986 19.32 6.38986 23.99 11.9899 24C17.5899 24 22.1299 19.45 22.1399 13.85V13.8ZM14.7399 21.14C14.7399 21.14 14.7399 21.16 14.7199 21.16C13.8799 21.44 12.9799 21.6 12.0399 21.6C7.51986 21.6 3.84986 18.07 3.84986 13.71C3.84986 11.55 4.74986 9.59 6.20986 8.17C6.03986 8.53 5.88986 8.99 5.80986 9.57C5.67986 10.55 6.01986 11.1 6.01986 11.1C6.01986 11.1 6.29986 11.59 6.57986 11.86C6.78986 12.07 7.40986 12.35 7.40986 12.35C7.40986 12.35 7.82986 13.14 8.02986 13.39C8.23986 13.64 8.71986 14.22 9.92986 14.59C10.2399 14.69 10.4099 14.84 10.6699 15.1C10.8599 15.29 11.1799 15.1 11.4699 15.42C11.7599 15.73 12.1499 16.12 12.5899 16.12C12.5899 16.12 12.8499 16.12 13.2399 16C13.2399 16 13.6499 16.41 13.0999 17.07C12.5399 17.72 13.0499 18.67 13.0499 18.67C13.0499 18.67 13.7499 19.49 14.1099 19.81C14.4699 20.12 14.6699 19.95 14.8399 20C15.0099 20.05 15.0999 20.07 15.0799 20.24C15.0599 20.41 14.9599 20.97 14.7399 21.14Z" fill="#445582"/>
</svg>
