<svg width="24" height="24" viewBox="0 0 24 24" fill="none" xmlns="http://www.w3.org/2000/svg">
<path d="M20.3951 13.28C20.4751 13.28 20.5551 13.22 20.5651 13.14L21.0751 10.28L22.8651 9.76C22.9451 9.75 23.0051 9.67 23.0051 9.59C23.0051 9.51 22.9451 9.43 22.8651 9.42L21.0751 8.91L20.5651 5.95C20.5551 5.87 20.4751 5.8 20.3951 5.8C20.3151 5.8 20.2351 5.86 20.2251 5.95L19.7051 8.91L17.8851 9.42C17.8051 9.44 17.7351 9.51 17.7351 9.59C17.7351 9.67 17.7951 9.75 17.8851 9.76L19.7051 10.28L20.2251 13.14C20.2451 13.22 20.3151 13.28 20.3951 13.28Z" fill="#445582"/>
<path d="M5.08512 10.4L5.42512 8.68L7.01512 8.4C7.10512 8.38 7.17512 8.31 7.17512 8.21C7.17512 8.11 7.10512 8.04 7.01512 8.03L5.42512 7.71L5.08512 4.89C5.07512 4.8 4.99512 4.73 4.90512 4.73C4.81512 4.73 4.73512 4.79 4.72512 4.89L4.44512 7.71L3.18512 8.03C3.09512 8.05 3.02512 8.12 3.02512 8.21C3.02512 8.3 3.09512 8.38 3.18512 8.4L4.44512 8.68L4.72512 10.4C4.73512 10.49 4.81512 10.56 4.90512 10.56C4.99512 10.56 5.07512 10.49 5.08512 10.4Z" fill="#445582"/>
<path d="M2.77512 13.52C2.77512 14.01 2.37512 14.41 1.88512 14.41C1.39512 14.41 0.995117 14.01 0.995117 13.52C0.995117 13.03 1.39512 12.63 1.88512 12.63C2.37512 12.63 2.77512 13.03 2.77512 13.52Z" fill="#445582"/>
<path d="M18.9151 18.64C19.3051 18.54 19.3751 18.44 19.4051 18.4C19.4451 18.34 19.4351 18.26 19.3851 18.21C19.3751 18.2 18.0651 16.97 17.7551 15.12C17.7451 15.05 17.6851 15 17.6151 15C17.5451 15 17.4851 15.05 17.4651 15.12C17.1451 16.97 15.9251 18.25 15.9151 18.27C15.9151 18.27 15.8951 18.29 15.8951 18.3H15.8151V15.87C15.8151 15.87 15.9051 15.85 15.9551 15.84C16.2551 15.78 16.3651 15.76 16.4151 15.69C16.4651 15.63 16.4551 15.54 16.3951 15.49C16.3851 15.48 15.0751 14.35 14.7751 12.67C14.7651 12.6 14.7051 12.55 14.6351 12.55H13.5551V9.48C13.6451 9.52 13.7451 9.54 13.8551 9.54C14.2951 9.54 14.6551 9.18 14.6551 8.74C14.6551 8.72 14.6551 8.71 14.6551 8.69C14.6551 8.68 14.6551 8.67 14.6551 8.67V7.67C14.7851 7.6 14.9151 7.47 14.9251 7.47C14.9851 7.42 14.9851 7.32 14.9251 7.26C14.9251 7.26 14.0851 6.33 14.0851 5.03C14.0851 4.95 14.0151 4.88 13.9351 4.88C13.8551 4.88 13.7851 4.95 13.7851 5.03C13.7851 5.64 13.6351 6.17 13.4751 6.57C13.1251 5.49 12.7351 3.89 12.5651 1.95C12.7651 1.86 12.9051 1.67 12.9051 1.44C12.9051 1.19 12.7351 0.97 12.5051 0.9C12.5051 0.66 12.4951 0.41 12.4951 0.15C12.4951 0.07 12.4251 0 12.3451 0C12.2651 0 12.1951 0.06 12.1951 0.15C12.1951 0.4 12.1951 0.65 12.1851 0.9C11.9551 0.97 11.7851 1.18 11.7851 1.44C11.7851 1.67 11.9251 1.87 12.1251 1.95C11.8251 5.78 10.6351 8.35 10.6251 8.38C10.6051 8.43 10.6051 8.48 10.6351 8.52C10.6851 8.59 10.7951 8.69 11.2051 8.77V13.2H11.1751C10.9851 12.9 10.2351 11.56 10.2351 9.75C10.2351 9.67 10.1751 9.6 10.0851 9.6C9.99512 9.6 9.93512 9.67 9.93512 9.75C9.93512 11.81 8.96512 13.25 8.95512 13.27C8.91512 13.33 8.92512 13.41 8.96512 13.46C8.99512 13.49 9.05512 13.55 9.43512 13.59V16.28L8.48512 17.19C8.16512 16.65 7.83512 15.94 7.68512 15.09C7.67512 15.02 7.61512 14.97 7.53512 14.97C7.46512 14.97 7.40512 15.02 7.39512 15.09C7.08512 16.93 5.78512 18.17 5.76512 18.18C5.71512 18.23 5.70512 18.31 5.74512 18.37C5.77512 18.4 5.84512 18.51 6.23512 18.61C6.18512 19.38 5.98512 22.68 5.66512 23.81C5.65512 23.86 5.66512 23.9 5.68512 23.94C5.71512 23.98 5.75512 24 5.80512 24H10.4251C10.5051 24 10.5751 23.93 10.5751 23.85C10.5751 19.88 12.6051 19.65 12.6251 19.65C12.7151 19.65 14.6751 19.9 14.6851 23.85C14.6851 23.93 14.7451 24 14.8351 24H19.3551C19.3551 24 19.4451 23.98 19.4751 23.94C19.5051 23.9 19.5151 23.86 19.4951 23.81C19.1851 22.68 18.9751 19.38 18.9251 18.61L18.9151 18.64ZM16.1151 18.45C16.1151 18.45 16.0351 18.4 16.0151 18.37C16.0351 18.4 16.0851 18.42 16.1351 18.45H16.1151Z" fill="#445582"/>
</svg>
