<svg width="24" height="24" viewBox="0 0 24 24" fill="none" xmlns="http://www.w3.org/2000/svg">
<path d="M23.9847 4.24669C24.0347 3.95669 23.9447 3.6667 23.7347 3.4667L20.5447 0.276693C20.3347 0.0666926 20.0447 -0.0233074 19.7647 0.0266926C18.5847 0.236693 17.2347 1.1767 16.1747 2.0667C15.3947 1.8367 14.5146 1.98668 13.9446 2.54668L0.624657 15.8367C0.194657 16.2667 -0.0253381 16.8367 0.00466188 17.4567C0.0246619 18.0467 0.274659 18.6067 0.704659 19.0267L4.96465 23.2867C5.40465 23.7267 6.01466 23.9867 6.62466 23.9867C7.23466 23.9867 7.74466 23.7667 8.15466 23.3667L21.4746 10.0867C22.0746 9.48669 22.2347 8.60668 21.9647 7.82668C22.8547 6.76668 23.7847 5.43668 23.9947 4.26668L23.9847 4.24669ZM20.0946 8.69671L7.57465 21.1867L6.39466 20.0067C7.02466 19.7167 7.46465 19.0867 7.46465 18.3567C7.46465 17.3567 6.65466 16.5367 5.64466 16.5367C4.90466 16.5367 4.27465 16.9767 3.99465 17.6067L2.79466 16.4067L15.3147 3.91671C15.3147 3.91671 15.4046 3.85668 15.4746 3.85668C15.5746 3.85668 15.6847 3.90668 15.7647 3.98668L20.0247 8.24669C20.1747 8.39669 20.1846 8.60671 20.0946 8.69671Z" fill="#445582"/>
</svg>
