<svg width="25" height="24" viewBox="0 0 25 24" fill="none" xmlns="http://www.w3.org/2000/svg">
<path d="M23.7302 11.4392L15.0002 4.16924C14.6902 3.90924 14.2302 3.95924 13.9802 4.25924C13.7202 4.56924 13.7602 5.02924 14.0702 5.27924L21.2502 11.2692H0.720234C0.320234 11.2692 -0.00976562 11.5992 -0.00976562 11.9992C-0.00976562 12.3992 0.320234 12.7292 0.720234 12.7292H21.2602L14.0802 18.7192C13.7702 18.9792 13.7302 19.4392 13.9902 19.7392C14.1302 19.9092 14.3402 19.9992 14.5502 19.9992C14.7102 19.9992 14.8802 19.9392 15.0202 19.8292L23.7502 12.5592C23.9202 12.4192 24.0102 12.2192 24.0102 11.9992C24.0102 11.7792 23.9102 11.5792 23.7502 11.4392H23.7302Z" fill="#445582"/>
</svg>
