<svg width="24" height="24" viewBox="0 0 24 24" fill="none" xmlns="http://www.w3.org/2000/svg">
<path fill-rule="evenodd" clip-rule="evenodd" d="M23.418 13.4677C24.1932 12.6925 24.1932 11.4349 23.418 10.6597C23.3328 10.5745 23.2428 10.4989 23.1468 10.4329L14.8224 2.10728C14.0472 1.33208 12.7896 1.33208 12.0144 2.10728C11.2392 2.88248 11.2392 4.14008 12.0144 4.91528L17.1756 10.0765H1.986C0.8892 10.0777 0 10.9669 0 12.0637C0 13.1605 0.8892 14.0497 1.986 14.0497H17.22L12.1848 19.0849C11.4096 19.8601 11.4096 21.1177 12.1848 21.8929C12.96 22.6681 14.2176 22.6681 14.9928 21.8929L23.418 13.4677Z" fill="#445582"/>
</svg>
