<svg width="24" height="24" viewBox="0 0 24 24" fill="none" xmlns="http://www.w3.org/2000/svg">
<path d="M17.7384 4.0096C16.6243 4.0096 15.6063 4.48019 14.8957 5.21968C16.3554 6.18006 17.3254 7.82231 17.3254 9.69505C17.3254 10.4538 17.1622 11.1644 16.8836 11.8175C17.1622 11.8847 17.4503 11.9135 17.748 11.9135C19.9377 11.9135 21.7048 10.1464 21.7048 7.95677C21.7048 5.7671 19.9377 4 17.748 4L17.7384 4.0096Z" fill="#445582"/>
<path d="M7.61581 9.70466C7.61581 7.30371 9.56538 5.35414 11.9663 5.35414C14.3673 5.35414 16.3168 7.30371 16.3168 9.70466C16.3168 12.1056 14.3673 14.0552 11.9663 14.0552C9.56538 14.0552 7.61581 12.1056 7.61581 9.70466Z" fill="#445582"/>
<path d="M21.3846 11.5134L21.3878 11.5102H21.3782L21.3846 11.5134Z" fill="#445582"/>
<path d="M21.3846 11.5134C20.5013 12.4143 19.2925 12.9892 17.9496 13.0468C19.0732 13.8823 20.1297 15.2269 20.5042 17.3493H23.2317C23.6543 17.3493 24 17.0324 24 16.6386V16.216C24 13.7896 22.9656 12.3017 21.3846 11.5134Z" fill="#445582"/>
<path d="M16.4385 13.2997L16.4416 13.2965H16.432L16.4385 13.2997Z" fill="#445582"/>
<path d="M16.4385 13.2997C15.3054 14.4695 13.7221 15.1884 11.9662 15.1884C10.2087 15.1884 8.6529 14.4682 7.51965 13.3157C5.6085 14.2953 4.36 16.1104 4.36 19.0588V19.587C4.36 20.0672 4.78257 20.4513 5.30117 20.4513H18.7081C19.2267 20.4513 19.6493 20.0576 19.6493 19.587V19.0588C19.6493 16.0849 18.3844 14.2609 16.4385 13.2997Z" fill="#445582"/>
<path d="M6.05039 13.0468C4.69626 13.0084 3.46697 12.4418 2.57382 11.5294C1.018 12.3265 0 13.8055 0 16.216V16.6386C0 17.0228 0.345737 17.3493 0.768304 17.3493H3.50539C3.87994 15.2269 4.93635 13.8823 6.06 13.0468H6.05039Z" fill="#445582"/>
<path d="M9.03719 5.2197C7.57741 6.18008 6.60743 7.83193 6.60743 9.70467H6.59783C6.59783 10.4538 6.75149 11.1741 7.0396 11.8271C6.77069 11.8943 6.48258 11.9231 6.19447 11.9231C4.0144 11.9231 2.2377 10.156 2.2377 7.96638C2.2377 5.77672 4.0144 4.00962 6.19447 4.00962C7.30851 4.00962 8.31691 4.4802 9.03719 5.2197Z" fill="#445582"/>
</svg>
