<svg width="24" height="24" viewBox="0 0 24 24" fill="none" xmlns="http://www.w3.org/2000/svg">
<path d="M19.0135 4.55132C20.2735 4.61132 21.3335 3.64132 21.3935 2.39132C21.4535 1.13132 20.4835 0.0713205 19.2335 0.0113205C17.9735 -0.0486795 16.9135 0.921321 16.8535 2.17132C16.7935 3.43132 17.7635 4.49132 19.0135 4.55132Z" fill="#445582"/>
<path d="M19.7635 10.4513L19.5035 7.46132C19.4535 6.90132 19.1535 6.39132 18.6935 6.07132L16.2935 4.43132C15.8035 4.09132 15.2135 3.93132 14.6135 3.97132L11.0235 4.20132C10.6835 4.22132 10.3735 4.39132 10.1635 4.65132C9.95352 4.91132 9.86352 5.26132 9.91352 5.59132L10.5435 9.48132C10.6535 10.1313 11.2635 10.5813 11.9235 10.4713C11.9935 10.4613 12.0435 10.4213 12.1035 10.4013C12.0135 10.5413 11.9335 10.6913 11.8635 10.8513L11.8435 10.8813C11.8435 10.8813 11.8235 10.9313 11.8135 10.9613C11.5535 11.5613 11.3735 12.2413 11.3335 13.0113C11.2435 14.6813 11.0735 17.4913 11.0735 17.4913L9.48352 22.3113C9.26352 22.9813 9.62352 23.7013 10.2935 23.9213C10.4235 23.9613 10.5635 23.9913 10.6935 23.9913C11.2335 23.9913 11.7235 23.6513 11.9035 23.1113L13.5435 18.1613C13.5735 18.0713 13.5935 17.9713 13.6035 17.8813L13.9235 14.4313L15.2435 22.9113C15.3435 23.5413 15.8835 23.9913 16.5035 23.9913C16.5735 23.9913 16.6335 23.9913 16.7035 23.9713C17.4035 23.8613 17.8735 23.2113 17.7735 22.5113L16.1735 12.2213C16.1735 12.2213 16.1735 12.2013 16.1735 12.1913C16.1135 11.7413 16.1735 11.4213 16.3135 11.1213L17.2635 9.35132L17.3835 10.8113C17.4135 10.9213 17.4335 11.0413 17.4635 11.1513L18.7735 14.4313C18.9635 14.9013 19.4135 15.1913 19.8935 15.1913C20.0435 15.1913 20.1935 15.1613 20.3335 15.1013C20.9535 14.8513 21.2535 14.1613 21.0035 13.5413L19.7635 10.4313V10.4513ZM12.8935 8.96132L12.5035 6.52132L14.2735 6.41132L12.8935 8.96132Z" fill="#445582"/>
<path d="M7.45352 8.18132C7.29352 8.00132 7.06352 7.92132 6.82352 7.94132C6.59352 7.97132 6.38352 8.11132 6.27352 8.32132L5.67352 9.46132L3.83352 7.65132C3.55352 7.37132 3.09352 7.37132 2.81352 7.65132C2.53352 7.93132 2.53352 8.39132 2.81352 8.67132L5.34352 11.1613C5.48352 11.2913 5.66352 11.3713 5.84352 11.3713C5.88352 11.3713 5.91352 11.3713 5.95352 11.3713C6.18352 11.3313 6.37352 11.2013 6.48352 10.9913L7.04352 9.92132L8.11352 11.1313C8.37352 11.4313 8.83352 11.4613 9.13352 11.1913C9.43352 10.9313 9.46352 10.4713 9.19352 10.1713L7.42352 8.18132H7.45352Z" fill="#445582"/>
</svg>
