<svg width="24" height="24" viewBox="0 0 24 24" fill="none" xmlns="http://www.w3.org/2000/svg">
<path d="M15.0585 16.6085C15.3385 16.6085 15.5985 16.4685 15.7485 16.2185C15.9685 15.8385 15.8385 15.3585 15.4585 15.1385L12.7885 13.5985V9.9985C12.7885 9.5585 12.4385 9.2085 11.9985 9.2085C11.5585 9.2085 11.2085 9.5685 11.2085 9.9985V14.0585C11.2085 14.3385 11.3585 14.5985 11.5985 14.7385L14.6685 16.5085C14.7885 16.5785 14.9285 16.6085 15.0585 16.6085Z" fill="#445582"/>
<path fill-rule="evenodd" clip-rule="evenodd" d="M14.8286 3.37858C16.2386 1.48858 19.1486 1.27858 21.3486 2.90858L21.3586 2.89858C23.5386 4.52858 24.1786 7.37858 22.7786 9.26858C22.0586 10.2386 20.9486 10.7486 19.7386 10.8086C20.1186 11.7686 20.3386 12.8086 20.3386 13.8986C20.3386 18.4686 16.6186 22.1886 12.0486 22.1886C11.7386 22.1886 11.4386 22.1686 11.1386 22.1286C11.0286 22.1186 10.9086 22.0986 10.7986 22.0786C10.6186 22.0486 10.4486 22.0186 10.2686 21.9786C8.79858 21.6486 7.48858 20.9386 6.42858 19.9686C4.79858 18.4586 3.76858 16.2986 3.76858 13.8986C3.76858 12.8086 3.97858 11.7686 4.36858 10.8086C3.11858 10.7686 1.95858 10.2586 1.22858 9.26858C-0.181419 7.38858 0.458581 4.52858 2.64858 2.90858C4.83858 1.27858 7.74858 1.48858 9.15858 3.37858C9.69858 4.11858 9.92858 5.00858 9.87858 5.90858C10.5786 5.71858 11.3386 5.60858 12.0486 5.60858C12.7586 5.60858 13.4486 5.70858 14.1086 5.87858C14.0586 4.98858 14.2886 4.10858 14.8286 3.37858ZM5.82858 14.0586C5.82858 17.4686 8.58858 20.2286 11.9986 20.2286C15.4086 20.2286 18.1686 17.4686 18.1686 14.0586C18.1686 10.6486 15.4086 7.88858 11.9986 7.88858C8.58858 7.88858 5.82858 10.6486 5.82858 14.0586Z" fill="#445582"/>
</svg>
