<svg width="24" height="24" viewBox="0 0 24 24" fill="none" xmlns="http://www.w3.org/2000/svg">
<path fill-rule="evenodd" clip-rule="evenodd" d="M6.37967 5.61793C6.37967 2.51606 8.89411 0 11.994 0C15.0938 0 17.6083 2.50646 17.6083 5.61793C17.6083 7.05842 17.0613 8.36447 16.1687 9.36321C16.1615 9.37406 16.157 9.38355 16.1526 9.3927C16.1454 9.40785 16.1387 9.42208 16.1207 9.44004C13.7726 12.094 13.3441 14.6718 13.0652 16.3492C12.8688 17.5307 12.7467 18.2655 12.0804 18.2655C11.6074 18.2655 11.493 17.7384 11.2856 16.7826C10.9457 15.2168 10.3561 12.5003 7.53132 9.06551C7.45455 8.98869 7.42575 8.91186 7.40656 8.84464C6.75396 7.92272 6.37967 6.81834 6.37967 5.61793ZM9.28759 5.5219C9.28759 7.01041 10.4968 8.23003 11.994 8.23003C13.4815 8.23003 14.6908 7.02001 14.6908 5.5219C14.6908 4.02378 13.4911 2.81377 11.994 2.81377C10.4968 2.81377 9.28759 4.03338 9.28759 5.5219Z" fill="#445582"/>
<path d="M21.1401 13.6079L23.8752 21.569V21.5594C23.952 21.7227 24 21.8955 24 22.0876C24 22.7214 23.4818 23.24 22.8483 23.24H1.14929C0.784596 23.24 0.429503 23.0575 0.218367 22.7598C-0.0023669 22.4621 -0.0599495 22.078 0.0648129 21.7227L2.85757 13.6079C3.01113 13.1373 3.45259 12.83 3.94204 12.83H7.90565C8.37591 13.6751 8.70221 14.4434 8.94214 15.1252H4.7578L2.7616 20.9448H21.2264L19.2302 15.1252H15.1707C15.3434 14.4146 15.5929 13.6463 16.0056 12.83H20.0556C20.545 12.83 20.9769 13.1469 21.1401 13.6079Z" fill="#445582"/>
</svg>
