<svg width="24" height="24" viewBox="0 0 24 24" fill="none" xmlns="http://www.w3.org/2000/svg">
<path d="M4.02649 20.3604H7.84199C8.53571 21.8118 9.64933 23.0167 11.0277 23.82H3.74353C2.8216 23.82 2.00008 23.0897 2.00008 22.1495V2.73432C1.99095 1.79413 2.74858 1 3.6705 1H14.1951C15.117 1 15.8746 1.75762 15.8746 2.6978V8.90483C15.6008 8.88657 15.3269 8.86832 15.0622 8.86832C14.7975 8.86832 14.5328 8.87745 14.2772 8.90483V3.74752C14.2772 3.67267 14.2014 3.59782 14.1396 3.53678C14.1336 3.53082 14.1277 3.525 14.122 3.51932C14.0673 3.46455 13.976 3.42804 13.8938 3.42804H3.88045C3.74353 3.46455 3.64312 3.62886 3.64312 3.78403V20.0318C3.64312 20.2235 3.84393 20.3604 4.02649 20.3604Z" fill="#445582"/>
<path fill-rule="evenodd" clip-rule="evenodd" d="M8.14373 16.8918C8.14373 13.0671 11.2472 9.96363 15.0719 9.96363C18.8965 9.96363 22 13.0671 22 16.8918C22 20.7164 18.9056 23.8199 15.0719 23.8199C11.2381 23.8199 8.14373 20.7164 8.14373 16.8918ZM14.223 16.4354C14.6976 16.2893 15.0445 16.0246 15.0445 15.6595L15.0354 15.6686V12.7933C15.0354 12.5742 14.8619 12.4008 14.652 12.4008C14.4694 12.4008 14.3142 12.5286 14.2777 12.702V14.6919C14.2777 14.8562 14.1499 14.984 13.9856 14.984C13.8213 14.984 13.6935 14.8562 13.6935 14.6919V12.7751C13.6935 12.5651 13.5201 12.3917 13.3102 12.3917C13.1093 12.3917 12.9542 12.5377 12.9268 12.7294V14.6828C12.9268 14.8471 12.799 14.9749 12.6347 14.9749C12.4704 14.9749 12.3426 14.8471 12.3426 14.6828V12.7385C12.3243 12.5469 12.16 12.3917 11.9592 12.3917C11.7493 12.3917 11.5758 12.5742 11.5758 12.7842V15.6595C11.5758 16.0611 11.9227 16.3258 12.3974 16.4628V20.6434C12.3974 21.1454 12.8081 21.5562 13.3102 21.5562C13.8122 21.5562 14.223 21.1454 14.223 20.6434V16.4354ZM17.6551 21.5562C18.1571 21.5562 18.5679 21.1454 18.5679 20.6434V13.1676C18.5679 12.7203 18.2393 12.346 17.8103 12.273C17.7281 12.2365 17.6368 12.2182 17.5182 12.2182C16.295 12.2182 16.0486 12.7751 16.0486 13.4597V16.0337C16.0486 16.5175 16.2494 16.9283 16.7423 17.1382V20.6434C16.7423 21.1454 17.153 21.5562 17.6551 21.5562Z" fill="#445582"/>
</svg>
