<svg width="24" height="24" viewBox="0 0 24 24" fill="none" xmlns="http://www.w3.org/2000/svg">
<path d="M14.225 23.2902C14.265 23.6802 13.985 24.0002 13.595 24.0002H10.425C10.025 24.0002 9.74498 23.6802 9.79498 23.2902L10.165 18.5902C10.215 18.2002 10.575 17.8802 10.965 17.8802H13.055C13.445 17.8802 13.805 18.2002 13.855 18.5902L14.225 23.2902Z" fill="#445582"/>
<path d="M20.895 10.3502C20.895 10.3502 20.475 6.0702 20.305 4.3702C20.115 2.4802 19.675 1.9202 18.355 1.2902C16.445 0.390197 14.305 0.000197051 12.055 0.000197051C9.80498 -0.00980295 7.66498 0.360197 5.74498 1.2502C4.41498 1.8702 3.97498 2.4202 3.76498 4.3102C3.58498 6.0102 3.13498 10.2802 3.13498 10.2802C3.13498 10.8302 3.10498 17.4502 3.10498 17.4502H3.13498C3.13498 17.5002 3.12498 17.5502 3.12498 17.6102C3.12498 19.3902 4.56498 20.8302 6.34498 20.8302H8.39498L8.61498 18.0202C8.73498 16.9502 9.68498 16.1102 10.755 16.1102H13.235C14.305 16.1102 15.245 16.9502 15.375 18.0602L15.595 20.8302H17.645C19.425 20.8302 20.865 19.3902 20.865 17.6102C20.865 17.5702 20.865 17.5402 20.865 17.5102C20.865 17.4502 20.885 10.9002 20.895 10.3502ZM10.605 14.5502C9.88498 14.5502 9.30498 13.9602 9.30498 13.2502C9.30498 12.5302 9.89498 11.9502 10.615 11.9502H13.605C14.325 11.9502 14.905 12.5402 14.905 13.2602C14.905 13.9802 14.315 14.5602 13.595 14.5602H10.605V14.5502ZM18.195 10.4002C16.565 10.4002 6.81498 10.3602 5.90498 10.3602C5.41498 10.3602 5.06498 9.9602 5.10498 9.4902C5.25498 7.5902 5.36498 5.8302 5.60498 3.9302C5.60498 2.7502 8.48498 1.8002 12.045 1.8002C15.605 1.8002 18.485 2.7502 18.485 3.9302C18.485 3.9502 18.815 7.5902 18.955 9.5302C18.995 10.0802 18.615 10.4102 18.195 10.4102V10.4002Z" fill="#445582"/>
</svg>
