<svg width="24" height="24" viewBox="0 0 24 24" fill="none" xmlns="http://www.w3.org/2000/svg">
<path d="M20.07 13.4151H19.75C19.05 11.2851 17.11 9.7651 15.04 9.7651C14.71 9.7651 14.38 9.7951 14.05 9.8651C13.16 8.0451 11.32 6.8851 9.29 6.8851C6.51 6.8851 4.19 9.0751 4 11.8151C1.7 12.1851 0 14.1551 0 16.5151C0 19.1351 2.13 21.2751 4.75 21.2751H20.07C22.23 21.2751 24 19.5151 24 17.3451C24 15.1751 22.24 13.4151 20.07 13.4151ZM20.07 19.2751H4.75C3.23 19.2751 1.99 18.0351 1.99 16.5151C1.99 14.9951 3.23 13.7551 4.75 13.7551H5.64C5.82 13.7551 5.97 13.6051 5.97 13.4251V12.2051C5.97 10.3751 7.46 8.8851 9.29 8.8851C11.12 8.8851 12.6 10.3651 12.61 12.1851C12.61 12.3151 12.68 12.4251 12.8 12.4851C12.92 12.5351 13.05 12.5251 13.15 12.4451C13.68 12.0051 14.35 11.7651 15.04 11.7651C16.75 11.7651 18.03 13.5151 18.03 15.0851C18.03 15.2651 18.18 15.4151 18.36 15.4151H20.07C21.14 15.4151 22.01 16.2851 22.01 17.3451C22.01 18.4051 21.14 19.2851 20.07 19.2851V19.2751Z" fill="#445582"/>
<path d="M14.72 8.5151C14.83 8.5151 14.93 8.5151 15.04 8.5151C16.93 8.5151 18.71 9.5051 19.89 11.0551C20.55 10.1851 20.95 9.1051 20.95 7.9351C20.95 5.0551 18.62 2.7251 15.74 2.7251C13.6 2.7251 11.77 4.0151 10.97 5.8651C12.5 6.2651 13.83 7.1951 14.72 8.5251V8.5151Z" fill="#445582"/>
</svg>
