<svg width="24" height="24" viewBox="0 0 24 24" fill="none" xmlns="http://www.w3.org/2000/svg">
<path d="M12 1.43994C5.37 1.43994 0 6.16994 0 11.9999C0 17.8299 5.37 22.5599 12 22.5599C18.63 22.5599 24 17.8299 24 11.9999C24 6.16994 18.63 1.43994 12 1.43994ZM17.64 18.5799H16.14C15.98 18.5799 15.85 18.4599 15.82 18.2999C15.56 16.7699 14.48 15.5299 13.07 15.1099V18.7099C13.07 18.8899 12.92 19.0399 12.74 19.0399H11.25C11.07 19.0399 10.92 18.8899 10.92 18.7099V15.1099C9.51 15.5299 8.43 16.7699 8.17 18.2999C8.14 18.4599 8.01 18.5799 7.85 18.5799H6.35C6.16 18.5799 5.99 18.4099 6.02 18.2099C6.36 15.4799 8.36 13.2899 10.92 12.8099V11.1999C8.36 10.7199 6.36 8.52994 6.02 5.79994C6 5.60994 6.16 5.42994 6.35 5.42994H7.85C8.01 5.42994 8.14 5.54994 8.17 5.70994C8.43 7.23994 9.51 8.47994 10.92 8.89994V5.29994C10.92 5.11994 11.07 4.96994 11.25 4.96994H12.74C12.92 4.96994 13.07 5.11994 13.07 5.29994V8.89994C14.48 8.47994 15.56 7.23994 15.82 5.70994C15.85 5.54994 15.98 5.42994 16.14 5.42994H17.64C17.84 5.42994 18 5.59994 17.97 5.79994C17.63 8.53994 15.63 10.7199 13.07 11.1999V12.8099C15.63 13.2999 17.63 15.4799 17.97 18.2099C17.99 18.3999 17.83 18.5799 17.64 18.5799Z" fill="#445582"/>
</svg>
