<svg width="24" height="24" viewBox="0 0 24 24" fill="none" xmlns="http://www.w3.org/2000/svg">
<path d="M10.8 22.1851C10.65 22.1051 10.49 22.0651 10.32 22.0651H2.44C2.04 22.0651 1.72 21.7051 1.72 21.2651V2.73512C1.72 2.29512 2.04 1.93512 2.44 1.93512H12.26C12.66 1.93512 12.98 2.29512 12.98 2.73512V3.98512C12.98 4.45512 13.36 4.84512 13.84 4.84512C14.31 4.84512 14.7 4.46512 14.7 3.98512V2.73512C14.7 1.22512 13.6 -0.00488281 12.26 -0.00488281H2.44C1.09 -0.00488281 0 1.22512 0 2.73512V21.2651C0 22.7751 1.09 24.0051 2.44 24.0051H13.26C13.51 24.0051 13.59 23.6751 13.37 23.5551L10.81 22.1951L10.8 22.1851Z" fill="#445582"/>
<path d="M23.84 16.1151L21.51 14.8451C21.35 14.7551 21.1 14.7551 20.93 14.8451L20.35 15.1651C20.25 15.2251 20.19 15.3051 20.19 15.4051C20.19 15.5051 20.25 15.5851 20.35 15.6351L21.43 16.2151L21.64 16.3351C21.65 16.3351 21.66 16.3451 21.66 16.3451C21.66 16.3451 21.65 16.3451 21.64 16.3651L20.35 17.0651C20.25 17.1251 20.19 17.2051 20.19 17.2951C20.19 17.3851 20.25 17.4751 20.35 17.5351L20.93 17.8551C21.01 17.9051 21.12 17.9251 21.22 17.9251C21.32 17.9251 21.43 17.9051 21.51 17.8551L23.84 16.5851C23.94 16.5251 24 16.4451 24 16.3451C24 16.2451 23.94 16.1651 23.84 16.1051V16.1151Z" fill="#445582"/>
<path d="M16.44 20.1351L15.86 19.8151C15.69 19.7251 15.45 19.7251 15.28 19.8151L14.05 20.4851L13.99 20.5151C13.9 20.5651 13.74 20.5651 13.65 20.5151L12.36 19.8151C12.2 19.7251 11.95 19.7251 11.78 19.8151L11.2 20.1351C11.1 20.1951 11.04 20.2751 11.04 20.3751C11.04 20.4751 11.1 20.5551 11.2 20.6051L13.53 21.8751C13.61 21.9151 13.72 21.9451 13.82 21.9451C13.92 21.9451 14.03 21.9251 14.11 21.8751L16.44 20.6051C16.54 20.5451 16.6 20.4651 16.6 20.3651C16.6 20.2651 16.54 20.1851 16.44 20.1251V20.1351Z" fill="#445582"/>
<path d="M7.3 17.0651L6.13 16.4351L5.92 16.3151C5.91 16.3151 5.9 16.3051 5.9 16.3051C5.9 16.3051 5.91 16.3051 5.92 16.2851L7.21 15.5851C7.31 15.5251 7.37 15.4451 7.37 15.3551C7.37 15.2651 7.31 15.1751 7.21 15.1151L6.72 14.8451C6.55 14.7551 6.31 14.7551 6.14 14.8451L3.81 16.1151C3.71 16.1751 3.65 16.2551 3.65 16.3451C3.65 16.4351 3.71 16.5251 3.81 16.5851L6.14 17.8551C6.22 17.9051 6.33 17.9251 6.43 17.9251C6.53 17.9251 6.64 17.9051 6.72 17.8551L7.3 17.5351C7.4 17.4751 7.46 17.3951 7.46 17.2951C7.46 17.1951 7.4 17.1151 7.3 17.0651Z" fill="#445582"/>
<path d="M21.09 4.34512C19.39 3.08512 17.12 3.24512 16.03 4.70512C15.46 5.47512 15.33 6.45512 15.58 7.40512C15.02 7.22512 14.44 7.09512 13.82 7.09512C13.2 7.09512 12.62 7.22512 12.06 7.40512C12.31 6.46512 12.19 5.48512 11.62 4.70512C10.53 3.23512 8.26 3.07512 6.57 4.34512C4.87 5.60512 4.37 7.83512 5.47 9.29512C6.18 10.2651 7.42 10.6551 8.66 10.4451C8.34 11.1651 8.14 11.9551 8.14 12.7951C8.14 15.9351 10.69 18.4851 13.83 18.4851C16.97 18.4851 19.52 15.9351 19.52 12.7951C19.52 11.9551 19.33 11.1651 19 10.4451C20.24 10.6551 21.48 10.2651 22.2 9.29512C23.29 7.83512 22.8 5.61512 21.09 4.34512ZM13.83 17.3951C11.28 17.3951 9.22 15.3251 9.22 12.7851C9.22 10.2451 11.28 8.16512 13.83 8.16512C16.38 8.16512 18.44 10.2351 18.44 12.7851C18.44 15.3351 16.38 17.3951 13.83 17.3951Z" fill="#445582"/>
<path d="M13.83 8.94512C11.72 8.94512 10 10.6651 10 12.7851C10 14.9051 11.72 16.6151 13.83 16.6151C15.94 16.6151 17.66 14.8951 17.66 12.7851C17.66 10.6751 15.94 8.94512 13.83 8.94512ZM16.77 12.7751C16.77 14.4051 15.45 15.7251 13.82 15.7251C12.19 15.7251 10.87 14.4051 10.87 12.7751C10.87 11.1451 12.19 9.82512 13.82 9.82512C15.45 9.82512 16.77 11.1451 16.77 12.7751Z" fill="#445582"/>
<path d="M13.83 11.3951C13.07 11.3951 12.45 12.0151 12.45 12.7751C12.45 13.5351 13.07 14.1551 13.83 14.1551C14.59 14.1551 15.21 13.5351 15.21 12.7751C15.21 12.0151 14.59 11.3951 13.83 11.3951Z" fill="#445582"/>
</svg>
