<svg width="24" height="24" viewBox="0 0 24 24" fill="none" xmlns="http://www.w3.org/2000/svg">
<path d="M8.51 5.91504C8.94 5.91504 9.28 6.25504 9.28 6.66504V14.745C9.28 15.155 8.94 15.495 8.51 15.495C8.08 15.495 7.75 15.155 7.75 14.745V6.66504C7.75 6.25504 8.09 5.91504 8.51 5.91504Z" fill="#445582"/>
<path d="M16.85 14.775C16.85 15.175 16.52 15.505 16.12 15.505C15.76 15.505 15.49 15.245 15.4 14.915C14.88 15.285 14.26 15.505 13.57 15.505C12.63 15.505 11.82 15.125 11.23 14.505C10.64 13.875 10.29 13.025 10.29 12.095C10.29 11.165 10.63 10.305 11.23 9.68504C11.82 9.05504 12.64 8.65504 13.57 8.65504C14.26 8.65504 14.88 8.88504 15.4 9.25504C15.48 8.91504 15.76 8.65504 16.12 8.65504C16.52 8.65504 16.85 8.98504 16.85 9.39504V14.775ZM15.38 12.095C15.38 11.515 15.17 11.025 14.84 10.685C14.51 10.315 14.04 10.125 13.56 10.125C13.08 10.125 12.6 10.315 12.28 10.685C11.95 11.025 11.76 11.525 11.76 12.095C11.76 12.665 11.95 13.145 12.28 13.505C12.6 13.845 13.07 14.035 13.56 14.035C14.05 14.035 14.51 13.845 14.84 13.505C15.17 13.145 15.38 12.655 15.38 12.095Z" fill="#445582"/>
<path d="M24 9.37504V14.555C24 16.395 22.54 17.825 20.71 17.825C20.21 17.825 19.7 17.685 19.29 17.485C18.9 17.325 18.77 16.895 18.93 16.515C19.11 16.185 19.58 16.035 19.91 16.215C20.17 16.335 20.43 16.405 20.71 16.405C21.52 16.395 22.21 15.875 22.43 15.155C22.04 15.375 21.58 15.485 21.12 15.485C19.53 15.485 18.24 14.185 18.24 12.605V9.37504C18.24 8.96504 18.58 8.64504 18.96 8.64504C19.39 8.64504 19.69 8.96504 19.69 9.37504V12.605C19.69 13.395 20.34 14.005 21.12 14.005C21.9 14.005 22.54 13.405 22.54 12.605V9.37504C22.54 8.96504 22.84 8.64504 23.26 8.64504C23.68 8.64504 24 8.96504 24 9.37504Z" fill="#445582"/>
<path d="M3.36 8.65504C2.66 8.65504 2 8.88504 1.49 9.21504C1.43 8.91504 1.12 8.65504 0.73 8.65504C0.34 8.65504 0 8.98504 0 9.38504V17.345C0 17.725 0.33 18.085 0.73 18.085C1.17 18.085 1.52 17.725 1.52 17.345V14.935C2.02 15.295 2.68 15.495 3.37 15.495C5.2 15.495 6.71 13.975 6.71 12.095C6.71 10.215 5.21 8.65504 3.37 8.65504M5.36 11.745C5.19 11.975 4.89 12.065 4.59 12.015C4.67 12.185 4.71 12.375 4.71 12.575C4.71 13.325 4.1 13.935 3.34 13.935C2.58 13.935 1.97 13.325 1.97 12.575C1.97 12.375 2.02 12.185 2.09 12.015C1.79 12.065 1.5 11.975 1.32 11.745C1.06 11.395 1.18 10.865 1.59 10.565C2 10.265 2.54 10.305 2.8 10.655C2.94 10.835 2.97 11.075 2.91 11.295C3.04 11.255 3.18 11.225 3.33 11.225C3.48 11.225 3.62 11.255 3.75 11.295C3.69 11.075 3.72 10.835 3.86 10.655C4.12 10.305 4.67 10.265 5.07 10.565C5.48 10.865 5.6 11.395 5.34 11.745" fill="#445582"/>
</svg>
