<svg width="24" height="24" viewBox="0 0 24 24" fill="none" xmlns="http://www.w3.org/2000/svg">
<path d="M19.3801 8.55002V1.48999C19.3801 0.66999 18.7101 0 17.8901 0H6.11014C5.29014 0 4.62012 0.66999 4.62012 1.48999V8.55002H19.3801ZM6.28012 2.98001C6.28012 2.62001 6.57011 2.33002 6.93011 2.33002C7.29011 2.33002 7.58011 2.62001 7.58011 2.98001V7.20999H6.28012V2.98001Z" fill="#445582"/>
<path d="M4.62012 9.70999V22.51C4.62012 23.33 5.29014 24 6.11014 24H17.8901C18.7101 24 19.3801 23.33 19.3801 22.51V9.70999H4.62012ZM7.58011 15.27C7.58011 15.63 7.29011 15.92 6.93011 15.92C6.57011 15.92 6.28012 15.63 6.28012 15.27V11.04H7.58011V15.27Z" fill="#445582"/>
</svg>
