<svg width="24" height="24" viewBox="0 0 24 24" fill="none" xmlns="http://www.w3.org/2000/svg">
<path d="M21.0546 6.95486C20.9946 6.95486 20.9346 6.94486 20.8746 6.92486L20.0746 6.61486C19.8246 6.51486 19.6946 6.23488 19.7946 5.97488C19.8946 5.72488 20.1746 5.59488 20.4346 5.69488L21.2346 6.00488C21.4846 6.10488 21.6146 6.38486 21.5146 6.64486C21.4346 6.83486 21.2546 6.95486 21.0546 6.95486ZM18.5546 5.96487C18.4946 5.96487 18.4346 5.95487 18.3746 5.93487L17.5746 5.62487C17.3246 5.52487 17.1946 5.24486 17.2946 4.98486C17.3946 4.73486 17.6746 4.60486 17.9346 4.70486L18.7346 5.01486C18.9846 5.11486 19.1146 5.39487 19.0146 5.65487C18.9346 5.84487 18.7546 5.96487 18.5546 5.96487ZM16.0446 4.97488C15.9846 4.97488 15.9246 4.96488 15.8646 4.94488L15.0646 4.63488C14.8146 4.53488 14.6846 4.25487 14.7846 3.99487C14.8846 3.74487 15.1646 3.61487 15.4246 3.71487L16.2246 4.02487C16.4746 4.12487 16.6046 4.40488 16.5046 4.66488C16.4246 4.85488 16.2446 4.97488 16.0446 4.97488ZM13.5446 3.99487C13.4846 3.99487 13.4246 3.98487 13.3646 3.96487L12.5646 3.65487C12.3146 3.55487 12.1846 3.27486 12.2846 3.01486C12.3846 2.76486 12.6646 2.63486 12.9246 2.73486L13.7246 3.04485C13.9746 3.14485 14.1046 3.42487 14.0046 3.68487C13.9246 3.87487 13.7446 3.99487 13.5446 3.99487Z" fill="#445582"/>
<path d="M17.3146 9.93486C17.1946 9.93486 17.0746 9.88485 16.9746 9.79485L16.3546 9.20485C16.1546 9.01485 16.1546 8.70485 16.3346 8.51485C16.5246 8.31485 16.8346 8.31486 17.0246 8.49486L17.6446 9.08485C17.8446 9.27485 17.8446 9.58486 17.6646 9.77486C17.5646 9.87486 17.4346 9.92485 17.3146 9.92485V9.93486ZM15.3746 8.07484C15.2546 8.07484 15.1346 8.02486 15.0346 7.93486L14.4146 7.34486C14.2146 7.15486 14.2146 6.84486 14.3946 6.65486C14.5746 6.46486 14.8946 6.45487 15.0846 6.63487L15.7046 7.22487C15.9046 7.41487 15.9046 7.72487 15.7246 7.91487C15.6246 8.01487 15.5046 8.06487 15.3746 8.06487V8.07484ZM13.4346 6.21486C13.3146 6.21486 13.1946 6.16484 13.0946 6.07484L12.4746 5.48485C12.2746 5.29485 12.2746 4.98485 12.4546 4.79485C12.6446 4.59485 12.9546 4.59486 13.1446 4.77486L13.7646 5.36485C13.9646 5.55485 13.9646 5.86486 13.7846 6.05486C13.6846 6.15486 13.5646 6.20485 13.4346 6.20485V6.21486ZM11.4846 4.35484C11.3646 4.35484 11.2446 4.30486 11.1446 4.21486L10.5246 3.62486C10.3246 3.43486 10.3246 3.12486 10.5046 2.93486C10.6846 2.74486 11.0046 2.73487 11.1946 2.91487L11.8146 3.50487C12.0146 3.69487 12.0146 4.00487 11.8346 4.19487C11.7346 4.29487 11.6146 4.34486 11.4846 4.34486V4.35484Z" fill="#445582"/>
<path d="M23.0346 2.45486H22.2446C21.9746 2.44486 21.7546 2.21489 21.7646 1.94489C21.7646 1.67489 21.9846 1.46487 22.2646 1.46487H23.0446C23.3146 1.47487 23.5346 1.70488 23.5246 1.97488C23.5246 2.24488 23.3046 2.45486 23.0346 2.45486ZM19.5546 2.41489C19.2846 2.39489 19.0646 2.17488 19.0746 1.90488C19.0746 1.63488 19.3046 1.41487 19.5746 1.42487H20.4346C20.7046 1.44487 20.9246 1.66488 20.9146 1.93488C20.9146 2.20488 20.6946 2.41489 20.4246 2.41489H19.5546ZM17.7246 2.38489H16.8646C16.5946 2.36489 16.3746 2.14488 16.3846 1.87488C16.3846 1.60488 16.6046 1.39487 16.8746 1.39487H17.7346C18.0046 1.41487 18.2246 1.63488 18.2146 1.90488C18.2146 2.17488 17.9946 2.38489 17.7246 2.38489ZM14.1746 2.34488C13.9046 2.32488 13.6846 2.10487 13.6946 1.83487C13.6946 1.56487 13.9246 1.34486 14.1946 1.35486H15.0546C15.3246 1.37486 15.5446 1.59487 15.5346 1.86487C15.5346 2.13487 15.3146 2.34488 15.0446 2.34488H14.1746ZM12.3446 2.30487H11.4846C11.2146 2.28487 10.9946 2.06486 11.0046 1.79486C11.0046 1.52486 11.2246 1.31488 11.4946 1.31488H12.3546C12.6246 1.33488 12.8446 1.55486 12.8346 1.82486C12.8346 2.09486 12.6146 2.30487 12.3446 2.30487Z" fill="#445582"/>
<path d="M9.41461 2.51486C9.75151 2.51486 10.0246 2.24177 10.0246 1.90488C10.0246 1.56798 9.75151 1.29486 9.41461 1.29486C9.07772 1.29486 8.80457 1.56798 8.80457 1.90488C8.80457 2.24177 9.07772 2.51486 9.41461 2.51486Z" fill="#445582"/>
<path d="M8.42456 3.85486H4.25458C4.10458 3.85486 3.9746 3.97488 3.9646 4.12488L3.85461 5.64487C3.85461 5.80487 3.97459 5.94489 4.14459 5.94489H8.5246C8.6846 5.94489 8.81458 5.80487 8.81458 5.64487L8.70459 4.12488C8.70459 3.97488 8.57461 3.85486 8.41461 3.85486H8.42456Z" fill="#445582"/>
<path d="M7.8446 3.26486H4.83459L4.94458 0.664886C4.96458 0.294886 5.26458 0.00488281 5.63458 0.00488281H7.04462C7.41462 0.00488281 7.72462 0.294886 7.73462 0.664886L7.8446 3.26486Z" fill="#445582"/>
<path d="M7.87457 12.2049C7.87457 12.2049 7.85459 12.1549 7.82458 12.1349C7.37459 11.8749 6.85459 11.7449 6.33459 11.7449C4.66459 11.7449 3.30457 13.1049 3.30457 14.7749C3.30457 15.2949 3.44459 15.8149 3.70459 16.2649C3.71459 16.2849 3.7446 16.3049 3.7746 16.3149C3.7746 16.3149 3.77461 16.3149 3.78461 16.3149C3.80461 16.3149 3.8346 16.3149 3.8446 16.2849L7.8446 12.2849C7.8446 12.2849 7.87457 12.2349 7.87457 12.2049Z" fill="#445582"/>
<path d="M8.9046 13.2349C8.9046 13.2349 8.84459 13.2349 8.82458 13.2649L4.82458 17.2649C4.82458 17.2649 4.79462 17.3149 4.79462 17.3449C4.79462 17.3749 4.8146 17.3949 4.8446 17.4149C5.3046 17.6749 5.81459 17.8049 6.33459 17.8049C8.00459 17.8049 9.36456 16.4449 9.36456 14.7749C9.36456 14.2549 9.22461 13.7349 8.97461 13.2849C8.96461 13.2649 8.9346 13.2449 8.9046 13.2349Z" fill="#445582"/>
<path d="M4.13458 7.08487C2.11458 7.08487 0.474609 8.72487 0.474609 10.7449V22.7749C0.474609 23.4449 1.02458 23.9949 1.69458 23.9949H10.9946C11.6646 23.9949 12.2146 23.4449 12.2146 22.7749V10.7449C12.2146 8.72487 10.5746 7.08487 8.55457 7.08487H4.13458ZM6.3446 19.0549C3.9846 19.0549 2.06458 17.1349 2.06458 14.7749C2.06458 12.4149 3.9846 10.4949 6.3446 10.4949C8.7046 10.4949 10.6246 12.4149 10.6246 14.7749C10.6246 17.1349 8.7046 19.0549 6.3446 19.0549Z" fill="#445582"/>
<path d="M16.8745 12.7249C17.5745 14.2949 18.2546 15.4749 17.8846 15.5249C17.5446 15.5749 16.8246 14.7349 15.6546 13.3349C14.5746 12.0549 13.8846 10.9149 14.6446 10.5349C15.3546 10.1749 16.2145 11.2449 16.8745 12.7249Z" fill="#445582"/>
<path d="M19.5346 12.7149C18.8446 14.2849 18.1546 15.4649 18.5346 15.5249C18.8746 15.5749 19.5946 14.7449 20.7746 13.3349C21.8546 12.0549 22.5446 10.9149 21.7746 10.5249C21.0546 10.1649 20.1846 11.2249 19.5346 12.7149Z" fill="#445582"/>
<path d="M22.8045 16.8349C21.2245 16.5749 19.1246 16.2249 19.0046 16.2149C18.3646 16.2049 18.1646 16.6049 18.1046 16.8949C17.9846 16.2449 17.4245 15.7549 16.7445 15.7549C15.9845 15.7549 15.3645 16.3749 15.3645 17.1349C15.3645 17.6049 15.6046 18.0149 15.9546 18.2649L15.1145 21.3949C15.0645 21.5949 15.1745 21.7949 15.3745 21.8449C15.4045 21.8449 15.4346 21.8549 15.4746 21.8549C15.6346 21.8549 15.7846 21.7449 15.8246 21.5849L16.6446 18.5049C16.6446 18.5049 16.7046 18.5049 16.7346 18.5049C17.4146 18.5049 17.9746 18.0149 18.0846 17.3649C18.1346 17.5749 18.2346 17.7449 18.3846 17.8649C18.5346 17.9849 18.7346 18.0649 18.9846 18.0449C19.2446 18.0149 21.2646 17.6749 22.7846 17.4049C23.1146 17.3449 23.1146 16.8749 22.7846 16.8149L22.8045 16.8349Z" fill="#445582"/>
</svg>
