<svg width="24" height="24" viewBox="0 0 24 24" fill="none" xmlns="http://www.w3.org/2000/svg">
<path d="M10.2902 12.76H5.39026C4.96026 12.76 4.60022 13.11 4.60022 13.55C4.60022 13.99 4.95026 14.34 5.39026 14.34H10.2902C10.7202 14.34 11.0802 13.99 11.0802 13.55C11.0802 13.11 10.7302 12.76 10.2902 12.76Z" fill="#445582"/>
<path d="M8.84021 16.24H5.39026C4.96026 16.24 4.60022 16.59 4.60022 17.03C4.60022 17.47 4.95026 17.82 5.39026 17.82H8.84021C9.27021 17.82 9.63025 17.47 9.63025 17.03C9.63025 16.59 9.28021 16.24 8.84021 16.24Z" fill="#445582"/>
<path d="M17.2002 12.38C13.9902 12.38 11.3903 14.98 11.3903 18.19C11.3903 21.4 13.9902 24 17.2002 24C20.4102 24 23.0103 21.4 23.0103 18.19C23.0103 14.98 20.4102 12.38 17.2002 12.38ZM20.3802 16.09L16.6503 21.54C16.4703 21.8 16.1702 21.96 15.8502 21.97H15.8202C15.5102 21.97 15.2203 21.83 15.0303 21.58L13.5103 19.58C13.1703 19.14 13.2602 18.52 13.7002 18.18C14.1402 17.85 14.7602 17.93 15.1002 18.37L15.7902 19.27L18.7402 14.96C19.0502 14.51 19.6702 14.39 20.1302 14.7C20.5802 15.01 20.7003 15.63 20.3903 16.09H20.3802Z" fill="#445582"/>
<path d="M17.2002 10.84V1.82H2.81018V20.34H10.1102C10.3002 20.99 10.5902 21.6 10.9402 22.16H2.81018C1.81018 22.16 0.990234 21.34 0.990234 20.34V1.82C0.990234 0.82 1.81018 0 2.81018 0H17.2002C18.2002 0 19.0203 0.82 19.0203 1.82V11.07C18.4403 10.92 17.8302 10.83 17.2002 10.83V10.84Z" fill="#445582"/>
<path d="M11.6802 3.62L9.80017 3.17C9.80017 3.17 9.76023 3.17 9.74023 3.18C9.72023 3.19 9.72021 3.21 9.72021 3.23V4.14C9.72021 4.14 9.72023 4.18 9.74023 4.19C9.75023 4.19 9.77027 4.2 9.78027 4.2C9.78027 4.2 9.78017 4.2 9.80017 4.2L11.6802 3.74C11.6802 3.74 11.7302 3.71 11.7302 3.68C11.7302 3.65 11.7102 3.62 11.6802 3.62Z" fill="#445582"/>
<path d="M12.6302 6.44L10.4402 4.67C10.2002 4.45 9.81019 4.45 9.57019 4.67L7.38025 6.44C7.14025 6.66 6.94019 6.71 6.94019 7.04V10.38C6.94019 10.7 7.20027 10.77 7.53027 10.77H9.49023V8.92H10.5203V10.77H12.4802C12.8002 10.77 13.0702 10.7 13.0702 10.38V7.04C13.0702 6.72 12.8702 6.66 12.6302 6.44ZM8.77026 9.96H7.74023V8.91H8.77026V9.96ZM8.77026 8.19H7.74023V7.11H8.77026V8.19ZM10.5203 8.19H9.49023V7.11H10.5203V8.19ZM12.2803 9.96H11.2502V8.91H12.2803V9.96ZM12.2803 8.19H11.2502V7.11H12.2803V8.19Z" fill="#445582"/>
</svg>
