<svg width="24" height="24" viewBox="0 0 24 24" fill="none" xmlns="http://www.w3.org/2000/svg">
<path d="M1.39998 2.31998H10.9C11.41 2.31998 11.82 1.90998 11.82 1.39998C11.82 0.88998 11.41 0.47998 10.9 0.47998H1.39998C0.88998 0.47998 0.47998 0.88998 0.47998 1.39998C0.47998 1.90998 0.88998 2.31998 1.39998 2.31998Z" fill="#445582"/>
<path d="M7.33998 21.6801H10.9C11.41 21.6801 11.82 22.0901 11.82 22.6001C11.82 23.1101 11.41 23.5201 10.9 23.5201H1.39998C0.88998 23.5201 0.47998 23.1101 0.47998 22.6001C0.47998 22.0901 0.88998 21.6801 1.39998 21.6801H5.49998V4.60005C5.49998 4.09005 5.90998 3.68005 6.41998 3.68005C6.92998 3.68005 7.33998 4.09005 7.33998 4.60005V21.6801Z" fill="#445582"/>
<path d="M17.7099 6.60998C19.3999 6.60998 20.7799 5.23998 20.7799 3.53998C20.7799 1.83998 19.4099 0.47998 17.7099 0.47998C16.0099 0.47998 14.6499 1.84998 14.6499 3.53998C14.6499 5.22998 16.0199 6.60998 17.7099 6.60998Z" fill="#445582"/>
<path d="M15.0201 7.59998H20.3901C22.1101 7.59998 23.5201 8.50998 23.5201 10.23V15.35C23.5201 15.94 23.0501 16.42 22.4701 16.42C21.8901 16.42 21.4101 15.94 21.4101 15.35V10.97H20.8601V22.1C20.8601 22.88 20.2201 23.52 19.4301 23.52C18.6401 23.52 18.0001 22.89 18.0001 22.1V16.47H17.4201V22.1C17.4201 22.88 16.7801 23.52 15.9901 23.52C15.2001 23.52 14.5501 22.89 14.5501 22.1V10.97H14.0001V15.35C14.0001 15.94 13.5301 16.42 12.9401 16.42C12.3501 16.42 11.8901 15.94 11.8901 15.35V10.23C11.8901 8.50998 13.3001 7.59998 15.0201 7.59998Z" fill="#445582"/>
</svg>
