<svg width="24" height="24" viewBox="0 0 24 24" fill="none" xmlns="http://www.w3.org/2000/svg">
<path d="M19.0734 21.2623C19.0734 22.5123 18.0534 23.5223 16.8134 23.5223C15.5734 23.5223 14.5434 22.5123 14.5434 21.2623C14.5434 20.0123 15.5634 18.9923 16.8134 18.9923C18.0634 18.9923 19.0734 20.0023 19.0734 21.2623Z" fill="#445582"/>
<path d="M22.6634 2.01226C22.2134 1.17226 21.5034 0.652257 20.6034 0.512257C19.4034 0.332257 18.1234 0.882257 17.4734 1.52226C16.8334 2.14226 7.17338 14.4923 3.65338 19.0023C3.59338 19.0023 3.54338 18.9823 3.48338 18.9823C2.23338 18.9823 1.21338 19.9923 1.21338 21.2523C1.21338 22.5123 2.22338 23.5123 3.48338 23.5123C4.74338 23.5123 5.74338 22.5023 5.74338 21.2523C5.74338 20.7223 5.55338 20.2323 5.24338 19.8423C5.66338 19.3023 6.10338 18.7423 6.54338 18.1823H14.9134C14.9134 18.1823 17.3034 18.1123 17.5234 16.3323V4.25226C18.1734 3.44226 18.6034 2.91226 18.7234 2.79226C19.0034 2.52226 19.7434 2.18226 20.3434 2.27226C20.6834 2.32226 20.9334 2.50226 21.1134 2.84226C21.3434 3.27226 21.8734 3.43226 22.3134 3.21226C22.7434 2.98226 22.9134 2.45226 22.6834 2.01226H22.6634Z" fill="#445582"/>
</svg>
