<svg width="24" height="24" viewBox="0 0 24 24" fill="none" xmlns="http://www.w3.org/2000/svg">
<path d="M12 0.47998C5.64998 0.47998 0.47998 5.64998 0.47998 12C0.47998 18.35 5.64998 23.52 12 23.52C18.35 23.52 23.52 18.35 23.52 12C23.52 5.64998 18.35 0.47998 12 0.47998ZM12 1.41998C17.83 1.41998 22.58 6.15998 22.58 12C22.58 14.18 21.92 16.21 20.78 17.89H19.72C19.61 17.2 19.4 16.53 19.11 15.91C19.84 15.41 20.32 14.58 20.32 13.63C20.32 12.11 19.09 10.88 17.57 10.88C16.62 10.88 15.79 11.36 15.29 12.09C14.69 11.81 14.05 11.61 13.38 11.5V9.45998L11.7 7.48998V11.4C11.49 11.4 11.28 11.43 11.07 11.46V4.34998L9.38998 2.58998V11.88C9.19998 11.95 9.00998 12.03 8.82998 12.12V5.99998L7.14998 7.96998V13.17C5.71998 14.34 4.71998 16.01 4.40998 17.91H3.21998C2.08998 16.23 1.41998 14.2 1.41998 12.02C1.41998 6.16998 6.16998 1.41998 12 1.41998ZM17.57 16.39C17.78 16.39 17.99 16.36 18.19 16.32C18.42 16.82 18.59 17.34 18.7 17.9H13.38V12.53C13.91 12.63 14.41 12.8 14.89 13.02C14.84 13.22 14.82 13.43 14.82 13.64C14.82 15.16 16.05 16.39 17.57 16.39ZM18.63 15.02C18.5 15.12 18.35 15.2 18.19 15.26C18.02 15.32 17.85 15.36 17.66 15.37C17.63 15.37 17.6 15.37 17.57 15.37C16.61 15.37 15.83 14.59 15.83 13.63C15.83 13.6 15.83 13.57 15.83 13.54C15.83 13.35 15.88 13.18 15.94 13.01C16 12.85 16.08 12.7 16.18 12.57C16.5 12.15 17 11.88 17.56 11.88C18.52 11.88 19.3 12.66 19.3 13.62C19.3 14.18 19.03 14.68 18.61 15L18.63 15.02ZM11.7 12.41V17.89H11.07V12.47C11.28 12.44 11.49 12.42 11.7 12.41ZM9.38998 12.95V17.89H8.82998V13.22C9.00998 13.12 9.19998 13.03 9.38998 12.94V12.95ZM7.14998 14.53V17.89H5.42998C5.66998 16.6 6.27998 15.44 7.14998 14.53ZM3.98998 18.9H20C19.74 19.21 19.45 19.5 19.16 19.77H4.83998C4.53998 19.5 4.25998 19.2 3.99998 18.9H3.98998ZM6.10998 20.78H17.89C16.21 21.91 14.18 22.58 12 22.58C9.81998 22.58 7.78998 21.92 6.10998 20.78Z" fill="#445582"/>
</svg>
