<svg width="24" height="24" viewBox="0 0 24 24" fill="none" xmlns="http://www.w3.org/2000/svg">
<path d="M21.1371 13.535C21.6571 13.475 22.1571 13.325 22.6271 13.065C23.5071 12.565 24.0071 11.695 23.9571 10.725C23.8971 9.565 23.0471 8.995 22.4371 8.575C22.1971 8.415 21.8371 8.175 21.8371 8.055C21.6671 4.785 20.4471 2.535 18.2171 1.355C16.9771 0.705001 15.5371 0.00500107 14.0571 0.00500107C13.2471 0.00500107 12.5171 0.225001 11.8871 0.645001C10.8771 1.325 8.40708 3.125 7.13708 5.175C6.24708 6.615 7.46708 8.355 7.99708 9.005C7.81708 10.365 8.25708 11.265 8.65708 11.785C8.63708 11.805 8.61709 11.825 8.59708 11.845H3.90708C3.38708 11.845 2.93708 12.195 2.76708 12.715L0.107085 22.295C-0.0229155 22.685 0.0370845 23.115 0.267085 23.455C0.487085 23.795 0.857085 23.995 1.24708 23.995H22.4271C22.8171 23.995 23.1871 23.795 23.4071 23.455C23.6371 23.115 23.6971 22.685 23.5671 22.295L21.1371 13.525V13.535ZM8.59708 7.595C8.24708 7.035 7.95708 6.335 8.24708 5.865C9.41708 3.975 11.8871 2.225 12.6171 1.735C13.0271 1.455 13.4971 1.325 14.0471 1.325C15.2171 1.325 16.4871 1.945 17.5871 2.525C19.4071 3.485 20.3571 5.315 20.5071 8.125C20.5471 8.905 21.1771 9.335 21.6971 9.675C22.2671 10.055 22.6171 10.315 22.6371 10.795C22.6671 11.395 22.2971 11.735 21.9871 11.915C21.5971 12.135 21.1671 12.245 20.7071 12.245C19.8771 12.245 19.1371 11.875 18.9171 11.705C18.3471 11.255 17.9771 10.545 17.8171 9.585C17.7771 9.345 17.6071 9.145 17.3771 9.065C17.1471 8.985 16.8971 9.035 16.7171 9.205C16.0671 9.795 15.0771 11.165 13.9271 12.745C12.5171 14.675 10.7771 17.085 9.88708 17.655C9.10709 18.145 7.58708 18.575 6.76708 17.955C6.28708 17.595 6.03708 17.165 6.03708 16.715C6.03708 16.245 6.30709 15.765 6.77708 15.405C7.72708 14.685 8.70708 13.695 9.34708 13.015C9.34708 13.015 9.34708 13.015 9.35708 13.015C11.3471 11.025 13.1171 8.745 13.1971 8.645C13.4171 8.355 13.3671 7.945 13.0771 7.715C12.7871 7.485 12.3671 7.545 12.1471 7.835C12.1371 7.855 11.0171 9.275 9.60708 10.825C9.38708 10.465 9.17708 9.865 9.35708 8.945C9.36708 8.885 9.35708 8.825 9.35708 8.765C9.39708 8.735 9.43709 8.715 9.46708 8.675C9.46708 8.675 10.0971 7.865 10.7371 7.115C10.9771 6.835 10.9471 6.425 10.6671 6.185C10.3871 5.945 9.96708 5.975 9.73708 6.255C9.29708 6.765 8.86708 7.305 8.62708 7.605L8.59708 7.595ZM17.2771 11.845H16.2071C16.4271 11.555 16.6371 11.275 16.8271 11.025C16.9471 11.325 17.1071 11.585 17.2771 11.845ZM19.2971 21.505L18.3971 18.275C18.3971 18.275 18.3671 18.225 18.3371 18.225H15.9771C15.9771 18.225 15.9171 18.255 15.9171 18.285V21.495H2.87708L3.00708 20.035H14.1071C14.1071 20.035 14.1671 20.005 14.1671 19.975V16.895H19.6771L20.9371 21.495H19.2971V21.505Z" fill="#445582"/>
</svg>
