<svg width="24" height="24" viewBox="0 0 24 24" fill="none" xmlns="http://www.w3.org/2000/svg">
<path d="M1.99523 2.68415V20.6438H14.8551V21.998C14.8551 22.968 14.0682 23.7651 13.0893 23.7651H2.1008C1.13151 23.7651 0.334961 22.9776 0.334961 21.998V2.00226C0.334961 1.03225 1.13151 0.235107 2.11039 0.235107H13.0893C14.0586 0.235107 14.8551 1.02264 14.8551 2.00226V3.80783H13.2044V2.68415C13.2044 2.62652 13.1565 2.5689 13.0893 2.5689H2.11039C2.05281 2.5689 1.99523 2.61692 1.99523 2.68415Z" fill="#445582"/>
<path d="M21.4191 6.13195C21.4191 6.79497 20.882 7.33246 20.2195 7.33246C19.557 7.33246 19.0199 6.79497 19.0199 6.13195C19.0199 5.46893 19.557 4.93144 20.2195 4.93144C20.882 4.93144 21.4191 5.46893 21.4191 6.13195Z" fill="#445582"/>
<path fill-rule="evenodd" clip-rule="evenodd" d="M23.3772 11.5968L22.0912 8.02405C22.0144 7.82237 21.8225 7.70712 21.6113 7.73593L18.8282 7.72633C18.6939 7.72633 18.5691 7.78395 18.4827 7.8992L17.1008 9.68556C16.9856 9.82962 16.976 10.0217 17.0624 10.185L17.9933 11.8849C18.0796 12.0386 18.2332 12.125 18.3963 12.125C18.4731 12.125 18.5499 12.1058 18.6171 12.0674C18.7226 12.0097 18.7994 11.9041 18.8378 11.7985V15.496C18.8378 15.6305 18.9434 15.7361 19.0777 15.7361H21.381C21.5154 15.7361 21.6209 15.6305 21.6209 15.496V9.38783L22.5326 11.9041C22.6094 12.125 22.8397 12.2402 23.0509 12.1922C23.0701 12.1922 23.0892 12.1826 23.1084 12.173C23.3484 12.0866 23.4635 11.8273 23.3772 11.5872V11.5968ZM18.7994 11.4431L18.0125 10.0025L18.8378 8.93644V11.568C18.8378 11.568 18.8186 11.4911 18.7994 11.4527V11.4431Z" fill="#445582"/>
<path d="M5.45959 16.9654H10.1237L8.74174 19.3664H5.45959C4.7974 19.3664 4.25997 18.8286 4.25997 18.1659C4.25997 17.5032 4.7974 16.9654 5.45959 16.9654Z" fill="#445582"/>
<path fill-rule="evenodd" clip-rule="evenodd" d="M17.1583 16.9654H11.6593L10.2773 19.3664H15.7764L17.1583 16.9654ZM15.3541 18.6461H11.5153L12.072 17.6857H15.9107L15.3541 18.6461Z" fill="#445582"/>
<path fill-rule="evenodd" clip-rule="evenodd" d="M18.7129 16.9654H22.4653C23.1275 16.9654 23.665 17.5032 23.665 18.1659C23.665 18.8286 23.1275 19.3664 22.4653 19.3664H17.331L18.7129 16.9654ZM22.9356 18.1659C22.9356 17.897 22.7245 17.6857 22.4557 17.6857H19.1256L18.569 18.6461H22.4557C22.7245 18.6461 22.9356 18.4348 22.9356 18.1659Z" fill="#445582"/>
<path d="M7.65737 7.33246C8.3199 7.33246 8.85699 6.79497 8.85699 6.13195C8.85699 5.46893 8.3199 4.93144 7.65737 4.93144C6.99484 4.93144 6.45776 5.46893 6.45776 6.13195C6.45776 6.79497 6.99484 7.33246 7.65737 7.33246Z" fill="#445582"/>
<path d="M9.04898 7.73577C9.27931 7.72616 9.48084 7.88943 9.50963 8.11993V8.13914L10.0279 11.8943C10.0663 12.1344 9.89351 12.3649 9.64399 12.4034H9.57681C9.35608 12.4034 9.15455 12.2401 9.12576 12.0096L9.04898 11.4237V15.4959C9.04898 15.6303 8.94341 15.736 8.80906 15.736H6.50579C6.37144 15.736 6.26587 15.6303 6.26587 15.4959V11.4429L6.1891 12C6.1603 12.2305 5.95877 12.3937 5.73804 12.3937H5.67086C5.43094 12.3649 5.2486 12.1344 5.28698 11.8847L5.80522 8.12954C5.83401 7.89904 6.03554 7.73577 6.26587 7.73577H9.04898Z" fill="#445582"/>
<path d="M13.9913 7.33246C14.6538 7.33246 15.1909 6.79497 15.1909 6.13195C15.1909 5.46893 14.6538 4.93144 13.9913 4.93144C13.3288 4.93144 12.7917 5.46893 12.7917 6.13195C12.7917 6.79497 13.3288 7.33246 13.9913 7.33246Z" fill="#445582"/>
<path d="M15.3829 7.73585C15.6132 7.72624 15.8147 7.88951 15.8435 8.12001L15.8339 8.15842L16.3522 11.9136C16.3906 12.1537 16.2178 12.3842 15.9683 12.4226H15.9011C15.6804 12.4226 15.4789 12.2594 15.4501 12.0289L15.3733 11.443V15.5152C15.3733 15.6496 15.2677 15.7553 15.1334 15.7553H12.8301C12.6957 15.7553 12.5902 15.6496 12.5902 15.5152V9.40695L11.6785 11.9232C11.6017 12.1345 11.381 12.2594 11.1602 12.2113C11.141 12.2017 11.1219 12.1921 11.1027 12.1921C10.8723 12.1057 10.7476 11.8464 10.8339 11.6063L12.1199 8.03357C12.1967 7.83189 12.3982 7.72624 12.5998 7.73585H15.3829Z" fill="#445582"/>
</svg>
