<svg width="24" height="24" viewBox="0 0 24 24" fill="none" xmlns="http://www.w3.org/2000/svg">
<path d="M12.1806 5.26237C13.6306 5.46237 14.9606 4.44237 15.1506 3.00237C15.3506 1.55237 14.3306 0.232374 12.8906 0.0323737C11.4406 -0.167626 10.1106 0.852374 9.92056 2.29237C9.72056 3.73237 10.7406 5.06237 12.1806 5.26237Z" fill="#445582"/>
<path d="M20.7806 9.16237C20.4906 8.56237 19.7706 8.30237 19.1606 8.59237L16.0806 10.0724L14.2106 6.86237C14.0106 6.51237 13.6506 6.29237 13.2506 6.26237L10.1706 6.05237C9.98056 6.03237 9.78056 6.07237 9.60056 6.15237L5.61056 7.89237C5.21056 8.06237 4.94056 8.43237 4.89056 8.86237L4.42056 12.8224C4.34056 13.4824 4.82056 14.0924 5.48056 14.1724C5.53056 14.1724 5.58056 14.1724 5.62056 14.1724C6.23056 14.1724 6.75056 13.7224 6.82056 13.1024L7.20056 9.83237L7.58056 9.67237L9.75056 8.71237C10.1906 8.52237 10.7006 8.72237 10.8906 9.16237C11.0806 9.60237 10.8906 10.1124 10.4406 10.3024L8.65056 11.0824L7.83056 18.3524L3.87056 20.7524C3.14056 21.2024 2.90056 22.1524 3.34056 22.8924C3.63056 23.3724 4.15056 23.6424 4.67056 23.6424C4.95056 23.6424 5.22056 23.5724 5.48056 23.4124L10.1006 20.6124C10.5106 20.3624 10.7906 19.9324 10.8406 19.4524L11.1906 16.3324C11.1906 16.3324 11.2706 16.3724 11.3206 16.3824L14.1506 23.0424C14.4006 23.6324 14.9806 23.9924 15.5806 23.9924C15.7806 23.9924 15.9906 23.9524 16.1906 23.8624C16.9806 23.5224 17.3506 22.6124 17.0106 21.8124L13.5206 13.6024C13.4906 13.5324 13.4606 13.4824 13.4206 13.4224L13.6106 10.6624L14.5306 12.2424C14.8506 12.7924 15.5306 13.0024 16.1006 12.7224L20.1906 10.7624C20.7906 10.4724 21.0506 9.74237 20.7606 9.14237L20.7806 9.16237Z" fill="#445582"/>
</svg>
